<svg width="341" height="257" viewBox="0 0 341 257" fill="none" xmlns="http://www.w3.org/2000/svg">
<g clip-path="url(#clip0)">
<path opacity="0.1" d="M338.405 213.143C336.771 218.116 334.472 222.469 331.667 225.902C331.269 226.406 330.862 226.891 330.449 227.367C329.892 227.984 329.322 228.589 328.738 229.184C324.2 233.728 318.886 236.835 313.698 239.1C312.284 239.717 310.866 240.296 309.442 240.838C308.241 241.298 307.039 241.726 305.836 242.124C305.379 242.281 304.922 242.429 304.465 242.586C304.008 242.743 303.484 242.896 303 243.048L302.306 243.256C288.884 247.162 275.285 247.907 261.588 246.927L260.937 246.876L259.897 246.793C257.116 246.565 254.333 246.273 251.546 245.919L250.491 245.785L250.025 245.725C248.463 245.518 246.901 245.292 245.338 245.045C243.28 244.737 241.219 244.396 239.154 244.024L238.888 243.977L238.671 243.936C231.304 242.627 223.919 241.056 216.525 239.442L215.479 239.211L213.602 238.8L212.02 238.453L211.551 238.351C209.055 237.8 206.559 237.254 204.063 236.715L203.659 236.627C198.972 235.615 194.259 234.639 189.56 233.751L188.948 233.636C187.024 233.275 185.102 232.932 183.18 232.605L181.715 232.36L179.767 232.05C174.368 231.204 168.972 230.529 163.588 230.109C160.999 229.905 158.403 229.751 155.802 229.646C153.654 229.569 151.506 229.525 149.357 229.512C146.444 229.491 143.524 229.517 140.599 229.591H139.936C135.815 229.697 131.684 229.882 127.551 230.104L126.807 230.141H126.561C117.773 230.631 108.985 231.283 100.22 231.75L98.0786 231.861H97.7681C94.7215 232.015 91.6779 232.133 88.6372 232.217H87.8316H87.8053H86.8269L85.4676 232.244C84.0557 232.266 82.6466 232.278 81.2405 232.281H79.5151C74.3536 232.258 69.2125 232.078 64.1037 231.657L63.5354 231.606C53.6077 230.76 43.7914 229.013 34.1508 225.837C33.1529 225.507 32.1569 225.162 31.1628 224.802C24.5012 222.444 17.9602 219.306 11.5946 215.413C8.59491 213.563 5.57765 211.428 3.29566 207.812C-2.49279 198.567 -0.319187 180.459 7.21224 175.193C13.1032 171.074 20.0048 174.426 26.3411 172.568C26.7304 172.45 27.1149 172.296 27.4923 172.105C28.2978 171.695 29.0815 171.185 29.8358 170.58C30.0936 170.376 30.3514 170.159 30.6121 169.933C31.198 169.429 31.7839 168.869 32.3463 168.259C33.2658 167.294 34.1463 166.239 34.9827 165.102C35.3538 164.602 35.7151 164.085 36.0666 163.548C37.2831 161.745 38.3572 159.716 39.2655 157.506C39.5962 156.67 39.8898 155.799 40.1443 154.899C40.282 154.437 40.405 153.937 40.5075 153.457C40.6606 152.761 40.7772 152.047 40.8561 151.321C41.2252 147.891 40.6277 144.544 38.5478 141.714C38.3615 141.464 38.1659 141.23 37.9619 141.016C37.559 140.575 37.1338 140.187 36.6906 139.856C36.5119 139.722 36.3273 139.593 36.1398 139.468C33.4624 137.688 30.0087 137.004 27.0969 135.769C26.2095 135.414 25.3431 134.94 24.5073 134.35C23.9771 133.962 23.4498 133.555 22.9313 133.13L22.7936 133.01C18.3661 129.407 14.4725 124.365 11.369 118.216C10.5975 116.662 9.8873 115.035 9.2423 113.344C9.04603 112.835 8.85562 112.313 8.674 111.791C3.52708 97.136 2.99687 78.3579 8.35177 63.9483C9.0023 62.2001 9.72651 60.5229 10.5195 58.9279C10.7773 58.4009 11.0439 57.8831 11.3192 57.3746C16.4163 47.8838 23.7398 41.4534 31.1335 36.6918C41.0583 30.303 51.4488 26.2672 62.0385 23.6091C64.1867 23.0697 66.3349 22.5859 68.4831 22.1575C77.4763 20.3453 86.5749 19.3837 95.6091 18.6533C104.059 17.9784 112.547 17.5423 121.071 17.345C123.96 17.2834 126.851 17.2572 129.745 17.2665C136.266 17.2665 142.787 17.4652 149.308 17.8628C151.456 17.9922 153.604 18.1463 155.752 18.3251C161.261 18.7751 166.76 19.3914 172.247 20.1742C174.884 20.5502 177.515 20.9648 180.139 21.4178C200.129 24.8665 219.829 30.7144 238.85 39.8076C241.008 40.837 243.156 41.9157 245.294 43.0437C253.293 47.1996 261.153 51.9935 268.844 57.407C269.57 57.9216 270.295 58.4394 271.017 58.9603C275.82 62.4367 280.553 66.1827 285.219 70.1985C291.376 75.4275 297.307 81.2961 302.971 87.7654C305.182 90.3234 307.33 92.9924 309.416 95.7723C313.103 100.68 316.542 106.034 319.701 111.786C319.982 112.301 320.26 112.818 320.536 113.339C321.965 116.048 323.322 118.854 324.607 121.757C330.876 135.977 335.083 152.241 338.188 168.855C340.927 183.353 342.749 199.63 338.405 213.143Z" fill="#492F86"/>
<path opacity="0.1" d="M334.465 163.548H309.439V113.312H320.571C320.295 112.791 320.017 112.273 319.736 111.758H309.451V95.7446C307.369 92.9708 305.221 90.3019 303.006 87.7377V111.777H245.312V58.9279H271.035C270.31 58.4071 269.586 57.8893 268.861 57.3746H245.312V43.0113C243.164 41.8926 241.016 40.8139 238.867 39.7753V57.3423H156.529L156.332 57.0464L180.151 21.367C177.526 20.9109 174.896 20.4963 172.259 20.1234L155.764 44.8281V18.2928C153.616 18.114 151.468 17.9599 149.319 17.8305V46.534L129.757 17.2341C126.865 17.2341 123.973 17.2603 121.083 17.3127L147.611 57.0464L147.415 57.3423H68.489V22.176C66.3408 22.6044 64.1926 23.0882 62.0444 23.6276V57.3746H11.3193C11.0439 57.8832 10.7774 58.4009 10.5196 58.9279H62.0385V111.758H8.66235C8.84397 112.281 9.03439 112.803 9.23065 113.312H62.0385V163.548H36.0638C35.7122 164.085 35.3509 164.602 34.9799 165.102H62.0385V216.508C64.1867 216.992 66.335 217.497 68.4832 218.024V165.102H149.313V229.512C151.462 229.512 153.61 229.557 155.758 229.646V165.102H238.862V243.954L239.128 244C241.19 244.364 243.252 244.705 245.312 245.022V165.102H302.989V243.025C303.481 242.882 303.973 242.729 304.453 242.563C304.934 242.396 305.367 242.271 305.824 242.1C307.027 241.697 308.229 241.268 309.43 240.815V165.102H334.658C334.594 164.584 334.529 164.066 334.465 163.548ZM149.313 163.548H68.489V113.312H149.313V163.548ZM149.313 111.772H68.489V58.9279H148.168L149.305 60.3425L149.313 111.772ZM238.862 163.548H155.764V113.312H238.862V163.548ZM238.862 111.772H155.764V58.9279H238.862V111.772ZM302.989 163.548H245.312V113.312H302.989V163.548Z" fill="#492F86"/>
<path d="M87.0581 234.477C87.0581 234.528 87.0347 234.579 87.0259 234.63C87.0259 234.579 87.0464 234.528 87.061 234.477H87.0581Z" fill="#EAECF0"/>
<path d="M88.5874 232.263H87.7819H87.7555H86.7771L85.4178 232.291L85.2685 229.854L85.1308 227.543L84.4922 216.998L84.4717 216.675V216.531L84.293 213.563L87.029 211.945L87.363 216.249L87.3864 216.568V216.605L88.0631 225.342L88.2711 228.024L88.3912 229.582L88.4937 230.918V230.964L88.5874 232.263Z" fill="#EAECF0"/>
<path d="M98.4092 234.473L98.4414 234.625H98.2246L98.1924 234.473H98.4092Z" fill="#3A3768"/>
<path d="M140.839 173.566C140.839 173.659 140.839 173.71 140.839 173.71V173.765C140.839 173.765 138.284 184.781 137.452 194.184C137.396 194.801 137.349 195.417 137.312 196.033C137.271 196.685 137.238 197.323 137.221 197.943C137.197 198.669 137.192 199.371 137.203 200.041C137.203 200.194 137.203 200.351 137.203 200.504C137.203 200.814 137.224 201.132 137.235 201.461C137.247 201.789 137.265 202.117 137.282 202.459C137.3 202.801 137.318 203.102 137.338 203.43C137.968 213.6 140.361 228.491 140.361 228.491C140.361 228.491 140.44 228.893 140.543 229.577H139.881C135.759 229.683 131.629 229.868 127.495 230.09L126.751 230.127H126.505C117.717 230.617 108.929 231.269 100.164 231.736L98.0228 231.847H97.7123C94.6658 232.001 91.6222 232.12 88.5815 232.203H87.7759C87.9825 231.743 88.2202 231.32 88.4848 230.941C88.7072 230.615 88.9473 230.321 89.2025 230.063C90.5946 228.693 92.1109 227.665 93.6991 227.016C94.0339 226.872 94.3803 226.805 94.7273 226.817L96.7778 226.882H97.0942L100.24 226.979L127.226 227.825H127.293L127.484 227.765C127.797 227.642 128.102 227.471 128.395 227.256C128.902 226.919 129.345 226.381 129.681 225.694C130.018 225.007 130.237 224.195 130.316 223.336C130.316 223.193 130.34 223.04 130.346 222.874C130.354 222.649 130.354 222.424 130.346 222.199C130.346 222.042 130.346 221.875 130.322 221.704C130.299 221.533 130.293 221.362 130.272 221.187C129.622 215.45 128.515 197.79 128.515 197.79V197.846C128.515 197.846 128.515 197.092 128.541 195.825C128.541 195.728 128.541 195.622 128.541 195.516V195.243C128.541 194.961 128.562 194.656 128.573 194.318C128.573 194.12 128.591 193.916 128.6 193.704C128.614 193.394 128.632 193.075 128.649 192.742C128.648 192.722 128.648 192.702 128.649 192.682C128.661 192.472 128.673 192.26 128.685 192.044C128.685 192.044 128.685 191.998 128.685 191.975C129.121 185.156 130.495 174.361 134.836 170.363C136.872 168.481 138.22 168.102 139.107 168.472C140.402 169.008 140.727 171.135 140.798 172.517C140.798 172.609 140.798 172.697 140.798 172.785C140.821 173.044 140.835 173.305 140.839 173.566Z" fill="#3A3768"/>
<path opacity="0.1" d="M87.0581 234.477C87.0581 234.528 87.0347 234.579 87.0259 234.63C87.0259 234.579 87.0464 234.528 87.061 234.477H87.0581Z" fill="black"/>
<path opacity="0.1" d="M98.4092 234.473L98.4414 234.625H98.2246L98.1924 234.473H98.4092Z" fill="black"/>
<path opacity="0.1" d="M140.839 173.566C140.839 173.659 140.839 173.709 140.839 173.709C140.839 173.709 138.732 182.793 137.728 191.503C137.657 192.119 137.593 192.716 137.534 193.292C137.505 193.588 137.479 193.884 137.452 194.18C137.396 194.796 137.349 195.412 137.312 196.029C137.271 196.68 137.238 197.318 137.221 197.938C137.197 198.664 137.192 199.366 137.203 200.037C137.203 200.189 137.203 200.346 137.203 200.499C137.203 200.809 137.224 201.128 137.235 201.456C137.247 201.784 137.265 202.117 137.282 202.454C137.3 202.792 137.318 203.097 137.338 203.425C137.359 203.753 137.379 204.068 137.402 204.391C137.496 205.7 137.613 207.073 137.748 208.469C138.665 217.886 140.361 228.435 140.361 228.435C140.361 228.435 140.446 228.86 140.549 229.572H139.887C135.765 229.679 131.635 229.864 127.501 230.085L126.757 230.122H126.511C117.723 230.612 108.935 231.264 100.17 231.731L98.0287 231.842H97.7182C94.6716 231.996 91.628 232.115 88.5873 232.198H87.7817H87.7554C87.9683 231.721 88.2139 231.282 88.4877 230.89C88.7097 230.559 88.951 230.262 89.2083 230.002C90.6017 228.636 92.1176 227.609 93.7049 226.956C94.0402 226.815 94.3863 226.75 94.7332 226.762L96.7837 226.826H97.1001L100.255 226.923L127.261 227.765H127.308C127.308 227.765 127.387 227.765 127.519 227.695C127.835 227.572 128.142 227.396 128.436 227.173C128.931 226.837 129.365 226.309 129.696 225.637C130.028 224.965 130.246 224.172 130.331 223.331C130.331 223.188 130.354 223.036 130.36 222.869C130.369 222.644 130.369 222.419 130.36 222.194C130.36 222.037 130.36 221.871 130.337 221.7C130.313 221.528 130.308 221.325 130.287 221.131C129.637 215.394 128.529 197.734 128.529 197.734C128.529 197.734 128.529 196.981 128.556 195.714C128.556 195.617 128.556 195.511 128.556 195.405V195.132C128.556 194.85 128.576 194.545 128.588 194.207C128.588 194.008 128.606 193.805 128.614 193.592C128.629 193.283 128.647 192.964 128.664 192.631C128.663 192.611 128.663 192.591 128.664 192.571C128.676 192.361 128.688 192.149 128.699 191.933C128.699 191.933 128.699 191.887 128.699 191.863C128.752 191.013 128.822 190.097 128.91 189.141C129.52 182.447 131.043 173.705 134.839 170.187C136.822 168.338 138.149 167.949 139.04 168.268C140.411 168.763 140.736 170.991 140.798 172.396C140.798 172.489 140.798 172.577 140.798 172.665C140.824 172.963 140.838 173.264 140.839 173.566Z" fill="black"/>
<path d="M87.0581 234.477C87.0581 234.528 87.0347 234.579 87.0259 234.63C87.0259 234.579 87.0464 234.528 87.061 234.477H87.0581Z" fill="#3A3768"/>
<path d="M98.4092 234.473L98.4414 234.625H98.2246L98.1924 234.473H98.4092Z" fill="#3A3768"/>
<path d="M140.089 173.173C140.089 173.173 136.266 189.658 136.45 199.524C136.635 209.389 139.62 227.927 139.62 227.927C139.62 227.927 139.749 228.579 139.886 229.619C135.765 229.725 131.634 229.91 127.501 230.132L126.757 230.169H126.511C117.723 230.659 108.935 231.311 100.17 231.778L98.0286 231.889H97.7181C94.6715 232.043 91.6279 232.161 88.5872 232.244H87.7816H87.7553H86.7769C87.18 231.177 87.7295 230.266 88.3851 229.577L88.4642 229.489C89.8589 228.146 91.3737 227.14 92.9578 226.507C93.2931 226.367 93.6392 226.301 93.986 226.313L96.6928 226.397H97.0092L100.27 226.498L126.561 227.326C126.937 227.214 127.302 227.026 127.648 226.766C127.762 226.683 127.874 226.589 127.981 226.484C128.311 226.184 128.608 225.802 128.86 225.352C129.414 224.358 129.783 222.879 129.537 220.729C128.884 214.992 127.779 197.332 127.779 197.332C127.779 197.332 127.592 175.845 134.119 169.812C136.755 167.376 138.237 167.459 139.066 168.426C139.091 168.45 139.115 168.478 139.137 168.509C140.279 169.96 140.089 173.173 140.089 173.173Z" fill="#3A3768"/>
<path d="M34.8949 213.623L34.7894 215.348L34.1508 225.93C33.1529 225.6 32.1569 225.255 31.1628 224.894L31.9098 215.274L32.1618 212.005L34.8949 213.623Z" fill="#EAECF0"/>
<path opacity="0.7" d="M16.1467 210.202L32.1001 156.619L96.3619 164.528L102.285 210.202H16.1467Z" fill="#492F86"/>
<path opacity="0.7" d="M16.1467 214.876V210.203H102.285V217.035L16.1467 214.876Z" fill="#492F86"/>
<path d="M40.4371 202.376L78.976 203.615C79.0613 203.618 79.1459 203.589 79.2226 203.53C79.2993 203.47 79.3658 203.383 79.4166 203.275C79.4674 203.166 79.501 203.04 79.5146 202.907C79.5281 202.774 79.5212 202.638 79.4945 202.51L73.4863 176.936L47.5291 176.155L39.8512 200.961C39.8083 201.115 39.7903 201.283 39.799 201.45C39.8077 201.618 39.8427 201.779 39.9009 201.92C39.9591 202.06 40.0387 202.175 40.1323 202.255C40.2259 202.335 40.3307 202.376 40.4371 202.376Z" fill="#DFE6F5"/>
<path opacity="0.15" d="M40.4371 202.376L78.976 203.615C79.0613 203.618 79.1459 203.589 79.2226 203.53C79.2993 203.47 79.3658 203.383 79.4166 203.275C79.4674 203.166 79.501 203.04 79.5146 202.907C79.5281 202.774 79.5212 202.638 79.4945 202.51L73.4863 176.936L47.5291 176.155L39.8512 200.961C39.8083 201.115 39.7903 201.283 39.799 201.45C39.8077 201.618 39.8427 201.779 39.9009 201.92C39.9591 202.06 40.0387 202.175 40.1323 202.255C40.2259 202.335 40.3307 202.376 40.4371 202.376Z" fill="black"/>
<path d="M40.1267 201.308L79.064 202.602L73.7706 177.301C73.6852 176.891 73.5212 176.533 73.3014 176.277C73.0815 176.02 72.8166 175.877 72.5432 175.868L47.5205 175.119L40.1267 201.308Z" fill="#DFE6F5"/>
<path d="M43.3431 195.58L48.0096 179.377C48.1088 179.035 48.268 178.746 48.4685 178.542C48.6689 178.339 48.9021 178.231 49.1403 178.231H60.7377C61.0663 178.231 61.3815 178.437 61.6139 178.803C61.8463 179.17 61.9768 179.668 61.9768 180.186V197.693C61.9766 197.958 61.9424 198.22 61.8761 198.464C61.8099 198.707 61.7131 198.927 61.5915 199.11C61.4699 199.293 61.3262 199.435 61.1688 199.527C61.0115 199.62 60.8439 199.661 60.6762 199.649L44.4094 198.34C44.2077 198.324 44.0116 198.231 43.8381 198.068C43.6646 197.905 43.5189 197.677 43.4138 197.405C43.3087 197.133 43.2473 196.825 43.235 196.507C43.2226 196.189 43.2598 195.871 43.3431 195.58Z" fill="#4C4C56"/>
<path d="M66.2153 193.528L66.4145 184.282C66.4199 183.912 66.5166 183.56 66.684 183.301C66.8515 183.042 67.0764 182.896 67.3109 182.895H70.7383C70.9488 182.897 71.1523 183.016 71.313 183.23C71.4737 183.445 71.5813 183.742 71.6171 184.069L72.6248 193.264C72.6469 193.467 72.6408 193.675 72.6069 193.874C72.573 194.072 72.5122 194.257 72.4286 194.415C72.345 194.573 72.2406 194.7 72.1228 194.788C72.0049 194.876 71.8764 194.922 71.746 194.924L67.1088 194.989C66.9888 194.988 66.8701 194.95 66.7598 194.875C66.6494 194.801 66.5496 194.693 66.4663 194.557C66.3829 194.42 66.3178 194.259 66.2747 194.082C66.2316 193.906 66.2114 193.717 66.2153 193.528Z" fill="#D1D9EC"/>
<path d="M20.8102 133.393L33.7317 131.692C33.9205 131.653 34.1123 131.711 34.2782 131.859C34.4441 132.006 34.5751 132.235 34.6516 132.51L46.87 176.155L40.0504 200.314C40.2642 199.556 40.4224 205.455 38.8786 200.342L19.4598 136.412C19.1991 135.557 20.2039 133.514 20.8102 133.393Z" fill="#4C4C56"/>
<path opacity="0.15" d="M20.8102 133.393L33.7317 131.692C33.9205 131.653 34.1123 131.711 34.2782 131.859C34.4441 132.006 34.5751 132.235 34.6516 132.51L46.87 176.155L40.0504 200.314C40.2642 199.556 40.4224 205.455 38.8786 200.342L19.4598 136.412C19.1991 135.557 20.2039 133.514 20.8102 133.393Z" fill="black"/>
<path d="M20.8103 133.393L34.388 130.657C34.5768 130.617 34.7685 130.676 34.9344 130.823C35.1003 130.971 35.2313 131.2 35.3078 131.475L47.5292 175.12L40.1354 201.308L20.116 135.377C20.0547 135.177 20.0246 134.957 20.0284 134.735C20.0322 134.513 20.0696 134.296 20.1377 134.101C20.2057 133.907 20.3023 133.741 20.4193 133.618C20.5364 133.495 20.6705 133.418 20.8103 133.393Z" fill="#4C4C56"/>
<path d="M24.1996 136.463L34.016 134.05C34.2122 134.001 34.4132 134.058 34.5861 134.213C34.759 134.367 34.8936 134.61 34.968 134.9L45.2501 174.592C45.2923 174.755 45.3125 174.929 45.3094 175.104C45.3064 175.279 45.2802 175.451 45.2326 175.609L40.525 191.133C40.4611 191.349 40.3595 191.532 40.2321 191.659C40.1047 191.787 39.9569 191.855 39.8059 191.855C39.6549 191.855 39.507 191.787 39.3797 191.659C39.2523 191.532 39.1507 191.349 39.0867 191.133L23.5347 138.432C23.4754 138.236 23.4461 138.021 23.4492 137.804C23.4522 137.587 23.4875 137.374 23.5522 137.183C23.6169 136.991 23.7092 136.826 23.8216 136.701C23.9341 136.576 24.0635 136.495 24.1996 136.463Z" fill="#492F86"/>
<path d="M128.94 225.897C128.94 225.897 128.737 226.424 128.442 227.284L128.415 227.363C128.152 228.102 127.829 229.073 127.501 230.136L126.757 230.173H126.511C117.723 230.663 108.935 231.315 100.17 231.782L98.0288 231.893H97.7183C94.6717 232.047 91.6281 232.166 88.5874 232.249H87.7818H87.7555H86.7771L85.4178 232.277C84.0059 232.298 82.5968 232.311 81.1907 232.314H79.5151C74.3536 232.291 69.2125 232.11 64.1037 231.69L63.5354 231.639C64.5402 228.19 66.3359 222.536 67.7947 220.729C68.9225 219.342 77.0222 217.803 84.4716 216.675L85.2567 216.554H85.2743L87.3541 216.249C90.2044 215.838 92.7911 215.505 94.6366 215.279L94.8065 215.255L93.8456 210.17L92.4542 202.774L92.8497 196.56L92.8819 196.061H92.8379C92.4413 196.128 92.0403 196.049 91.6662 195.83L77.7546 195.072H77.5027L72.1595 194.771C69.2945 194.61 67.2586 194.489 67.1795 194.466C67.0954 194.444 67.013 194.408 66.9335 194.36C66.8088 194.285 66.6936 194.176 66.5937 194.036C66.4768 193.879 66.3778 193.691 66.3007 193.482H66.2421H66.1132L65.3575 193.56L64.9737 193.602C64.9591 193.537 64.9473 193.472 64.9327 193.412C64.8975 193.232 64.8624 193.061 64.8302 192.885H64.628L61.9916 192.797H61.9447C61.9447 192.797 55.1427 193.616 51.5894 191.572C50.2858 190.823 49.4187 189.691 49.4861 187.994C49.5009 187.608 49.5522 187.228 49.6384 186.866C48.496 183.496 54.0764 177.348 58.3299 179.044C59.4792 179.563 60.6902 179.642 61.8627 179.276C62.4991 179.058 63.0985 178.628 63.6203 178.013C63.6731 177.953 63.7199 177.893 63.7639 177.833C63.6936 177.764 63.6203 177.704 63.553 177.648C63.2614 177.406 62.9483 177.235 62.6243 177.14L63.7785 176.608H63.7961C63.7961 176.608 67.8972 176.016 70.5659 175.781H70.5835C71.3773 175.716 72.0481 175.674 72.4465 175.693C74.2042 175.771 77.6286 173.788 77.7751 173.178C77.9216 172.568 79.4858 173.178 79.4858 173.178L80.8539 172.337C82.2219 171.5 83.004 170.358 83.004 169.517C83.004 168.675 84.2256 167.765 84.2256 167.765C84.7763 166.304 85.8572 164.737 86.9909 163.35C87.9722 162.152 88.9917 161.084 89.7474 160.34C90.0404 157.345 90.4315 154.377 90.9192 151.446C91.4377 148.714 93.0459 146.689 93.623 146.032L93.8339 145.81C93.6722 144.659 93.4567 143.528 93.1895 142.427C93.1699 142.334 93.1465 142.242 93.1192 142.149C93.0606 141.932 92.9991 141.719 92.9375 141.52L92.8467 141.243C92.6973 141.289 92.5538 141.331 92.3956 141.363C91.9106 141.475 91.4211 141.533 90.9309 141.534C88.7344 141.547 86.5957 140.424 84.842 138.337C83.0882 136.25 81.816 133.313 81.22 129.977C81.22 129.977 81.22 129.977 81.22 129.949C80.985 128.594 80.8668 127.194 80.8685 125.789C80.8672 124.44 80.9795 123.097 81.2025 121.795C81.2464 121.517 81.2991 121.244 81.3548 120.972C81.3603 120.94 81.3672 120.909 81.3753 120.879C81.4017 120.754 81.428 120.625 81.4573 120.5C81.0237 120.604 80.5863 120.664 80.1479 120.68H79.8549C79.0185 120.73 78.1845 120.511 77.4031 120.038C77.2137 119.911 77.0323 119.756 76.8611 119.576C76.8522 119.569 76.8442 119.56 76.8377 119.548C76.6151 119.343 76.412 119.089 76.2342 118.794C76.5602 118.4 76.8335 117.908 77.0381 117.346C77.2428 116.784 77.3748 116.164 77.4265 115.521C77.5056 114.523 77.4001 113.409 77.778 112.595C77.9715 112.228 78.2033 111.915 78.4635 111.67C80.0219 109.992 81.2581 107.69 82.6671 105.707C84.0762 103.724 85.7811 102.009 87.6764 101.916C90.2191 101.791 92.4571 104.584 94.9764 105.111C95.7497 105.272 96.5436 105.217 97.2994 105.522C98.1463 105.94 98.9432 106.577 99.6575 107.408C100.303 107.987 100.873 108.752 101.339 109.664C101.663 110.455 101.895 111.33 102.024 112.248C102.351 114.184 102.547 116.169 102.61 118.17C102.678 120.264 102.61 122.372 102.751 124.453C102.851 126.26 103.237 127.998 103.876 129.506H103.914C104.025 129.752 104.146 129.987 104.277 130.208C104.028 130.333 103.779 130.444 103.524 130.541C103.101 130.712 102.671 130.847 102.238 130.943C102.04 130.995 101.839 131.021 101.638 131.022C101.498 131.028 101.359 131.007 101.222 130.962L101.48 131.235L102.194 131.993L102.464 132.275L103.006 132.843C103.129 132.275 103.299 132.122 103.495 132.159C103.893 131.567 104.488 132.848 104.488 132.848C104.837 133.902 105.774 134.951 106.603 135.728C107.09 136.181 107.592 136.594 108.106 136.967C119.053 147.262 118.359 162.665 119.003 163.886C119.648 165.106 119.689 169.526 119.689 169.526C119.689 169.526 121.303 184.546 122.032 185.845C122.762 187.144 122.079 187.597 122.715 189.048C123.35 190.5 123.204 194.383 123.204 194.383C123.204 194.383 123.643 203.532 125.208 205.515C126.611 207.295 128.486 222.268 128.858 225.329L128.94 225.897Z" fill="url(#paint0_linear)"/>
<path d="M64.7774 177.708C64.7774 177.708 63.257 181.485 58.9508 179.747C54.6446 178.009 48.947 184.582 50.5728 187.828C52.1986 191.073 62.6828 186.903 62.6828 186.903L66.7049 185.618L66.4412 180.334L64.7774 177.708Z" fill="#D38884"/>
<path opacity="0.1" d="M64.7774 177.708C64.7774 177.708 63.257 181.485 58.9508 179.747C54.6446 178.009 48.947 184.582 50.5728 187.828C52.1986 191.073 62.6828 186.903 62.6828 186.903L66.7049 185.618L66.4412 180.334L64.7774 177.708Z" fill="black"/>
<path d="M66.1774 177.505L64.3114 177.352L63.1631 177.879C63.1631 177.879 66.8014 178.711 65.7995 186.492L69.722 186.117L66.1774 177.505Z" fill="#A36468"/>
<path opacity="0.1" d="M66.1774 177.505L64.3114 177.352L63.1631 177.879C63.1631 177.879 66.8014 178.711 65.7995 186.492L69.722 186.117L66.1774 177.505Z" fill="black"/>
<path d="M90.878 160.104C90.878 160.104 85.7575 164.727 84.3192 168.569C84.3192 168.569 83.124 169.493 83.124 170.307C83.124 171.121 82.3565 172.267 81.0178 173.081L79.6761 173.913C79.6761 173.913 78.144 173.307 78.0005 173.913C77.857 174.518 74.5087 176.479 72.7833 176.405C71.0579 176.331 64.3115 177.329 64.3115 177.329C65.5471 178.214 66.5558 179.734 67.1731 181.641C67.7903 183.548 67.9794 185.729 67.7096 187.828L83.6513 186.774L89.6799 184.656L93.2245 179.067L90.878 160.104Z" fill="#444053"/>
<path opacity="0.1" d="M90.878 160.104C90.878 160.104 85.7575 164.727 84.3192 168.569C84.3192 168.569 83.124 169.493 83.124 170.307C83.124 171.121 82.3565 172.267 81.0178 173.081L79.6761 173.913C79.6761 173.913 78.144 173.307 78.0005 173.913C77.857 174.518 74.5087 176.479 72.7833 176.405C71.0579 176.331 64.3115 177.329 64.3115 177.329C65.5471 178.214 66.5558 179.734 67.1731 181.641C67.7903 183.548 67.9794 185.729 67.7096 187.828L83.6513 186.774L89.6799 184.656L93.2245 179.067L90.878 160.104Z" fill="black"/>
<path d="M67.3872 193.528L65.1316 193.458L62.4951 193.371C62.4951 193.371 50.0453 194.882 50.2884 188.6C50.5316 182.317 60.1077 180.112 61.4406 181.915C62.4512 183.279 64.7888 184.379 65.8551 184.828C66.195 184.971 66.4029 185.049 66.4029 185.049L67.3872 193.528Z" fill="#D38884"/>
<path opacity="0.1" d="M67.3876 193.528L65.1319 193.458C64.2326 188.581 65.2755 185.895 65.8672 184.841C66.207 184.985 66.415 185.063 66.415 185.063L67.3876 193.528Z" fill="black"/>
<path d="M68.9077 193.796L66.5642 194.055L65.451 194.175C63.9189 187.074 66.3943 184.277 66.3943 184.277H67.1266L68.3247 184.504L68.9077 193.796Z" fill="#A36468"/>
<path d="M97.2935 146.661L94.5164 154.982C94.5164 154.982 94.0917 146.555 92.8555 142.584C92.5391 141.567 92.17 140.845 91.7394 140.628C90.5676 140.046 97.3052 128.391 97.3052 128.391C97.5308 128.465 98.8197 129.778 100.399 131.475C102.136 133.324 104.227 135.58 105.633 137.022C108.302 139.708 97.2935 146.661 97.2935 146.661Z" fill="#D38884"/>
<path d="M93.731 146.818C93.731 146.818 91.4988 149.079 90.8778 152.403C90.2568 155.726 89.6797 161.695 89.6797 161.695C89.6797 161.695 90.6874 175.97 91.2118 176.65C91.7361 177.329 93.731 191.605 93.731 191.605L95.6644 189.566L93.1276 171.588C93.1276 171.588 94.8149 148.487 93.731 146.818Z" fill="#444053"/>
<path opacity="0.1" d="M93.731 146.818C93.731 146.818 91.4988 149.079 90.8778 152.403C90.2568 155.726 89.6797 161.695 89.6797 161.695C89.6797 161.695 90.6874 175.97 91.2118 176.65C91.7361 177.329 93.731 191.605 93.731 191.605L95.6644 189.566L93.1276 171.588C93.1276 171.588 94.8149 148.487 93.731 146.818Z" fill="black"/>
<path d="M103.445 178.665H92.2871L94.0945 150.886H103.445V178.665Z" fill="#A36468"/>
<path d="M77.5933 234.477H77.728L77.4761 234.63L77.5933 234.477Z" fill="#67647E"/>
<path d="M98.5852 221.824L96.4029 223.147L96.1099 223.318L88.2533 228.084L85.2566 229.901L81.1789 232.374H79.515C74.3534 232.351 69.2124 232.17 64.1035 231.75C65.0936 228.324 66.8249 222.841 68.2369 221.071C69.3383 219.684 77.2184 218.186 84.492 217.058C85.4001 216.92 86.2965 216.785 87.1695 216.661L87.3774 216.628C90.2658 216.212 92.8788 215.875 94.7009 215.644L94.9938 215.607L97.2846 215.329L97.5248 214.95L97.8177 216.929L98.0609 218.51L98.5852 221.824Z" fill="#67647E"/>
<path opacity="0.1" d="M77.5933 234.477H77.728L77.4761 234.63L77.5933 234.477Z" fill="black"/>
<path opacity="0.1" d="M98.5852 221.824L96.4029 223.147L96.1099 223.318L88.2533 228.084L85.2566 229.901L81.1789 232.374H79.515C74.3534 232.351 69.2124 232.17 64.1035 231.75C65.0936 228.324 66.8249 222.841 68.2369 221.071C69.3383 219.684 77.2184 218.186 84.492 217.058C85.4001 216.92 86.2965 216.785 87.1695 216.661L87.3774 216.628C90.2658 216.212 92.8788 215.875 94.7009 215.644L94.9938 215.607L97.2846 215.329L97.5248 214.95L97.8177 216.929L98.0609 218.51L98.5852 221.824Z" fill="black"/>
<path d="M77.5933 234.477H77.728L77.4761 234.63L77.5933 234.477Z" fill="#67647E"/>
<path d="M87.0581 234.477C87.0581 234.528 87.0347 234.579 87.0259 234.63C87.0259 234.579 87.0464 234.528 87.061 234.477H87.0581Z" fill="#67647E"/>
<path d="M98.4414 234.625H98.2246L98.1924 234.473H98.4092L98.4414 234.625Z" fill="#67647E"/>
<path d="M100.451 216.993L100.27 226.507V227.02V227.071L100.179 231.782L98.0376 231.893H97.7271C94.6805 232.047 91.6369 232.166 88.5962 232.249H87.7906H87.7643H86.7859L85.4266 232.277C84.0147 232.298 82.6056 232.311 81.1995 232.314H79.5151C81.0384 230.825 83.0099 229.184 85.1308 227.543C86.0828 226.803 87.07 226.068 88.0601 225.342C90.6966 223.41 93.3652 221.584 95.5418 220.128L95.82 219.943C96.6637 219.379 97.4283 218.875 98.0815 218.45C99.4935 217.525 100.39 216.97 100.451 216.933V216.993Z" fill="#67647E"/>
<path opacity="0.1" d="M80.8858 177.893C81.4335 179.696 81.9989 181.536 82.9041 182.941C83.0476 183.163 83.2966 183.367 83.4255 183.122C83.4661 183.02 83.4855 182.9 83.4812 182.78C83.4532 181.93 83.2701 181.111 82.9539 180.422C82.661 179.71 82.3153 179.063 82.0546 178.323C81.7939 177.584 81.4951 176.16 80.9092 175.965C80.1563 175.716 80.7188 177.348 80.8858 177.893Z" fill="black"/>
<path opacity="0.1" d="M100.387 131.461C100.346 131.692 100.302 131.923 100.255 132.145C99.7145 134.759 98.7452 137.1 97.4455 138.931C96.1458 140.762 94.5622 142.017 92.8555 142.57C92.5391 141.553 92.17 140.831 91.7394 140.614C90.5676 140.032 97.3052 128.377 97.3052 128.377C97.5191 128.451 98.808 129.787 100.387 131.461Z" fill="black"/>
<path d="M100.739 127.018C100.739 130.096 100.16 133.104 99.0769 135.663C97.9934 138.222 96.4535 140.217 94.6517 141.395C92.85 142.572 90.8674 142.88 88.9547 142.28C87.042 141.68 85.2851 140.198 83.9061 138.021C82.5271 135.845 81.588 133.073 81.2075 130.054C80.8271 127.036 81.0223 123.907 81.7686 121.064C82.5149 118.22 83.7788 115.79 85.4003 114.08C87.0218 112.37 88.9282 111.458 90.8784 111.458C92.174 111.454 93.4574 111.853 94.6549 112.634C95.8524 113.414 96.9405 114.56 97.8567 116.006C98.7728 117.452 99.499 119.169 99.9936 121.059C100.488 122.948 100.741 124.974 100.739 127.018Z" fill="#D38884"/>
<path d="M94.6599 150.133C94.6599 150.133 92.6093 154.062 92.9374 156.633H95.4244L97.2436 153.397L94.6599 150.133Z" fill="#67647E"/>
<path opacity="0.1" d="M101.954 133.541L94.1328 150.512C94.1328 150.512 96.1424 155.047 97.1003 155.273C98.0582 155.5 103.521 135.201 103.521 135.201L101.954 133.541Z" fill="black"/>
<path d="M102.054 133.236L94.2295 150.23C94.2295 150.23 96.239 154.76 97.1969 154.987C98.1549 155.213 103.618 134.919 103.618 134.919L102.054 133.236Z" fill="#A36468"/>
<path d="M93.2247 154.973C93.2247 154.973 92.8409 164.487 92.4572 166.378C92.0734 168.268 92.4572 185.636 92.4572 185.636L96.0486 183.297L95.4246 156.633L93.2247 154.973Z" fill="#67647E"/>
<path opacity="0.1" d="M98.4092 234.473L98.4414 234.625H98.2246L98.1924 234.473H98.4092Z" fill="black"/>
<path opacity="0.1" d="M127.832 226.281C127.832 226.281 127.765 226.457 127.654 226.743C127.542 227.03 127.422 227.386 127.267 227.839C127.259 227.856 127.252 227.875 127.246 227.894C127.03 228.528 126.772 229.304 126.511 230.15C117.723 230.64 108.935 231.292 100.17 231.759L98.0287 231.87H97.7182L96.7984 226.97V226.919L96.7017 226.401L96.1158 223.322L95.5299 220.193L94.9236 216.855L94.7009 215.644L94.6423 215.339L93.6874 210.207L92.3926 203.24L92.8115 196.593L92.8408 196.089L93.2187 190.135L93.2714 188.369L93.3007 187.444V187.181L93.3651 185.036L93.5585 178.656L93.6581 175.392L93.6756 174.898L93.8749 168.347L94.4402 165.67L94.7332 164.339L95.3835 161.246L95.5241 160.483C95.7291 159.323 96.1422 157.03 96.5289 154.825L96.564 154.635L96.5904 154.492L96.8657 152.925L97.2085 150.914C97.3374 150.142 97.4223 149.592 97.4428 149.402C97.4751 149.074 98.0287 147.623 98.7552 145.704C100.22 141.881 102.423 136.255 102.675 134.369C102.676 134.353 102.676 134.338 102.675 134.323C102.69 134.208 102.71 134.095 102.736 133.985C102.856 133.421 103.029 133.269 103.211 133.306C103.294 133.327 103.372 133.375 103.442 133.449C103.619 133.637 103.773 133.871 103.899 134.142C104.242 135.182 105.159 136.223 105.97 136.995L106.128 137.138L106.222 137.226C106.896 137.831 107.441 138.22 107.441 138.22C118.162 148.418 117.494 163.678 118.115 164.884C118.736 166.091 118.786 170.478 118.786 170.478C118.786 170.478 120.365 185.359 121.083 186.658C121.801 187.957 121.133 188.396 121.754 189.834C122.375 191.272 122.231 195.072 122.231 195.072C122.231 195.072 122.662 204.133 124.194 206.097C125.726 208.062 127.832 226.281 127.832 226.281Z" fill="black"/>
<path d="M128.119 226.133L127.99 226.484C127.888 226.771 127.724 227.224 127.528 227.793L127.507 227.857C127.284 228.509 127.021 229.3 126.76 230.169H126.514C117.726 230.659 108.938 231.311 100.173 231.778L98.0317 231.889L97.1148 226.97V226.919L97.0181 226.401L96.4117 223.165L95.8258 220.022L95.24 216.883L95.0085 215.625L94.0067 210.226L92.6826 203.111L93.0488 197.328L93.0986 196.556L93.5028 189.987L93.6581 184.865L93.8485 178.674L93.8983 177.052L93.954 175.175L93.9774 174.384L94.1678 168.199L94.7332 165.527L94.9763 164.376L95.5446 161.672L95.6647 161.098C95.6647 161.098 96.2125 158.061 96.7427 155.052C96.7632 154.941 96.7837 154.83 96.8013 154.719C96.8482 154.46 96.8921 154.201 96.939 153.947C96.9859 153.688 97.0298 153.434 97.0708 153.179C97.2202 152.338 97.3638 151.552 97.4634 150.905C97.6069 150.059 97.7036 149.444 97.7241 149.245C97.7563 148.917 98.31 147.424 99.0628 145.482C100.448 141.867 102.47 136.699 102.897 134.554C102.92 134.443 102.94 134.33 102.956 134.216C102.982 133.875 103.071 133.554 103.211 133.292C103.603 132.695 104.186 133.976 104.186 133.976C104.529 135.016 105.446 136.061 106.257 136.828C106.731 137.277 107.22 137.686 107.722 138.053C118.444 148.251 117.776 163.511 118.397 164.723C119.018 165.934 119.068 170.312 119.068 170.312C119.068 170.312 120.646 185.193 121.364 186.492C122.082 187.791 121.414 188.23 122.035 189.663C122.656 191.096 122.512 194.952 122.512 194.952C122.512 194.952 122.943 204.017 124.475 205.982C126.007 207.947 128.119 226.133 128.119 226.133Z" fill="#444053"/>
<path opacity="0.1" d="M106.257 137.124C105.205 139.537 103.492 143.781 103.035 146.832C103.035 146.832 101.359 149.555 100.735 149.402C100.111 149.25 101.321 151.441 101.321 151.441L94.7388 165.837L95.6732 161.413C95.6732 161.413 97.6359 150.535 97.7238 149.555C97.8117 148.575 102.578 137.346 102.956 134.521C103.249 132.261 104.186 134.295 104.186 134.295C104.526 135.312 105.443 136.361 106.257 137.124Z" fill="black"/>
<path d="M106.257 136.823C105.205 139.232 103.492 143.48 103.035 146.508C103.035 146.508 101.359 149.227 100.735 149.079C100.111 148.931 101.321 151.117 101.321 151.117L94.7388 165.513L95.6732 161.089C95.6732 161.089 97.6359 150.211 97.7238 149.227C97.8117 148.242 102.578 137.022 102.956 134.198C103.249 131.932 104.186 133.971 104.186 133.971C104.526 135.011 105.443 136.051 106.257 136.823Z" fill="#444053"/>
<path opacity="0.1" d="M115.098 166.651C115.148 169.951 112.084 174.459 111.94 174.722C111.797 174.986 102.414 187.204 102.414 187.204L95.6765 195.359C94.9171 196.347 94.009 197.009 93.04 197.282L93.5 189.987L93.954 175.194C95.0057 173.344 96.0251 171.403 96.0485 170.783C96.0954 169.503 97.8061 168.139 97.8061 168.139C97.8061 168.139 99.0042 166.553 98.8109 165.647C98.6176 164.741 99.4466 160.4 99.4466 160.4C99.8772 148.085 107.918 146.878 107.918 146.878C107.918 146.878 111.797 149.296 114.524 151.862C117.251 154.428 115.051 163.354 115.098 166.651Z" fill="black"/>
<path opacity="0.1" d="M68.9079 193.796L66.5643 194.055C65.5742 191.397 66.9364 184.277 66.9364 184.277H67.1268L68.3249 184.504L68.9079 193.796Z" fill="black"/>
<path d="M107.918 146.129C107.918 146.129 99.8772 147.341 99.4466 159.651C99.4466 159.651 98.6322 163.96 98.8227 164.866C99.0131 165.772 97.8179 167.358 97.8179 167.358C97.8179 167.358 96.0954 168.717 96.0603 170.002C96.0251 171.287 91.6662 178.295 91.6662 178.295C91.6662 178.295 89.85 181.559 85.6375 181.901C81.4251 182.243 79.4624 184.277 79.4624 184.277C79.4624 184.277 77.4118 182.012 75.9179 182.692C74.4239 183.371 67.159 184.277 67.159 184.277C67.159 184.277 65.2286 194.374 67.6365 195.007C67.9294 195.081 91.6281 196.366 91.6281 196.366C91.6281 196.366 93.248 197.573 95.6882 194.628C98.1284 191.683 102.426 186.469 102.426 186.469C102.426 186.469 111.8 174.232 111.952 173.987C112.104 173.742 115.174 169.211 115.11 165.915C115.046 162.619 117.266 153.702 114.524 151.122C111.782 148.543 107.918 146.129 107.918 146.129Z" fill="#444053"/>
<path opacity="0.1" d="M100.738 127.018C100.739 128.656 100.576 130.283 100.255 131.84C100.121 131.591 100 131.327 99.8916 131.05C99.4346 129.94 98.9766 128.831 98.5177 127.721C98.1611 126.722 97.6868 125.841 97.1204 125.123C96.5345 124.467 95.7026 124.198 95.0698 124.781C94.5133 125.299 94.2408 126.357 94.191 127.374C94.174 128.395 94.1906 129.417 94.2408 130.435C94.2643 130.825 94.2011 131.215 94.0621 131.54C93.8542 131.833 93.5855 131.998 93.3064 132.002L92.4275 132.191C92.3482 132.235 92.264 132.254 92.18 132.246C92.096 132.238 92.0139 132.203 91.9386 132.144C91.8632 132.085 91.7961 132.003 91.7412 131.902C91.6863 131.801 91.6448 131.684 91.619 131.558C90.8896 129.473 90.3858 126.884 89.0177 125.881C88.1741 125.262 87.0609 125.303 86.519 124.111C86.1499 123.297 86.1997 122.192 86.3081 121.203C86.4273 120.087 86.5987 118.987 86.8207 117.911C86.976 117.153 87.3216 115.641 86.5541 115.489C86.0327 115.383 85.3121 116.256 85.0484 116.876C84.7848 117.495 84.7204 118.323 84.5329 119.03C84.1736 120.247 83.5271 121.194 82.7313 121.67C82.333 121.928 81.9157 122.107 81.4893 122.201C82.2097 118.67 83.7058 115.662 85.7078 113.718C87.7097 111.774 90.0859 111.022 92.4079 111.599C94.73 112.176 96.845 114.043 98.3719 116.863C99.8987 119.683 100.737 123.272 100.735 126.981L100.738 127.018Z" fill="black"/>
<path d="M85.0518 116.483C84.7853 117.125 84.7237 117.925 84.5363 118.633C84.1774 119.848 83.5321 120.796 82.7376 121.272C81.9481 121.739 81.1112 121.974 80.2682 121.966C78.9031 122.03 77.3798 121.702 76.501 120.052C76.8214 119.66 77.0898 119.173 77.2909 118.618C77.4919 118.062 77.6217 117.45 77.6727 116.816C77.7489 115.826 77.6464 114.722 78.0184 113.913C78.208 113.559 78.4337 113.257 78.6863 113.02C80.2154 111.356 81.4223 109.072 82.805 107.112C84.1877 105.152 85.8545 103.446 87.7117 103.354C90.1987 103.234 92.3987 105.998 94.8594 106.521C95.6152 106.682 96.3944 106.627 97.1326 106.927C97.9633 107.335 98.7446 107.96 99.4439 108.777C100.077 109.355 100.636 110.114 101.093 111.014C101.409 111.8 101.636 112.667 101.764 113.575C102.088 115.493 102.284 117.459 102.35 119.442C102.417 121.513 102.35 123.602 102.49 125.664C102.631 127.726 103.047 129.825 103.94 131.35C103.289 131.675 102.622 131.918 101.946 132.076C101.523 132.234 101.079 132.179 100.677 131.919C100.352 131.592 100.085 131.138 99.9038 130.601L98.5299 127.273C98.1733 126.274 97.699 125.392 97.1326 124.675C96.5467 124.018 95.7148 123.75 95.082 124.333C94.5254 124.85 94.2559 125.909 94.2032 126.926C94.1862 127.947 94.2028 128.968 94.253 129.986C94.2765 130.376 94.2133 130.767 94.0743 131.091C93.8655 131.386 93.5957 131.55 93.3156 131.553L92.4368 131.743C92.3574 131.787 92.2733 131.806 92.1893 131.797C92.1053 131.789 92.0232 131.755 91.9478 131.696C91.8725 131.637 91.8054 131.554 91.7505 131.454C91.6956 131.353 91.654 131.236 91.6283 131.11C90.8989 129.02 90.395 126.436 89.027 125.433C88.1833 124.813 87.0702 124.855 86.5282 123.662C86.1591 122.849 86.2089 121.744 86.3173 120.754C86.4366 119.639 86.6079 118.539 86.83 117.463C86.9852 116.705 87.3309 115.193 86.5634 115.036C86.0361 114.948 85.3155 115.822 85.0518 116.483Z" fill="#444053"/>
<path opacity="0.1" d="M107.356 153.036C108.097 152.874 108.876 152.768 109.571 153.216C107.763 152.047 104.822 152.495 103.176 154.104C103.325 154.645 106.782 153.161 107.356 153.036Z" fill="black"/>
<path opacity="0.1" d="M108.22 156.827C110.021 157.016 111.882 157.414 113.589 156.489C112.16 155.712 110.587 156.203 109.081 155.967C107.88 155.777 106.658 155.121 105.487 155.602C104.998 155.8 103.196 157.109 103.319 158.066C104.857 156.991 106.546 156.564 108.22 156.827Z" fill="black"/>
<path opacity="0.1" d="M103.448 163.04C103.825 162.977 104.206 163.04 104.567 163.225C105.918 163.727 107.303 163.967 108.691 163.941C109.752 163.941 110.894 163.687 111.668 162.554L103.448 163.04Z" fill="black"/>
<path opacity="0.1" d="M97.645 177.505C98.9049 178.418 100.29 178.815 101.673 178.661C103.05 178.501 104.411 178.088 105.727 177.431C106.313 177.158 106.952 176.816 107.294 176.012L97.645 177.505Z" fill="black"/>
<path opacity="0.1" d="M110.613 179.539C113.354 182.013 116.406 183.504 119.554 183.908C117.966 182.903 116.366 181.952 114.755 181.055C113.107 180.144 111.418 179.43 109.702 178.919C110.028 179.031 110.338 179.241 110.613 179.539Z" fill="black"/>
<path opacity="0.1" d="M115.039 176.89C115.59 177.035 116.149 177.083 116.706 177.033C116.999 177.033 117.348 176.969 117.52 176.571C116.264 176.654 115.025 176.146 113.797 175.707C113.449 175.577 112.822 175.272 112.529 175.6C113.085 176.229 114.336 176.668 115.039 176.89Z" fill="black"/>
<path opacity="0.1" d="M122.595 218.186C123.254 219.971 123.922 221.774 124.833 223.272C125.359 224.088 125.92 224.848 126.511 225.546C125.424 221.173 124.32 216.763 122.58 212.939C122.141 211.978 121.484 210.6 120.685 210.425C120.456 211.492 121.033 213.383 121.312 214.386C121.694 215.69 122.122 216.959 122.595 218.186Z" fill="black"/>
<path opacity="0.1" d="M90.5676 185.484C90.5178 186.224 90.4797 187.042 90.7521 187.648C90.8869 187.946 91.0839 188.161 91.3087 188.253C91.1681 188.198 91.0158 186.025 90.9806 185.729C90.9162 185.123 90.9806 183.991 90.7082 183.542C90.6379 184.18 90.6115 184.837 90.5676 185.484Z" fill="black"/>
<path opacity="0.1" d="M92.0908 184.633C92.1876 185.285 92.3673 185.898 92.6191 186.436C92.871 186.974 93.1895 187.426 93.5555 187.763C93.0428 186.764 92.8759 185.452 92.4306 184.356C92.2871 184.005 92.1201 183.501 91.8447 183.431C91.9141 183.838 91.9962 184.239 92.0908 184.633Z" fill="black"/>
<path opacity="0.1" d="M90.8021 171.319C90.3698 171.725 89.8892 171.986 89.3902 172.085C88.8913 172.185 88.3846 172.121 87.902 171.897C87.6823 171.796 87.1697 171.435 87.2927 170.926C87.4158 170.418 88.0104 170.769 88.2536 170.815L89.5278 171.07C89.7622 171.116 90.6117 171.495 90.8021 171.319Z" fill="black"/>
<path opacity="0.1" d="M86.4897 174.611C87.0903 174.491 87.6293 175.147 88.1917 175.503C88.8141 175.83 89.4701 175.969 90.1251 175.91C90.4532 175.91 90.8252 175.868 91.0274 175.448C89.5011 174.897 88.0745 174.292 86.4897 174.611Z" fill="black"/>
<path d="M93.731 146.813H93.8276L94.5453 150.886L93.731 152.255V146.813Z" fill="#A36468"/>
<g opacity="0.1">
<path opacity="0.1" d="M77.8599 114.523C77.7709 115.184 77.7267 115.858 77.7281 116.534C77.7645 116.321 77.791 116.105 77.8072 115.886C77.8423 115.443 77.8394 114.976 77.8599 114.523Z" fill="black"/>
<path opacity="0.1" d="M86.5981 115.05C86.6691 115.056 86.7385 115.086 86.8019 115.137C86.8654 115.188 86.9214 115.259 86.9665 115.346C87.0116 115.433 87.0449 115.533 87.0642 115.642C87.0834 115.75 87.0883 115.863 87.0785 115.974C87.2162 115.207 87.2923 114.264 86.6947 114.125C86.1733 114.023 85.4527 114.897 85.189 115.535C84.9254 116.173 84.8609 116.982 84.6735 117.689C84.3154 118.906 83.6698 119.854 82.8748 120.329C82.0853 120.796 81.2484 121.031 80.4054 121.022C79.1633 121.083 77.7894 120.81 76.8901 119.515C76.7824 119.696 76.6659 119.863 76.5415 120.015C77.4203 121.665 78.9436 121.993 80.3116 121.929C81.1537 121.936 81.9896 121.701 82.7782 121.235C83.5734 120.759 84.2197 119.812 84.5797 118.595C84.7672 117.888 84.8258 117.088 85.0924 116.446C85.3589 115.803 86.0766 114.948 86.5981 115.05Z" fill="black"/>
<path opacity="0.1" d="M102.071 131.165C101.648 131.323 101.205 131.268 100.803 131.008C100.478 130.68 100.212 130.226 100.029 129.69C99.5722 128.581 99.1142 127.471 98.6553 126.362C98.3005 125.363 97.8271 124.481 97.2609 123.764C96.675 123.103 95.8402 122.839 95.2104 123.422C94.6508 123.94 94.3813 124.998 94.3169 126.015C94.3169 126.057 94.3169 126.098 94.3169 126.14C94.423 125.394 94.7101 124.744 95.1166 124.328C95.7406 123.745 96.5813 124.014 97.1672 124.67C97.7328 125.389 98.2069 126.27 98.5645 127.268C99.0215 128.378 99.4794 129.487 99.9384 130.596C100.119 131.135 100.386 131.589 100.712 131.914C101.113 132.174 101.555 132.229 101.977 132.071C102.654 131.913 103.322 131.67 103.975 131.345C103.846 131.125 103.727 130.892 103.618 130.647C103.109 130.871 102.593 131.044 102.071 131.165Z" fill="black"/>
<path opacity="0.1" d="M94.1939 130.18C93.9848 130.471 93.7168 130.635 93.4381 130.643L92.5593 130.832C92.4799 130.876 92.3957 130.895 92.3118 130.886C92.2278 130.878 92.1457 130.844 92.0703 130.785C91.9949 130.726 91.9278 130.643 91.873 130.543C91.8181 130.442 91.7765 130.325 91.7508 130.199C91.0213 128.109 90.5175 125.525 89.1495 124.522C88.3058 123.902 87.1956 123.944 86.6536 122.751C86.3785 122.023 86.2856 121.159 86.3929 120.329C86.3783 120.472 86.3578 120.611 86.3431 120.75C86.2376 121.739 86.1849 122.844 86.557 123.657C87.0989 124.85 88.2121 124.808 89.0528 125.428C90.4237 126.431 90.9276 129.015 91.657 131.105C91.7235 131.367 91.8416 131.589 91.9939 131.738C92.1461 131.818 92.3095 131.829 92.4655 131.77L93.3443 131.581C93.6235 131.577 93.8922 131.413 94.1001 131.119C94.2405 130.795 94.3038 130.404 94.2788 130.014C94.2533 130.073 94.2249 130.128 94.1939 130.18Z" fill="black"/>
</g>
<path d="M215.438 239.188L213.561 238.777V195.03L213.944 195.215L215.116 195.784V197.24V198.336V199.995L215.131 201.895L215.157 205.806V206.199V206.722V207.831V208.501V210.124V211.141L215.298 230.839V231.366L215.347 238.3V238.407L215.438 239.188Z" fill="#EAECF0"/>
<path d="M216.493 239.419L215.447 239.188V238.398V238.291L215.397 231.357V230.83L215.256 211.132V210.115V208.492V207.822V206.712V206.19V205.797L215.23 201.886L215.215 199.986V198.326V197.231V195.775H216.343V197.383V198.484V199.75V201.428L216.367 205.654V206.578V207.545V208.219V209.047V210.124L216.475 230.798V231.329L216.51 238.204V238.314L216.493 239.419Z" fill="#D3DAE1"/>
<path d="M330.445 189.608V227.367C329.889 227.984 329.318 228.589 328.734 229.184L328.711 197.749V194.411L330.445 189.608Z" fill="#EAECF0"/>
<path d="M331.664 189.062V225.906C331.266 226.41 330.858 226.896 330.445 227.372V189.608L331.664 189.062Z" fill="#D3DAE1"/>
<path d="M304.462 242.572C303.741 242.803 303.017 243.034 302.294 243.233L302.268 209.065V207.586L304.356 206.199V209.334L304.462 242.572Z" fill="#EAECF0"/>
<path d="M305.839 205.117V242.1C305.382 242.258 304.925 242.406 304.468 242.563L304.371 209.338V206.204L304.509 206.102L305.839 205.117Z" fill="#D3DAE1"/>
<path d="M181.677 232.337L179.729 232.027L179.48 193.5V192.4V191.665H181.393V192.659V193.759L181.677 232.337Z" fill="#EAECF0"/>
<path d="M183.127 232.582L181.662 232.337L181.369 193.759V192.659V191.665H182.848V192.862V193.962L183.127 232.582Z" fill="#D3DAE1"/>
<path opacity="0.1" d="M304.494 206.107L305.833 205.113V209.777L304.529 210.466L304.494 206.107Z" fill="black"/>
<path opacity="0.1" d="M331.661 189.053V196.191L330.445 196.833L328.708 197.744L328.705 194.406L330.445 189.603L331.661 189.053Z" fill="black"/>
<path opacity="0.7" d="M331.661 175.332V195.095L304.529 209.366L304.354 188.23L331.661 175.332Z" fill="#492F86"/>
<path opacity="0.7" d="M179.12 173.959L214.776 163.252L331.661 175.332L304.353 188.23L179.12 173.959Z" fill="#492F86"/>
<path opacity="0.1" d="M182.86 191.665L182.872 193.958L181.396 193.754L179.477 193.495L179.468 191.665H182.86Z" fill="black"/>
<path opacity="0.1" d="M216.27 198.488L215.142 198.331L213.56 198.118V195.03L215.124 195.779H216.255L216.27 198.488Z" fill="black"/>
<path opacity="0.7" d="M179.12 173.959V192.349L304.529 209.366L304.353 188.23L179.12 173.959Z" fill="#492F86"/>
<path d="M278.554 195.825H262.173V186.446L278.554 188.267V195.825Z" fill="#D48A9B"/>
<path opacity="0.1" d="M278.554 195.825H262.173V186.446L278.554 188.267V195.825Z" fill="black"/>
<path opacity="0.1" d="M240.171 184.388V199.209L303.05 206.759V190.976L278.525 188.78L276.088 192.21L266.087 191.115L262.522 186.996L240.171 184.388Z" fill="black"/>
<path d="M239.822 183.838V198.664L302.701 206.209V190.426L278.177 188.23L275.742 191.665L265.739 190.565L262.173 186.446L239.822 183.838Z" fill="white"/>
<path d="M201.035 179.858L215.907 181.508L215.734 188.965H206.023L199.529 184.938L201.035 179.858Z" fill="#D48A9B"/>
<path opacity="0.1" d="M201.035 179.858L215.907 181.508L215.734 188.965H206.023L199.529 184.938L201.035 179.858Z" fill="black"/>
<path opacity="0.1" d="M181.208 177.801V191.115L238.258 198.252V184.116L216.256 182.054L213.906 184.8L205.036 183.977L201.383 180.408L181.208 177.801Z" fill="black"/>
<path d="M180.86 177.251V190.565L237.909 197.702V183.566L215.907 181.508L213.561 184.25L204.687 183.427L201.034 179.858L180.86 177.251Z" fill="white"/>
<path opacity="0.1" d="M303.056 177.302L311.053 178.129L297.803 184.388L291.054 183.621L303.056 177.302Z" fill="black"/>
<path d="M303.056 176.756L311.053 177.579L297.803 183.838L291.054 183.071L303.056 176.756Z" fill="white"/>
<path d="M302.101 178.175C302.417 177.958 302.754 178.36 303.091 178.462C303.281 178.522 303.48 178.462 303.677 178.522C304.069 178.605 304.456 179.017 304.831 178.809L302.101 178.175Z" fill="#D3DAE1"/>
<path d="M301.688 178.55C302.001 178.337 302.338 178.739 302.675 178.841C302.868 178.896 303.067 178.841 303.261 178.896C303.65 178.98 304.04 179.396 304.415 179.188L301.688 178.55Z" fill="#D3DAE1"/>
<path d="M300.739 179.308C301.052 179.095 301.389 179.493 301.726 179.594C301.919 179.654 302.116 179.594 302.312 179.654C302.704 179.738 303.094 180.154 303.466 179.941L300.739 179.308Z" fill="#D3DAE1"/>
<path opacity="0.1" d="M249.099 170.376L266.931 172.221L263.131 180.833L243.528 177.528L249.099 170.376Z" fill="black"/>
<path d="M248.751 169.826L266.582 171.666L262.783 180.283L243.176 176.978L248.751 169.826Z" fill="#3A3768"/>
<path d="M249.536 170.46L265.088 171.962L261.775 178.98L244.676 176.285L249.536 170.46Z" fill="#D5E1F4"/>
<path d="M239.107 240.838C239.107 240.968 239.107 241.102 239.093 241.231C239.078 241.361 239.093 241.463 239.069 241.578C239.007 242.393 238.864 243.187 238.645 243.931C231.277 242.623 223.892 241.051 216.498 239.438L215.453 239.207L213.575 238.795L211.993 238.448C210.262 238.38 208.535 238.125 206.826 237.686C205.749 237.434 204.682 237.079 203.633 236.622C198.946 235.61 194.232 234.635 189.534 233.747L188.921 233.631C189.033 232.845 189.126 232.369 189.126 232.369C189.126 232.369 190.134 226.119 190.972 219.134C191.156 217.618 191.332 216.074 191.485 214.543C191.608 213.318 191.719 212.107 191.813 210.942C191.865 210.3 191.909 209.671 191.947 209.056C191.968 208.751 191.985 208.446 192 208.132C192.015 207.817 192.032 207.475 192.047 207.156C192.062 206.837 192.067 206.555 192.076 206.264V205.829C192.076 205.205 192.076 204.553 192.062 203.883C191.913 200.544 191.58 197.233 191.066 193.986C190.984 193.431 190.899 192.876 190.811 192.335C190.784 192.159 190.755 191.988 190.726 191.817C189.78 186.034 188.675 181.31 188.675 181.31C188.674 181.283 188.674 181.257 188.675 181.231C188.676 181.213 188.676 181.194 188.675 181.176C188.677 181.137 188.677 181.098 188.675 181.06C188.675 180.912 188.675 180.685 188.675 180.413C188.675 180.357 188.675 180.297 188.675 180.237C188.697 179.752 188.75 179.272 188.833 178.804C188.865 178.638 188.902 178.474 188.945 178.314C189.049 177.849 189.224 177.431 189.454 177.096C189.683 176.761 189.961 176.519 190.263 176.391C191.092 176.053 192.346 176.391 194.238 178.161C194.546 178.442 194.84 178.761 195.117 179.114C195.258 179.289 195.41 179.474 195.527 179.673C197.695 182.858 198.849 188.114 199.464 192.913C199.488 193.084 199.508 193.255 199.529 193.426C199.602 194.018 199.663 194.596 199.719 195.164C199.819 196.163 199.898 197.124 199.956 198.017C199.956 198.257 199.989 198.479 200.003 198.724C200.018 198.969 200.032 199.186 200.041 199.408C200.079 200.129 200.106 200.795 200.123 201.359C200.173 202.857 200.164 203.777 200.164 203.777V203.823C200.164 203.823 200.164 203.892 200.15 204.022C200.148 204.034 200.148 204.047 200.15 204.059C200.15 204.114 200.15 204.184 200.15 204.262C200.15 204.341 200.15 204.396 200.15 204.475C200.138 204.669 200.123 204.896 200.106 205.154C200.079 205.552 200.05 206.019 200.015 206.541C199.991 206.93 199.962 207.35 199.933 207.794C199.868 208.719 199.798 209.791 199.722 210.919C199.704 211.132 199.69 211.344 199.675 211.557C199.608 212.523 199.537 213.531 199.464 214.548C199.385 215.704 199.297 216.86 199.212 218.001C199.192 218.251 199.171 218.501 199.154 218.746C198.937 221.519 198.72 224.039 198.544 225.606C198.517 225.838 198.497 226.073 198.486 226.309C198.483 226.389 198.483 226.469 198.486 226.549C198.477 226.758 198.477 226.968 198.486 227.178C198.629 231.126 201.333 231.801 201.333 231.801L213.61 231.417L215.432 231.362L216.493 231.329L226.063 231.029L226.942 231.001L231.702 230.853C232.025 230.841 232.348 230.902 232.66 231.033C234.13 231.656 235.532 232.624 236.82 233.904C237.222 234.312 237.584 234.81 237.895 235.383C237.91 235.406 237.924 235.431 237.936 235.457C238.585 236.686 238.986 238.193 239.087 239.784C239.087 239.891 239.087 239.997 239.087 240.103C239.11 240.325 239.11 240.575 239.107 240.838Z" fill="#3A3768"/>
<path opacity="0.1" d="M239.107 240.838C239.107 240.968 239.107 241.102 239.093 241.231C239.078 241.361 239.093 241.462 239.069 241.578C239 242.393 238.851 243.187 238.63 243.931C231.263 242.623 223.878 241.051 216.484 239.438L215.438 239.207L213.56 238.795L211.979 238.448C210.247 238.38 208.521 238.125 206.811 237.686C205.734 237.434 204.668 237.079 203.618 236.622C198.931 235.61 194.218 234.634 189.519 233.747L188.907 233.631C189.018 232.818 189.118 232.323 189.118 232.323C189.118 232.323 189.941 227.238 190.723 221.076C190.779 220.65 190.831 220.225 190.884 219.795L190.963 219.143C191.145 217.632 191.321 216.078 191.476 214.553C191.599 213.328 191.71 212.116 191.804 210.951C191.857 210.309 191.901 209.68 191.939 209.065C191.959 208.76 191.977 208.455 191.991 208.141C192.006 207.826 192.024 207.484 192.038 207.165C192.053 206.846 192.059 206.564 192.068 206.273V205.839C192.068 205.214 192.068 204.563 192.053 203.892C191.909 200.554 191.579 197.242 191.066 193.995C190.984 193.434 190.899 192.884 190.811 192.344C190.782 192.169 190.755 191.998 190.726 191.827C189.777 186.025 188.675 181.273 188.675 181.273C188.676 181.262 188.676 181.251 188.675 181.24C188.677 181.222 188.677 181.203 188.675 181.185C188.677 181.146 188.677 181.108 188.675 181.069C188.675 180.921 188.675 180.695 188.675 180.422C188.675 180.366 188.675 180.306 188.675 180.246C188.694 179.762 188.744 179.282 188.825 178.813C188.857 178.651 188.892 178.485 188.933 178.323C189.039 177.833 189.221 177.392 189.464 177.044C189.707 176.695 190.002 176.45 190.322 176.331C191.151 176.026 192.39 176.405 194.241 178.115C194.562 178.413 194.868 178.75 195.155 179.123C195.293 179.303 195.425 179.483 195.553 179.678C197.704 182.881 198.849 188.128 199.458 192.913C199.482 193.084 199.502 193.26 199.523 193.431C199.596 194.018 199.658 194.6 199.713 195.164C199.813 196.163 199.889 197.12 199.948 198.007C199.962 198.252 199.98 198.493 199.991 198.724C200.003 198.955 200.021 199.186 200.03 199.408C200.068 200.129 200.094 200.795 200.112 201.359C200.161 202.857 200.153 203.777 200.153 203.777V203.934C200.153 203.962 200.153 203.989 200.153 204.022C200.151 204.034 200.151 204.047 200.153 204.059C200.153 204.114 200.153 204.184 200.153 204.262C200.153 204.341 200.153 204.396 200.153 204.475C200.141 204.669 200.126 204.895 200.109 205.154C200.082 205.552 200.053 206.019 200.018 206.541C199.989 206.925 199.962 207.346 199.933 207.794C199.868 208.719 199.798 209.791 199.722 210.919C199.704 211.132 199.69 211.344 199.675 211.557C199.608 212.523 199.534 213.54 199.464 214.557C199.379 215.713 199.294 216.869 199.206 218.006C199.186 218.256 199.168 218.505 199.148 218.75C198.934 221.524 198.72 224.006 198.544 225.564C198.515 225.814 198.496 226.065 198.486 226.318C198.483 226.398 198.483 226.478 198.486 226.558C198.477 226.768 198.477 226.978 198.486 227.187C198.653 231.089 201.333 231.741 201.333 231.741L213.61 231.361L215.429 231.301L216.493 231.269L226.081 230.973L226.977 230.945L231.72 230.798C232.043 230.781 232.366 230.842 232.677 230.978C234.158 231.583 235.572 232.542 236.869 233.821C237.279 234.234 237.646 234.742 237.959 235.328C237.974 235.35 237.988 235.375 238 235.402C238.649 236.635 239.045 238.151 239.137 239.747C239.137 239.854 239.137 239.96 239.137 240.066C239.11 240.325 239.11 240.575 239.107 240.838Z" fill="black"/>
<path d="M239.128 244.001L238.645 243.913C231.278 242.604 223.893 241.033 216.499 239.419L215.453 239.188L213.575 238.777L211.993 238.43C210.262 238.361 208.535 238.106 206.826 237.667C205.749 237.416 204.683 237.061 203.633 236.604C198.946 235.592 194.233 234.616 189.534 233.728C189.61 233.08 189.708 232.438 189.827 231.805C189.827 231.805 192.61 214.511 192.783 205.316C192.844 202.029 192.431 197.961 191.872 194.083C191.789 193.523 191.707 192.969 191.62 192.423L191.54 191.905C190.547 185.826 189.367 180.741 189.367 180.741C189.339 180.112 189.362 179.48 189.434 178.859C189.452 178.693 189.476 178.528 189.505 178.365C189.617 177.59 189.881 176.891 190.26 176.368C190.278 176.344 190.296 176.322 190.316 176.303C191.086 175.378 192.469 175.314 194.93 177.588C195.428 178.052 195.89 178.61 196.304 179.248C196.421 179.423 196.538 179.608 196.649 179.798C198.627 183.177 199.675 188.355 200.226 192.987L200.288 193.5C200.352 194.078 200.408 194.647 200.46 195.197C200.46 195.197 200.46 195.229 200.46 195.243C200.528 195.973 200.583 196.671 200.63 197.337C200.767 199.298 200.838 201.268 200.841 203.241C200.841 203.241 200.727 205.067 200.548 207.697C200.481 208.728 200.402 209.884 200.317 211.104C200.317 211.164 200.317 211.224 200.317 211.289L200.273 211.936C200.124 214.067 199.96 216.342 199.793 218.45C199.775 218.709 199.754 218.963 199.734 219.213C199.546 221.584 199.359 223.692 199.204 225.065C198.594 230.419 201.987 231.241 201.987 231.241L213.569 230.881L215.386 230.825L216.449 230.788H216.894H217.038L226.224 230.502H227.103L232.376 230.335C232.699 230.322 233.022 230.385 233.334 230.52C234.815 231.126 236.23 232.083 237.529 233.359C237.893 233.73 238.225 234.174 238.516 234.681C238.534 234.709 238.551 234.74 238.566 234.773C239.254 236.029 239.678 237.592 239.779 239.245C239.88 240.899 239.653 242.56 239.128 244.001Z" fill="#3A3768"/>
<path d="M280.538 160.437L284.121 172.549H283.52L279.319 160.58L280.538 160.437Z" fill="#4C4C56"/>
<path opacity="0.1" d="M280.538 160.437L284.121 172.549H283.52L279.319 160.58L280.538 160.437Z" fill="black"/>
<path d="M280.538 172.549H284.12V173.816L280.538 173.959V172.549Z" fill="#4C4C56"/>
<path opacity="0.1" d="M280.538 172.549H284.12V173.816L280.538 173.959V172.549Z" fill="black"/>
<path d="M252.67 115.868V158.163C252.67 158.995 252.88 159.794 253.253 160.382C253.626 160.971 254.132 161.302 254.659 161.302H299.333C299.595 161.302 299.856 161.219 300.098 161.058C300.34 160.898 300.56 160.663 300.744 160.367C300.928 160.07 301.073 159.719 301.17 159.334C301.267 158.948 301.315 158.536 301.31 158.121L300.803 115.789C300.793 114.972 300.58 114.194 300.211 113.622C299.841 113.049 299.344 112.729 298.826 112.729H254.659C254.398 112.729 254.14 112.81 253.898 112.968C253.657 113.126 253.438 113.357 253.253 113.648C253.068 113.94 252.922 114.286 252.822 114.667C252.722 115.048 252.67 115.456 252.67 115.868Z" fill="#4C4C56"/>
<path opacity="0.1" d="M252.67 115.868V158.163C252.67 158.995 252.88 159.794 253.253 160.382C253.626 160.971 254.132 161.302 254.659 161.302H299.333C299.595 161.302 299.856 161.219 300.098 161.058C300.34 160.898 300.56 160.663 300.744 160.367C300.928 160.07 301.073 159.719 301.17 159.334C301.267 158.948 301.315 158.536 301.31 158.121L300.803 115.789C300.793 114.972 300.58 114.194 300.211 113.622C299.841 113.049 299.344 112.729 298.826 112.729H254.659C254.398 112.729 254.14 112.81 253.898 112.968C253.657 113.126 253.438 113.357 253.253 113.648C253.068 113.94 252.922 114.286 252.822 114.667C252.722 115.048 252.67 115.456 252.67 115.868Z" fill="black"/>
<path d="M251.059 115.868V158.163C251.059 158.995 251.269 159.794 251.642 160.382C252.015 160.971 252.521 161.302 253.048 161.302H297.721C297.984 161.302 298.244 161.219 298.486 161.058C298.729 160.898 298.948 160.663 299.132 160.366C299.316 160.07 299.46 159.719 299.557 159.333C299.654 158.948 299.701 158.536 299.696 158.121L299.189 115.789C299.179 114.973 298.966 114.195 298.597 113.623C298.228 113.051 297.732 112.73 297.214 112.729H253.06C252.798 112.727 252.538 112.806 252.295 112.963C252.052 113.119 251.832 113.35 251.646 113.642C251.46 113.934 251.312 114.28 251.212 114.662C251.111 115.045 251.059 115.454 251.059 115.868Z" fill="#4C4C56"/>
<path d="M252.817 118.512V155.75C252.817 156.582 253.026 157.38 253.399 157.969C253.772 158.558 254.278 158.888 254.806 158.888H296.172C296.696 158.888 297.199 158.56 297.57 157.975C297.941 157.389 298.149 156.596 298.149 155.768V118.489C298.148 117.662 297.94 116.87 297.569 116.286C297.198 115.701 296.696 115.373 296.172 115.373H254.806C254.278 115.373 253.772 115.704 253.399 116.293C253.026 116.881 252.817 117.68 252.817 118.512Z" fill="#492F86"/>
<path d="M270.715 160.608L274.644 172.549H283.52L279.082 158.889L270.715 160.608Z" fill="#4C4C56"/>
<path d="M267.587 172.549L266.931 173.816H280.538V172.549H267.587Z" fill="#4C4C56"/>
<path d="M209.291 122.656C209.531 124.703 209.772 126.753 210.212 128.706C210.214 128.716 210.216 128.726 210.218 128.736C210.218 128.736 210.218 128.736 210.218 128.736C210.219 128.74 210.22 128.743 210.221 128.747C210.225 128.766 210.23 128.787 210.236 128.817C210.18 128.785 210.129 128.737 210.086 128.673C210 128.528 209.936 128.352 209.902 128.16C209.454 126.192 209.21 124.132 208.967 122.077C208.67 119.57 208.374 117.071 207.71 114.754C207.518 114.155 207.351 113.537 207.209 112.905C207.183 112.771 207.16 112.635 207.142 112.498L207.209 112.433L207.283 112.387L207.356 112.355L207.429 112.327C207.445 112.736 207.49 113.141 207.564 113.533C207.705 114.165 207.87 114.783 208.059 115.383C208.708 117.683 209 120.167 209.291 122.656Z" fill="url(#paint1_linear)"/>
<path d="M220.008 131.137C219.547 131.957 219.167 132.883 218.883 133.883C218.839 134.036 218.795 134.184 218.754 134.346C217.459 138.969 217.02 145.51 217.02 145.51C217.02 145.51 216.217 144.941 215.081 144.054C212.963 142.399 209.694 139.643 208.373 137.448C207.787 136.454 207.576 135.575 208.062 134.96C208.167 134.826 208.276 134.674 208.384 134.498C208.759 133.907 209.101 133.267 209.407 132.584C209.828 131.66 210.244 130.629 210.637 129.57C210.868 128.951 211.088 128.327 211.293 127.721L211.375 127.481C212.254 124.85 212.895 122.604 212.895 122.604C212.895 122.604 213.188 122.751 213.663 123.015C215.851 124.249 221.877 127.998 220.008 131.137Z" fill="#EFB7B9"/>
<path d="M260.105 238.245C260.105 238.245 260.463 242.433 260.917 246.853L259.877 246.77C257.096 246.542 254.312 246.25 251.525 245.896C249.943 240.113 248.303 233.248 248.303 233.141C248.303 233.035 248.253 230.774 248.197 228.25C248.18 227.363 248.159 226.447 248.142 225.588C248.112 224.284 248.086 223.11 248.071 222.379C248.071 221.88 248.054 221.584 248.054 221.584C248.054 221.584 246.548 222 245.195 222.291L244.594 222.416C244.284 222.476 244.008 222.523 243.759 222.55C243.545 222.602 243.326 222.602 243.112 222.55C242.649 222.268 243.61 215.154 243.61 215.154L246 206.023L246.668 203.481L246.961 203.365C247.105 203.31 247.298 203.245 247.529 203.176C249.811 202.515 255.907 201.673 256.941 211.169C258.222 222.897 258.406 225.532 258.406 225.532L260.105 238.245Z" fill="#EFB7B9"/>
<path opacity="0.05" d="M260.105 238.245C260.105 238.245 260.463 242.433 260.917 246.853L259.877 246.77C257.096 246.542 254.312 246.25 251.525 245.896C249.943 240.113 248.303 233.248 248.303 233.141C248.303 233.035 248.253 230.774 248.197 228.25C248.18 227.363 248.159 226.447 248.142 225.588C248.112 224.284 248.086 223.11 248.071 222.379C248.071 221.88 248.054 221.584 248.054 221.584C248.054 221.584 246.548 222 245.195 222.291L244.594 222.416C244.284 222.476 244.008 222.523 243.759 222.55C243.545 222.602 243.326 222.602 243.112 222.55C242.649 222.268 243.61 215.154 243.61 215.154L246 206.023L246.668 203.481L246.961 203.365C247.105 203.31 247.298 203.245 247.529 203.176C249.811 202.515 255.907 201.673 256.941 211.169C258.222 222.897 258.406 225.532 258.406 225.532L260.105 238.245Z" fill="black"/>
<path d="M259.877 246.769C257.096 246.541 254.312 246.25 251.525 245.896L250.471 245.762L250.005 245.702C248.693 240.704 247.527 235.818 247.527 235.73C247.527 235.642 247.477 233.363 247.421 230.839C247.354 227.686 247.278 224.173 247.278 224.173L247.082 224.224L247 224.247H246.964H246.894L246.422 224.372L246.165 224.436C245.699 224.557 245.136 224.691 244.586 224.815L244.463 224.843L244.14 224.908L243.848 224.963C243.622 225.01 243.408 225.047 243.215 225.074L242.978 225.107C242.763 225.161 242.545 225.161 242.33 225.107C241.867 224.825 242.828 217.71 242.828 217.71L245.886 206.037L245.992 205.991C246.153 205.926 246.493 205.801 246.953 205.677C247.126 205.63 247.316 205.584 247.521 205.543C250.175 205.006 255.225 205.159 256.16 213.725C257.44 225.453 257.624 228.088 257.624 228.088L259.332 240.838C259.332 240.838 259.555 243.473 259.877 246.769Z" fill="#EFB7B9"/>
<path opacity="0.1" d="M247.421 230.839C247.354 227.686 247.278 224.168 247.278 224.168C247.278 224.168 244.348 224.977 242.983 225.135L243.259 223.664C243.259 223.664 248.274 221.478 248.379 222.712C248.455 223.577 247.811 228.172 247.421 230.839Z" fill="black"/>
<path opacity="0.1" d="M247.527 203.153V206.495C247.527 206.495 247.278 212.505 245.321 221.7C245.28 221.898 245.236 222.093 245.189 222.287C244.984 223.171 244.741 224.033 244.463 224.866C243.912 224.986 243.379 225.088 242.983 225.134C242.769 225.186 242.55 225.186 242.336 225.134C241.873 224.852 242.831 217.738 242.831 217.738L245.889 206.07L245.998 206.023L246.663 203.476C246.663 203.476 246.991 203.31 247.527 203.153Z" fill="black"/>
<path d="M246.958 202.626V206.495C246.958 206.495 246.709 212.505 244.753 221.704C244.703 221.945 244.647 222.167 244.592 222.412C244.536 222.657 244.463 222.948 244.389 223.207C244.228 223.822 244.047 224.418 243.856 224.991C242.324 229.572 239.99 232.85 238.507 234.653C238.29 234.917 238.088 235.148 237.921 235.342H237.907C237.614 235.656 237.403 235.883 237.268 236.017C237.133 236.151 237.122 236.16 237.122 236.16C235.733 234.815 231.787 234.588 231.787 234.588L222.577 237.228C220.564 237.775 218.533 238.139 216.493 238.319L215.447 238.398C214.844 238.435 214.217 238.458 213.575 238.462C213.057 238.462 212.53 238.462 211.993 238.43C210.262 238.361 208.536 238.106 206.826 237.667C205.886 237.424 204.955 237.098 204.037 236.692C203.383 236.406 202.739 236.066 202.107 235.675C195.662 231.681 197.341 222.208 198.428 218.108C198.486 217.89 198.542 217.692 198.594 217.507C198.835 216.67 199.013 216.18 199.013 216.18L199.441 214.548L200.141 211.871L200.296 211.284L200.34 211.113L200.859 209.13L208.182 207.632L213.564 206.532L215.201 206.199L216.311 205.973L218.429 205.538L219.226 205.376C219.718 205.256 220.214 205.194 220.711 205.191C220.98 205.172 221.249 205.234 221.502 205.376C222.088 205.797 226.552 204.646 226.552 204.646C226.552 204.646 230.035 202.963 233.094 203.523C234.606 203.687 236.124 203.703 237.637 203.569L238.012 203.541L238.498 203.509H238.604C242.564 203.217 246.958 202.626 246.958 202.626Z" fill="#444053"/>
<path opacity="0.1" d="M220.608 214.238C220.608 214.238 217.093 226.863 216.947 227.085C216.8 227.307 216.806 231.246 216.947 231.015C217.087 230.784 221.962 213.734 221.962 213.734L220.608 214.238Z" fill="black"/>
<path opacity="0.1" d="M237.64 203.559C237.64 203.559 235.862 205.372 235.329 206.832C234.796 208.293 229.924 222.823 228.717 224.954C227.715 226.861 226.811 228.89 226.013 231.024C225.873 231.408 225.873 233.821 226.725 231.519C227.578 229.216 227.367 228.828 229.036 225.971C230.706 223.114 232.552 216.656 233.266 215.366C233.981 214.076 234.974 210.202 236.219 207.9L238.604 203.504L237.64 203.559Z" fill="black"/>
<path opacity="0.1" d="M238.067 228.491C238.067 228.491 236.822 227.145 235.651 229.443C234.479 231.741 238.067 228.491 238.067 228.491Z" fill="black"/>
<path opacity="0.1" d="M239.597 229.184C239.597 229.184 238.565 232.023 238.068 232.249C237.57 232.476 239.597 229.184 239.597 229.184Z" fill="black"/>
<path opacity="0.1" d="M238.068 229.891C238.068 229.891 237.25 232.138 236.539 231.912L238.068 229.891Z" fill="black"/>
<path d="M232.311 169.235C232.311 169.235 239.849 168.731 240.596 168.338C241.343 167.945 247.954 166.6 247.954 166.6C247.954 166.6 267.546 168.786 261.965 171.426C256.385 174.066 248.81 172.938 248.81 172.938C248.81 172.938 241.413 175.97 240.276 177.56C239.14 179.151 230.747 179.188 230.747 179.188L232.311 169.235Z" fill="#EFB7B9"/>
<path opacity="0.05" d="M232.311 169.235C232.311 169.235 239.849 168.731 240.596 168.338C241.343 167.945 247.954 166.6 247.954 166.6C247.954 166.6 267.546 168.786 261.965 171.426C256.385 174.066 248.81 172.938 248.81 172.938C248.81 172.938 241.413 175.97 240.276 177.56C239.14 179.151 230.747 179.188 230.747 179.188L232.311 169.235Z" fill="black"/>
<path d="M205.499 142.135C205.499 142.135 198.6 145.834 201.942 155.264C205.285 164.695 209.588 169.133 209.588 169.133L220.682 181.254C220.682 181.254 225.339 185.461 227.472 183.723L230.955 183.26L231.541 168.837C231.541 168.837 228.612 172.429 225.424 167.45C222.237 162.471 218.312 159.087 217.993 156.397C217.673 153.706 209.515 139.833 205.499 142.135Z" fill="#A36468"/>
<path d="M227.293 172.66C227.293 172.66 230.884 174.68 230.744 174.791C230.603 174.902 227.293 176.867 227.293 176.867L227.542 184.555L232.414 184.134C232.414 184.134 234.192 170.136 232.663 168.731L227.293 168.338V172.66Z" fill="#67647E"/>
<path opacity="0.1" d="M227.293 172.66C227.293 172.66 230.884 174.68 230.744 174.791C230.603 174.902 227.293 176.867 227.293 176.867L227.542 184.555L232.414 184.134C232.414 184.134 234.192 170.136 232.663 168.731L227.293 168.338V172.66Z" fill="black"/>
<path opacity="0.1" d="M220.008 131.137C219.547 131.957 219.167 132.883 218.883 133.883C218.839 134.036 218.795 134.184 218.754 134.346C216.138 134.346 214.258 131.137 212.652 128.267C212.359 127.735 211.618 128.539 211.375 127.943C211.349 127.874 211.322 127.804 211.293 127.735L211.375 127.495C212.254 124.864 212.895 122.617 212.895 122.617C212.895 122.617 213.188 122.765 213.663 123.029C215.851 124.249 221.877 127.998 220.008 131.137Z" fill="black"/>
<path d="M227.625 119.973C227.624 123.64 226.706 127.159 225.07 129.764C223.434 132.369 221.213 133.849 218.889 133.883H218.804C217.553 133.885 216.315 133.465 215.175 132.652C214.034 131.838 213.016 130.651 212.19 129.168C211.894 128.638 211.624 128.074 211.381 127.481C210.641 125.66 210.18 123.592 210.034 121.441C209.888 119.291 210.062 117.116 210.542 115.089C211.022 113.063 211.794 111.241 212.798 109.768C213.802 108.295 215.01 107.212 216.325 106.604C217.641 105.996 219.028 105.88 220.377 106.266C221.725 106.651 222.999 107.528 224.095 108.825C225.192 110.123 226.082 111.806 226.695 113.741C227.307 115.676 227.626 117.81 227.625 119.973Z" fill="#EFB7B9"/>
<path opacity="0.1" d="M218.655 206.269C218.655 206.269 217.984 207.563 217.243 208.77C216.683 209.694 216.086 210.54 215.702 210.757C214.823 211.266 210.795 216.088 210.795 216.088C210.795 216.088 207.596 219.513 206.779 220.521C205.962 221.529 203.009 220.914 203.009 220.914C203.009 220.914 200.167 219.934 198.407 218.14C198.578 217.481 198.773 216.839 198.993 216.217L200.841 209.144L208.165 207.651L218.655 206.269Z" fill="black"/>
<path d="M218.511 205.372C218.511 205.372 217.843 206.666 217.102 207.873C216.543 208.797 215.93 209.643 215.561 209.86C214.682 210.364 210.654 215.191 210.654 215.191C210.654 215.191 207.453 218.616 206.635 219.624C205.818 220.632 202.868 220.017 202.868 220.017C202.868 220.017 198.814 218.63 197.39 216.087C196.394 214.317 197.425 211.035 198.128 209.227C198.421 208.455 198.67 207.951 198.67 207.951L218.511 205.372Z" fill="#67647E"/>
<path d="M223.775 161.884C221.355 161.547 213.39 146.166 213.39 146.166L213.572 145.773L215.241 142.126H219.146L219.577 145.491C222.547 152.065 224.296 156.637 224.771 159.254C225.113 161.158 224.788 162.028 223.775 161.884Z" fill="#67647E"/>
<path opacity="0.1" d="M223.775 161.884C221.355 161.547 213.39 146.166 213.39 146.166L213.572 145.773C214.999 147.841 216.341 150.053 217.588 152.393C223.417 163.22 224.572 160.197 224.771 159.254C225.113 161.158 224.788 162.027 223.775 161.884Z" fill="black"/>
<path opacity="0.1" d="M218.511 205.372C218.511 205.372 217.843 206.666 217.102 207.873C216.711 208.111 216.299 208.252 215.88 208.289C214.955 208.233 212.822 210.535 212.822 210.535C212.822 210.535 209.055 210.198 208.343 210.813C207.631 211.428 204.892 211.543 204.892 211.543C199.88 213.799 198.495 210.374 198.128 209.232C198.421 208.46 198.67 207.956 198.67 207.956L218.511 205.372Z" fill="black"/>
<path d="M227.217 171.957C227.217 172.175 227.191 172.392 227.173 172.6C227.156 172.808 227.138 173.021 227.118 173.219C227.023 174.361 226.806 175.47 226.476 176.497C225.838 178.18 223.881 184.744 223.881 184.744L223.749 185.955L223.681 186.589L223.611 187.213L223.134 191.637L222.92 196.745C222.92 196.745 221.748 199.325 221.25 200.444C220.752 201.562 220.822 203.194 221.001 204.373C221.18 205.552 219.367 205.718 219.367 205.718C219.367 205.718 216.806 207.683 215.881 207.628C214.955 207.572 212.822 209.865 212.822 209.865C212.822 209.865 209.055 209.528 208.343 210.147C207.631 210.766 204.892 210.877 204.892 210.877C199.526 213.286 198.316 209.19 198.067 208.349C197.818 207.507 199.133 204.086 199.133 204.086C199.133 204.086 199.426 199.764 199.986 199.427C200.545 199.089 201.231 193.371 201.231 193.371C201.231 193.371 201.017 191.628 201.48 190.675C201.943 189.723 201.907 187.028 202.511 185.738C203.114 184.448 201.872 180.126 202.086 179.003C202.3 177.879 201.409 173.335 201.48 172.156C201.55 170.977 201.304 170.025 200.733 167.667C200.246 165.656 200.384 156.72 200.44 154.159C200.44 153.725 200.454 153.475 200.454 153.475C200.454 153.475 200.952 150.946 202.268 145.898C203.264 142.075 205.505 140.628 206.533 140.157C206.709 140.073 206.888 140.003 207.069 139.948C207.327 140.007 207.58 140.108 207.825 140.249C208.862 140.799 210.936 142.357 213.894 146.721C215.204 148.657 216.439 150.713 217.594 152.879C224.264 165.25 224.809 159.476 224.809 159.476C224.809 159.476 225.102 160.53 226.476 164.736C227.211 166.974 227.346 169.646 227.217 171.957Z" fill="#8D7EE7"/>
<path opacity="0.1" d="M216.235 141.446L209.544 133.023C209.544 133.023 207.133 133.486 206.137 139.875L213.024 149.393L216.235 141.446Z" fill="black"/>
<path d="M216.235 141.446L215.063 144.031L213.874 146.679L212.977 148.755L207.479 141.446L206.533 140.152L206.002 139.44C206.539 135.987 207.491 134.262 208.249 133.43C208.594 133.015 208.995 132.731 209.421 132.603L216.235 141.446Z" fill="#67647E"/>
<path d="M262.247 174.791C256.663 177.426 249.091 176.308 249.091 176.308C249.091 176.308 241.694 179.336 240.558 180.931C239.825 181.943 236.084 182.317 233.527 182.47C232.106 182.553 231.043 182.558 231.043 182.558L232.604 172.605L233.507 172.54C235.531 172.392 240.303 172.013 240.889 171.703C241.636 171.31 248.247 169.965 248.247 169.965C248.247 169.965 267.827 172.152 262.247 174.791Z" fill="#EFB7B9"/>
<path opacity="0.1" d="M227.118 173.196C227.023 174.338 226.806 175.447 226.476 176.474C225.837 178.157 223.881 184.721 223.881 184.721L223.611 187.213C222.703 186.68 221.822 186.041 220.975 185.299L209.872 173.164C209.872 173.164 205.569 168.731 202.227 159.295C198.884 149.86 205.783 146.166 205.783 146.166C209.799 143.855 217.943 157.724 218.262 160.419C218.581 163.114 222.495 166.479 225.694 171.472C226.116 172.148 226.595 172.728 227.118 173.196Z" fill="black"/>
<path opacity="0.1" d="M227.217 171.957C227.191 172.397 227.159 172.817 227.118 173.219C227.023 174.361 226.806 175.47 226.476 176.497C225.837 178.18 223.881 184.744 223.881 184.744L223.749 185.956C222.789 185.409 221.858 184.741 220.966 183.958L209.872 171.819C209.872 171.819 205.569 167.385 202.227 157.95C198.884 148.515 205.783 144.817 205.783 144.817C209.799 142.505 217.943 156.374 218.262 159.069C218.581 161.764 222.495 165.129 225.694 170.127C226.141 170.854 226.654 171.471 227.217 171.957Z" fill="black"/>
<path d="M231.81 172.212L231.242 186.631L227.756 187.093C227.68 187.156 227.6 187.21 227.519 187.255C225.298 188.54 220.966 184.624 220.966 184.624L209.872 172.489C209.872 172.489 205.569 168.056 202.227 158.621C198.884 149.185 205.783 145.492 205.783 145.492C209.799 143.18 217.943 157.049 218.262 159.744C218.581 162.439 222.495 165.805 225.694 170.797C226.163 171.541 226.702 172.165 227.293 172.646C228 173.232 228.794 173.501 229.59 173.424C230.387 173.348 231.154 172.928 231.81 172.212Z" fill="#A6B6F5"/>
<path opacity="0.1" d="M231.81 172.212L231.242 186.63L227.756 187.093C227.679 187.156 227.6 187.21 227.519 187.255L227.293 180.246C227.293 180.246 230.6 178.282 230.744 178.171C230.887 178.06 227.293 176.039 227.293 176.039V172.688C228.002 173.267 228.797 173.529 229.594 173.445C230.39 173.361 231.157 172.935 231.81 172.212Z" fill="black"/>
<path opacity="0.1" d="M233.512 182.447C232.092 182.53 231.028 182.535 231.028 182.535L232.604 172.605L233.507 172.54C234.087 174.116 233.838 178.749 233.512 182.447Z" fill="black"/>
<path d="M227.578 176.026C227.578 176.026 231.169 178.046 231.028 178.157C230.888 178.268 227.578 180.232 227.578 180.232L227.827 187.92L232.698 187.5C232.698 187.5 234.476 173.501 232.947 172.096L227.578 171.703V176.026Z" fill="#67647E"/>
<path opacity="0.1" d="M206.281 185.23C206.281 185.23 205.071 187.023 204.075 187.5L206.281 185.23Z" fill="black"/>
<path opacity="0.1" d="M203.401 190.56C203.401 190.56 206.351 190.389 206.706 189.436C207.06 188.484 203.401 190.56 203.401 190.56Z" fill="black"/>
<path opacity="0.1" d="M201.942 197.235C202.121 197.235 205.674 196.449 205.818 195.719L201.942 197.235Z" fill="black"/>
<path opacity="0.1" d="M200.841 201.502C202.121 201.442 204.289 199.256 204.289 199.256L200.841 201.502Z" fill="black"/>
<path opacity="0.1" d="M209.125 202.621C209.125 202.621 216.841 202.621 217.195 200.379C217.55 198.137 209.125 202.621 209.125 202.621Z" fill="black"/>
<path opacity="0.1" d="M214.919 171.255C215.063 171.255 221.001 171.255 221.569 169.965C222.137 168.675 214.919 171.255 214.919 171.255Z" fill="black"/>
<path opacity="0.1" d="M208.381 134.512C208.43 134.971 208.455 135.434 208.458 135.899C208.458 136.415 208.428 136.931 208.37 137.438C208.252 138.403 208.068 139.344 207.819 140.245L207.758 140.471C207.67 140.795 207.576 141.109 207.479 141.423C207.044 142.824 206.53 144.161 205.944 145.418C204.607 148.22 203.061 150.757 201.339 152.976C201.04 153.374 200.739 153.766 200.434 154.155C200.434 153.72 200.449 153.471 200.449 153.471C200.449 153.471 200.947 150.942 202.262 145.894C203.258 142.071 205.499 140.624 206.527 140.152L205.997 139.44C206.533 135.987 207.485 134.263 208.244 133.43C208.291 133.773 208.346 134.133 208.381 134.512Z" fill="black"/>
<path opacity="0.1" d="M226.335 112.748C226.245 112.783 226.159 112.837 226.078 112.909C225.521 113.395 225.36 114.546 224.906 115.272C224.382 116.127 223.561 116.256 222.814 116.404C222.067 116.552 221.233 116.843 220.837 117.856C220.544 118.609 220.57 119.557 220.465 120.426C220.454 120.582 220.414 120.73 220.351 120.852C220.25 120.98 220.123 121.046 219.993 121.036C218.529 121.198 217.462 120.403 216.091 119.844C215.447 119.585 214.697 119.617 214.205 120.306C213.76 120.939 213.637 121.975 213.648 122.923V123.006C213.711 123.927 213.729 124.854 213.701 125.78C213.634 126.495 213.46 127.176 213.193 127.765C212.927 128.354 212.576 128.835 212.169 129.168C211.827 129.458 211.449 129.628 211.062 129.667C210.912 129.692 210.761 129.657 210.622 129.566C210.883 128.863 211.132 128.179 211.36 127.481C210.725 125.93 210.291 124.195 210.085 122.377C209.878 120.559 209.903 118.695 210.158 116.892C210.412 115.09 210.892 113.385 211.568 111.878C212.244 110.37 213.104 109.09 214.097 108.113C215.089 107.135 216.196 106.478 217.351 106.182C218.506 105.886 219.687 105.955 220.825 106.386C221.963 106.817 223.035 107.601 223.979 108.692C224.923 109.784 225.72 111.161 226.324 112.743L226.335 112.748Z" fill="black"/>
<path d="M228.749 110.972C228.642 111.351 228.473 111.678 228.26 111.92C227.592 112.604 226.634 111.851 225.937 112.461C225.377 112.946 225.219 114.098 224.765 114.823C224.244 115.679 223.424 115.808 222.674 115.956C221.924 116.104 221.095 116.395 220.696 117.407C220.403 118.161 220.433 119.104 220.324 119.978C220.314 120.135 220.274 120.283 220.21 120.403C220.109 120.531 219.982 120.597 219.853 120.588C218.388 120.75 217.322 119.95 215.951 119.395C215.309 119.136 214.559 119.169 214.067 119.858C213.575 120.546 213.499 121.531 213.508 122.479C213.568 123.425 213.587 124.376 213.563 125.327C213.462 126.346 213.147 127.283 212.669 127.987C212.192 128.692 211.578 129.124 210.927 129.214C210.832 129.237 210.735 129.229 210.642 129.192C210.549 129.155 210.461 129.088 210.385 128.997C210.3 128.853 210.239 128.678 210.206 128.489C209.231 124.162 209.239 119.358 208.056 115.161C207.865 114.562 207.7 113.945 207.561 113.312C207.538 113.182 207.514 113.048 207.496 112.914C207.462 112.647 207.438 112.377 207.426 112.105C207.305 112.132 207.19 112.207 207.092 112.322C207.057 112.369 207.026 112.422 206.998 112.48C206.831 112.922 206.746 113.43 206.752 113.945C206.534 119.724 206.889 125.522 207.807 131.128C208.087 132.528 208.257 133.976 208.314 135.441C208.281 137.025 208.042 138.582 207.611 140.013C205.774 146.698 202.083 151.594 198.412 156.018C198.79 155.38 199.081 154.628 199.268 153.807C199.455 152.986 199.535 152.113 199.502 151.242C199.439 151.575 199.319 151.873 199.155 152.105C198.991 152.337 198.79 152.493 198.574 152.555C198.14 152.672 197.696 152.661 197.264 152.523C197.827 152.232 198.046 151.187 198.187 150.281C198.474 148.432 198.741 146.566 198.987 144.683C199.249 142.885 199.421 141.058 199.502 139.218C199.546 137.656 199.47 136.089 199.429 134.521C199.342 130.224 199.44 125.923 199.722 121.647C199.939 117.948 200.331 113.95 202.051 111.425C202.793 110.436 203.622 109.62 204.511 109.003C204.511 108.541 206.659 107.616 206.943 107.552C207.061 107.515 207.18 107.494 207.3 107.487C207.454 107.452 207.61 107.494 207.748 107.608C207.885 107.721 207.996 107.901 208.065 108.12C208.17 107.82 208.287 107.524 208.41 107.242C208.58 106.854 208.766 106.485 208.967 106.137C210.083 104.195 211.53 102.827 212.822 101.181C213.296 100.51 213.81 99.9123 214.357 99.3967C215.072 98.8293 215.857 98.5139 216.657 98.4722C217.979 98.3543 219.302 98.6821 220.538 99.4337C222.319 100.515 223.875 102.457 225.717 103.243C226.172 103.398 226.621 103.594 227.062 103.83C227.484 104.094 227.867 104.495 228.186 105.006C228.505 105.518 228.752 106.129 228.912 106.8C229.072 107.472 229.141 108.189 229.115 108.905C229.089 109.621 228.969 110.32 228.761 110.959L228.749 110.972Z" fill="#444053"/>
<g opacity="0.1">
<path opacity="0.1" d="M199.083 152.379C199.297 151.512 199.388 150.581 199.35 149.652C199.286 149.984 199.165 150.283 199.001 150.514C198.836 150.746 198.635 150.902 198.418 150.965C198.307 151.007 198.193 151.033 198.079 151.043C197.932 151.783 197.701 152.495 197.252 152.726C197.684 152.865 198.128 152.878 198.562 152.763C198.75 152.691 198.927 152.56 199.083 152.379Z" fill="black"/>
<path opacity="0.1" d="M228.96 107.288C228.938 108.019 228.819 108.734 228.608 109.387C228.498 109.756 228.328 110.075 228.116 110.311C227.451 110.995 226.491 110.246 225.793 110.852C225.237 111.337 225.076 112.493 224.622 113.214C224.097 114.07 223.277 114.204 222.53 114.347C221.783 114.49 220.948 114.809 220.553 115.799C220.26 116.552 220.286 117.5 220.181 118.369C220.178 118.46 220.164 118.549 220.138 118.631C220.113 118.713 220.077 118.785 220.032 118.843C219.988 118.901 219.936 118.943 219.88 118.968C219.824 118.992 219.766 118.997 219.709 118.984C218.244 119.146 217.178 118.346 215.807 117.786C215.163 117.528 214.413 117.56 213.921 118.249C213.475 118.887 213.352 119.918 213.364 120.87C213.425 121.814 213.443 122.765 213.417 123.713C213.319 124.735 213.005 125.676 212.527 126.382C212.049 127.088 211.433 127.519 210.78 127.605C210.685 127.627 210.589 127.619 210.496 127.582C210.403 127.545 210.315 127.479 210.238 127.388C210.154 127.242 210.092 127.066 210.06 126.875C209.084 122.548 209.09 117.745 207.907 113.552C207.718 112.952 207.554 112.335 207.414 111.703C207.34 111.31 207.294 110.905 207.277 110.496C207.109 110.527 206.955 110.662 206.849 110.871C206.684 111.315 206.599 111.821 206.603 112.336C206.467 116.041 206.565 119.757 206.896 123.431C206.684 120.339 206.636 117.225 206.752 114.12C206.745 113.605 206.831 113.097 206.998 112.655C207.05 112.55 207.114 112.462 207.188 112.398C207.261 112.333 207.342 112.294 207.426 112.281C207.442 112.689 207.487 113.094 207.561 113.487C207.701 114.119 207.866 114.737 208.056 115.336C209.228 119.534 209.228 124.332 210.206 128.659C210.241 128.85 210.303 129.026 210.388 129.173C210.462 129.271 210.548 129.344 210.641 129.388C210.733 129.431 210.831 129.445 210.927 129.427C211.578 129.336 212.192 128.904 212.669 128.2C213.147 127.495 213.462 126.558 213.563 125.539C213.587 124.589 213.568 123.637 213.508 122.691C213.508 121.739 213.622 120.708 214.067 120.07C214.559 119.367 215.309 119.34 215.951 119.608C217.322 120.163 218.382 120.962 219.853 120.801C219.982 120.809 220.109 120.743 220.21 120.616C220.274 120.493 220.314 120.344 220.324 120.186C220.433 119.317 220.4 118.369 220.696 117.62C221.095 116.608 221.927 116.312 222.674 116.164C223.421 116.016 224.244 115.891 224.768 115.036C225.21 114.31 225.369 113.159 225.94 112.669C226.634 112.063 227.595 112.817 228.263 112.133C228.476 111.89 228.645 111.563 228.752 111.185C229.137 109.977 229.212 108.581 228.96 107.288Z" fill="black"/>
<path opacity="0.1" d="M208.173 133.865C208.141 135.448 207.903 137.005 207.473 138.437C205.83 144.414 202.701 148.963 199.435 153.017C199.297 154.227 198.943 155.349 198.416 156.253C202.083 151.834 205.78 146.938 207.614 140.254C208.045 138.822 208.284 137.266 208.317 135.682C208.31 135.005 208.26 134.331 208.167 133.671C208.17 133.717 208.173 133.791 208.173 133.865Z" fill="black"/>
</g>
<path opacity="0.1" d="M208.539 107.237C208.276 109.151 207.913 111.638 207.64 112.919C207.607 112.651 207.583 112.381 207.57 112.11C207.45 112.137 207.336 112.212 207.239 112.327C207.239 110.982 207.341 108.98 207.429 107.482C207.583 107.447 207.74 107.489 207.878 107.602C208.016 107.716 208.127 107.896 208.197 108.115C208.29 107.82 208.416 107.524 208.539 107.237Z" fill="black"/>
<path d="M208.399 107.237C208.135 109.151 207.772 111.638 207.499 112.919C207.465 112.652 207.441 112.381 207.429 112.11C207.308 112.137 207.193 112.212 207.095 112.327C207.095 110.982 207.198 108.98 207.289 107.482C207.442 107.447 207.599 107.489 207.736 107.603C207.873 107.717 207.984 107.896 208.053 108.115C208.159 107.82 208.29 107.524 208.399 107.237Z" fill="#67647E"/>
</g>
<defs>
<linearGradient id="paint0_linear" x1="14893.7" y1="69686.9" x2="36450.4" y2="69686.9" gradientUnits="userSpaceOnUse">
<stop stop-color="#808080" stop-opacity="0.25"/>
<stop offset="0.54" stop-color="#808080" stop-opacity="0.12"/>
<stop offset="1" stop-color="#808080" stop-opacity="0.1"/>
</linearGradient>
<linearGradient id="paint1_linear" x1="-66624.9" y1="44334.1" x2="-66624.9" y2="24129.3" gradientUnits="userSpaceOnUse">
<stop stop-color="#808080" stop-opacity="0.25"/>
<stop offset="0.54" stop-color="#808080" stop-opacity="0.12"/>
<stop offset="1" stop-color="#808080" stop-opacity="0.1"/>
</linearGradient>
<clipPath id="clip0">
<rect width="341" height="257" fill="white"/>
</clipPath>
</defs>
</svg>
