<svg width="341" height="257" viewBox="0 0 341 257" fill="none" xmlns="http://www.w3.org/2000/svg">
<g clip-path="url(#clip0)">
<path opacity="0.1" d="M126.406 74.268C69.3749 126.198 98.1087 148.536 63.2028 148.536C28.2969 148.536 0 115.285 0 74.268C0 33.2509 28.2969 0 63.2028 0C98.1087 0 183.436 22.3384 126.406 74.268Z" fill="#492F86"/>
<path d="M139.81 150.943C139.81 159.574 112.745 179.191 77.063 179.191C41.3812 179.191 10.4526 159.574 10.4526 150.943C10.4526 148.784 13.4822 151.465 16.7488 149.598C26.2587 144.152 48.9348 148.166 74.6719 147.942C75.4659 147.934 76.2629 147.93 77.063 147.93C112.745 147.93 139.81 142.312 139.81 150.943Z" fill="#492F86" fill-opacity="0.7"/>
<path opacity="0.1" d="M139.81 150.943C139.81 159.574 112.745 179.191 77.063 179.191C41.3812 179.191 10.4526 159.574 10.4526 150.943C10.4526 148.784 13.4822 151.465 16.7488 149.598C26.2587 144.152 48.9348 148.166 74.6719 147.942C75.4659 147.934 76.2629 147.93 77.063 147.93C112.745 147.93 139.81 142.312 139.81 150.943Z" fill="#492F86"/>
<path d="M139.667 150.781C139.667 159.412 110.741 166.412 75.0596 166.412C39.3779 166.412 10.4526 159.412 10.4526 150.781C10.4526 148.623 12.258 146.569 15.5246 144.702C25.0345 139.257 46.9315 135.387 72.6686 135.163C73.4626 135.155 74.2596 135.15 75.0596 135.15C110.741 135.15 139.667 142.151 139.667 150.781Z" fill="#492F86"/>
<path opacity="0.1" d="M73.4371 135.483C70.6927 140.741 66.9712 145.2 62.5514 148.526C58.1316 151.853 53.1283 153.96 47.9167 154.691C42.705 155.421 37.4202 154.756 32.4586 152.745C27.4969 150.733 22.9871 147.428 19.2673 143.077C28.2823 138.742 49.0395 135.662 73.4371 135.483Z" fill="black"/>
<path d="M44.5089 148.252C62.2113 148.252 76.562 130.185 76.562 107.897C76.562 85.6098 62.2113 67.5422 44.5089 67.5422C26.8065 67.5422 12.4558 85.6098 12.4558 107.897C12.4558 130.185 26.8065 148.252 44.5089 148.252Z" fill="#492F86"/>
<path d="M79.3806 45.3706V54.8307L75.2465 60.4557C75.2465 60.4557 73.5058 59.6886 73.5058 54.5751L72.853 47.1604L79.3806 45.3706Z" fill="#FFB9B9"/>
<path d="M75.2463 54.8305C75.2463 54.8305 81.9914 49.4613 82.209 47.6715C82.4266 45.8817 92.0004 37.7 90.4773 42.8136C88.9542 47.9272 84.1673 50.2283 84.1673 50.2283C84.1673 50.2283 80.4683 61.9896 77.2046 61.7339C73.9408 61.4782 73.9408 56.6203 75.2463 54.8305Z" fill="#FFB9B9"/>
<path d="M71.33 112.358L70.6772 116.961L74.1587 115.938V112.358H71.33Z" fill="#FFB9B9"/>
<path d="M71.9826 114.915C71.9826 114.915 76.0063 112.114 76.1703 113.387C76.3343 114.66 78.075 119.517 78.9453 120.029C79.8156 120.54 80.9036 126.165 78.9453 125.909C77.4286 125.711 71.8657 122.293 69.4341 120.761C69.1347 120.571 68.9087 120.254 68.8024 119.874C68.6961 119.495 68.7177 119.082 68.8628 118.72C69.0054 118.411 69.1038 118.075 69.154 117.728C69.154 117.216 71.9826 114.915 71.9826 114.915Z" fill="#2F2E41"/>
<path d="M70.0245 63.0125C70.0245 63.0125 85.9082 71.7056 84.3851 78.3533C82.862 85.0009 77.2048 113.126 77.2048 113.126C77.2048 113.126 70.8948 114.915 70.4596 113.126C70.0245 111.336 74.5938 83.4669 74.1586 82.4441C73.7234 81.4214 65.6728 74.7737 65.6728 74.7737L49.1362 66.592L56.099 58.9216L70.0245 63.0125Z" fill="#2F2E41"/>
<path d="M81.9915 113.893L83.9499 119.773L80.4684 121.563L78.2925 116.961L81.9915 113.893Z" fill="#FFB9B9"/>
<path d="M70.242 21.081C70.242 21.081 68.2838 24.1491 69.8069 25.6832C71.33 27.2173 70.242 32.8422 70.242 32.8422L68.2838 39.2342L60.4507 37.4445V26.9616L60.8859 21.848C60.8859 21.848 64.8024 17.5015 65.2376 14.1776C65.6727 10.8538 70.242 21.081 70.242 21.081Z" fill="#FFB9B9"/>
<path opacity="0.1" d="M70.242 21.081C70.242 21.081 68.2838 24.1491 69.8069 25.6832C71.33 27.2173 70.242 32.8422 70.242 32.8422L68.2838 39.2342L60.4507 37.4445V26.9616L60.8859 21.848C60.8859 21.848 64.8024 17.5015 65.2376 14.1776C65.6727 10.8538 70.242 21.081 70.242 21.081Z" fill="black"/>
<path d="M57.1867 60.967C57.1867 60.967 67.4133 74.2624 67.4133 74.7737C67.4133 75.2851 72.8529 85.7679 72.8529 85.7679L83.5146 113.637C83.5146 113.637 79.3805 120.285 77.6398 119.773C75.8991 119.262 63.4967 89.6031 63.4967 89.6031C63.4967 89.6031 61.3209 82.9555 55.4461 81.4214C49.5712 79.8873 45.0019 74.5181 47.1778 68.3818C49.3536 62.2454 57.1867 60.967 57.1867 60.967Z" fill="#2F2E41"/>
<path d="M70.242 22.8708C74.0875 22.8708 77.2048 19.2077 77.2048 14.6891C77.2048 10.1704 74.0875 6.50732 70.242 6.50732C66.3966 6.50732 63.2793 10.1704 63.2793 14.6891C63.2793 19.2077 66.3966 22.8708 70.242 22.8708Z" fill="#FFB9B9"/>
<path d="M70.024 27.9843C70.024 27.9843 69.1537 33.8649 68.2833 34.3763C67.413 34.8876 66.7602 36.6774 64.8019 34.1206C62.8437 31.5638 61.103 26.4502 61.103 26.4502L54.3578 36.166L53.7051 63.0124C53.7051 63.0124 61.3206 60.7112 63.714 63.0124C66.1075 65.3135 71.3295 65.0578 71.3295 65.0578L70.2416 59.9442L71.1119 51.2511L70.8943 43.325L70.6768 37.7001L70.024 27.9843Z" fill="#F2F2F2"/>
<path d="M69.2575 23.6807C69.2575 23.6807 72.1998 25.4275 72.4174 26.4502C72.635 27.4729 76.5516 29.5183 76.5516 29.5183C76.5516 29.5183 78.0746 31.3081 78.0746 32.3308C78.0746 33.3535 72.8526 45.1148 72.8526 45.1148C72.8526 45.1148 71.7647 53.0409 72.1998 54.5749C72.635 56.109 71.3295 61.9896 71.3295 61.9896L73.9405 65.5691H71.5471C71.5471 65.5691 68.936 64.0351 68.936 63.268C68.936 62.501 69.3712 57.1317 69.5888 54.8306C69.8064 52.5295 69.8064 44.3477 69.3712 41.5353C68.936 38.7228 69.1536 31.3081 69.1536 29.5183C69.1536 27.7286 69.2575 23.6807 69.2575 23.6807Z" fill="#3F3D56"/>
<path d="M62.5174 19.7983C62.5174 19.7983 61.5383 20.0582 58.7097 21.0809C55.8811 22.1037 51.5294 23.6377 50.0063 25.6832C48.9372 27.1959 47.9903 28.8222 47.1777 30.5411L48.048 48.95C48.048 48.95 46.3073 52.7852 46.5249 54.8306C46.7425 56.8761 48.4832 57.1317 47.1777 61.4783C45.8722 65.8248 43.2611 69.66 45.6546 70.1714C48.048 70.6828 54.358 68.893 57.1866 69.9157C60.0152 70.9384 63.279 66.0805 63.279 66.0805C63.279 66.0805 58.9273 66.5919 59.5801 64.5464C60.2328 62.501 67.4131 39.4899 65.89 34.3763C64.3669 29.2627 62.5174 19.7983 62.5174 19.7983Z" fill="#3F3D56"/>
<path d="M76.9873 31.0525L78.0752 32.0752C78.0752 32.0752 81.1214 44.8592 80.2511 46.1376C79.3807 47.416 72.418 50.2284 71.9828 48.4387C71.5476 46.6489 76.9873 31.0525 76.9873 31.0525Z" fill="#3F3D56"/>
<path d="M44.7843 40.0012C44.7843 40.0012 41.5205 50.9954 41.5205 54.0636C41.5205 57.1317 41.9557 75.0293 41.9557 75.0293C41.9557 75.0293 42.1733 82.6997 46.7426 79.6315C51.3119 76.5634 46.7426 74.5179 46.7426 74.5179C46.7426 74.5179 46.9601 54.3193 48.7008 51.5068C50.4415 48.6943 51.0943 44.6034 51.0943 44.6034L44.7843 40.0012Z" fill="#FFB9B9"/>
<path d="M80.4686 119.517C80.4686 119.517 83.7324 117.472 84.3851 119.006C85.0379 120.54 88.5193 128.978 88.0841 130C87.6489 131.023 85.2555 135.114 82.4269 134.091C79.5982 133.068 79.3807 127.699 79.3807 127.699L79.1631 121.563L80.4686 119.517Z" fill="#2F2E41"/>
<path d="M71.6054 12.7127C71.1258 12.978 70.5568 13.1365 70.2554 13.6489C70.0321 14.0286 70.0099 14.522 69.8469 14.942C69.6691 15.3579 69.363 15.6784 68.991 15.8382C68.619 15.9981 68.2092 15.9852 67.845 15.8023C67.756 15.293 67.504 14.8433 67.141 14.546C66.9576 14.4043 66.7404 14.3354 66.5213 14.3496C66.3022 14.3637 66.0927 14.4601 65.9236 14.6245C65.4751 15.1269 65.6339 16.0031 65.4246 16.6884C65.2282 17.1705 64.9579 17.606 64.6272 17.9732C64.151 18.6189 63.7716 19.3761 63.1981 19.9014C62.6246 20.4267 61.7548 20.6543 61.1851 20.1235C60.7059 19.6771 60.6066 18.8535 60.723 18.1482C60.8393 17.4428 61.1279 16.7933 61.2906 16.1007C61.8194 13.8503 60.9764 11.4478 61.2372 9.13336C61.5714 6.1678 63.7164 3.82531 66.1106 2.80872C67.107 2.33196 68.1978 2.19616 69.257 2.417C70.3519 2.70429 71.2873 3.52343 72.336 3.99191C73.4574 4.4929 74.6769 4.58038 75.8505 4.87326C77.024 5.16614 78.2317 5.73243 78.9128 6.89308C79.3877 7.70261 79.551 8.70796 79.9447 9.57566C80.3978 10.5661 81.1318 11.3388 82.0192 11.7596L80.7786 11.6765C80.9866 12.3272 81.3257 12.909 81.7671 13.3718C81.1853 13.5112 80.5806 13.4172 80.0497 13.105C80.0593 13.4046 80.121 13.6988 80.2312 13.9692C80.3413 14.2397 80.4974 14.4808 80.69 14.6776C79.7353 14.6438 78.7287 14.5921 77.922 13.9912C77.5269 13.6969 77.2047 13.287 76.8329 12.9534C76.0404 12.2422 75.0572 11.9047 74.0987 11.5815C73.5954 11.4117 72.9896 11.1757 72.5345 11.5561C72.1554 11.8728 72.0956 12.4415 71.6054 12.7127Z" fill="#2F2E41"/>
<path d="M50.4417 27.4729L47.1779 30.5411L42.8262 42.3023C42.8262 42.3023 48.9186 47.9273 50.4417 47.1602C51.9648 46.3932 54.5758 32.8422 54.5758 32.8422L50.4417 27.4729Z" fill="#3F3D56"/>
<path d="M99.3935 41.5069L85.6601 50.3711C85.5805 50.4333 85.4903 50.4742 85.3958 50.4909C85.3013 50.5077 85.2048 50.4999 85.1131 50.4681C85.0215 50.4364 84.9368 50.3814 84.8652 50.307C84.7936 50.2326 84.7367 50.1408 84.6985 50.0378L81.3343 41.7745C81.2705 41.5389 81.2809 41.2843 81.3634 41.057C81.446 40.8296 81.5953 40.6447 81.7842 40.5358L93.1863 33.6297C93.3268 33.5305 93.4935 33.4956 93.6544 33.5317C93.8154 33.5679 93.9594 33.6726 94.0588 33.8257L99.7543 40.1309C99.8103 40.2483 99.8455 40.3779 99.8577 40.5118C99.8698 40.6457 99.8587 40.7811 99.8249 40.9097C99.7912 41.0384 99.7356 41.1577 99.6614 41.2604C99.5872 41.363 99.4961 41.4469 99.3935 41.5069Z" fill="#2F2E41"/>
<path d="M98.4768 40.2862L85.602 48.9333L82.1758 41.6774L93.2206 34.6196L98.4768 40.2862Z" fill="#16161D"/>
<path d="M87.6747 37.7867C87.7418 37.6922 87.7406 37.5612 87.6721 37.494C87.6036 37.4268 87.4937 37.4489 87.4266 37.5434C87.3595 37.6378 87.3607 37.7688 87.4292 37.836C87.4978 37.9032 87.6077 37.8811 87.6747 37.7867Z" fill="#F2F2F2"/>
<path d="M92.4134 45.1698C92.4581 45.1068 92.4573 45.0195 92.4116 44.9747C92.3659 44.9299 92.2927 44.9446 92.248 45.0076C92.2032 45.0705 92.204 45.1579 92.2497 45.2027C92.2954 45.2475 92.3687 45.2327 92.4134 45.1698Z" fill="#F2F2F2"/>
<path d="M27.7713 147.861C27.7713 153.718 24.8085 155.763 21.1531 155.763C21.0684 155.763 20.9837 155.762 20.8997 155.76C20.7303 155.756 20.5622 155.746 20.3965 155.733C17.0975 155.458 14.5349 153.308 14.5349 147.861C14.5349 142.225 20.664 135.113 21.1257 134.585L21.1263 134.584C21.1439 134.564 21.1531 134.554 21.1531 134.554C21.1531 134.554 27.7713 142.005 27.7713 147.861Z" fill="#16161D"/>
<path d="M20.912 154.867L23.3327 150.893L20.9059 155.304L20.8998 155.76C20.7305 155.756 20.5624 155.746 20.3967 155.733L20.6574 149.873L20.6556 149.828L20.6598 149.82L20.6848 149.266L18.252 144.844L20.6921 148.851L20.6982 148.968L20.895 144.541L18.8123 139.972L20.9205 143.764L21.1258 134.585L21.1264 134.554V134.584L21.0923 141.822L23.1658 138.953L21.0838 142.446L21.029 146.41L22.9654 142.605L21.021 146.993L20.9906 149.197L23.8005 143.902L20.9796 149.966L20.912 154.867Z" fill="#492F86"/>
<path d="M120.21 135.755C120.21 141.612 117.247 143.657 113.592 143.657C113.507 143.657 113.422 143.656 113.338 143.653C113.169 143.649 113.001 143.64 112.835 143.626C109.536 143.352 106.974 141.202 106.974 135.755C106.974 130.119 113.103 123.006 113.564 122.479L113.565 122.478C113.583 122.457 113.592 122.447 113.592 122.447C113.592 122.447 120.21 129.898 120.21 135.755Z" fill="#16161D"/>
<path d="M113.351 142.761L115.772 138.787L113.345 143.197L113.339 143.653C113.169 143.649 113.001 143.64 112.836 143.626L113.096 137.767L113.095 137.721L113.099 137.713L113.124 137.159L110.691 132.738L113.131 136.744L113.137 136.861L113.334 132.434L111.251 127.866L113.359 131.658L113.565 122.479L113.565 122.447V122.478L113.531 129.716L115.605 126.846L113.523 130.339L113.468 134.303L115.404 130.499L113.46 134.887L113.43 137.09L116.239 131.795L113.419 137.859L113.351 142.761Z" fill="#492F86"/>
<path opacity="0.1" d="M257.348 87.9309H147.322V159.118H257.348V87.9309Z" fill="#492F86"/>
<path opacity="0.3" d="M165.76 124.31C170.769 124.31 174.828 119.539 174.828 113.654C174.828 107.769 170.769 102.999 165.76 102.999C160.752 102.999 156.692 107.769 156.692 113.654C156.692 119.539 160.752 124.31 165.76 124.31Z" fill="#492F86"/>
<path opacity="0.3" d="M202.335 124.31C207.343 124.31 211.403 119.539 211.403 113.654C211.403 107.769 207.343 102.999 202.335 102.999C197.326 102.999 193.267 107.769 193.267 113.654C193.267 119.539 197.326 124.31 202.335 124.31Z" fill="#492F86"/>
<path opacity="0.3" d="M238.909 124.31C243.917 124.31 247.977 119.539 247.977 113.654C247.977 107.769 243.917 102.999 238.909 102.999C233.901 102.999 229.841 107.769 229.841 113.654C229.841 119.539 233.901 124.31 238.909 124.31Z" fill="#16161D"/>
<path opacity="0.3" d="M178.002 132.302H153.216V135.143H178.002V132.302Z" fill="#492F86"/>
<path opacity="0.3" d="M214.879 132.302H190.093V135.143H214.879V132.302Z" fill="#492F86"/>
<path d="M251.756 132.302H226.97V135.143H251.756V132.302Z" fill="#492F86"/>
<path d="M341 227.164C341 236.28 312.414 257 274.728 257C237.041 257 204.375 236.28 204.375 227.164C204.375 224.884 207.575 227.716 211.025 225.744C221.069 219.992 245.019 224.232 272.202 223.995C273.041 223.986 273.883 223.982 274.728 223.982C312.414 223.982 341 218.049 341 227.164Z" fill="#492F86" fill-opacity="0.7"/>
<path opacity="0.1" d="M341 227.164C341 236.28 312.414 257 274.728 257C237.041 257 204.375 236.28 204.375 227.164C204.375 224.884 207.575 227.716 211.025 225.744C221.069 219.992 245.019 224.232 272.202 223.995C273.041 223.986 273.883 223.982 274.728 223.982C312.414 223.982 341 218.049 341 227.164Z" fill="#492F86" fill-opacity="0.1"/>
<path d="M340.849 226.994C340.849 236.11 310.298 243.503 272.612 243.503C234.925 243.503 204.375 236.11 204.375 226.994C204.375 224.714 206.282 222.545 209.732 220.573C219.776 214.822 242.903 210.734 270.087 210.498C270.925 210.489 271.767 210.485 272.612 210.485C310.298 210.485 340.849 217.878 340.849 226.994Z" fill="#492F86"/>
<path d="M276.147 212.333C285.168 212.333 292.481 202.587 292.481 190.565C292.481 178.542 285.168 168.796 276.147 168.796C267.125 168.796 259.812 178.542 259.812 190.565C259.812 202.587 267.125 212.333 276.147 212.333Z" fill="#36334A"/>
<path d="M283.323 151.177L258.773 152.065C258.773 152.065 233.589 179.839 251.529 187.383C251.529 187.383 277.091 188.679 282.378 183.797C282.378 183.797 288.988 153.175 283.323 151.177ZM282.19 159.388L255.941 161.385C255.941 161.385 257.829 153.84 265.383 153.84C272.936 153.84 281.434 151.843 282.19 156.503C282.945 161.163 282.19 159.388 282.19 159.388Z" fill="#3F3D56"/>
<path d="M308.439 168.708L276.147 167.376L283.701 129.875C283.701 129.875 313.915 127.212 313.16 136.31C312.404 145.408 308.439 168.708 308.439 168.708Z" fill="#36334A"/>
<path d="M277.265 186.634C277.265 186.634 257.829 190.676 250.842 178.693C243.855 166.711 277.28 173.146 277.28 173.146L280.113 182.244L277.265 186.634Z" fill="#36334A"/>
<path d="M271.426 237.497C276.328 237.497 280.301 232.828 280.301 227.068C280.301 221.308 276.328 216.638 271.426 216.638C266.524 216.638 262.55 221.308 262.55 227.068C262.55 232.828 266.524 237.497 271.426 237.497Z" fill="#36334A"/>
<path d="M272.276 234.612C275.353 234.612 277.847 231.234 277.847 227.068C277.847 222.901 275.353 219.523 272.276 219.523C269.199 219.523 266.705 222.901 266.705 227.068C266.705 231.234 269.199 234.612 272.276 234.612Z" fill="#3F3D56"/>
<path d="M319.958 128.765C319.958 128.765 312.593 123.883 312.216 135.422L305.984 189.122H308.628L315.804 131.65C315.804 131.65 319.392 132.316 319.958 132.316C320.525 132.316 319.958 128.765 319.958 128.765Z" fill="#3F3D56"/>
<path d="M327.296 134.69C327.229 134.975 327.11 135.24 326.949 135.467C326.787 135.694 326.586 135.877 326.359 136.006C326.132 136.134 325.885 136.203 325.633 136.21C325.381 136.216 325.131 136.16 324.9 136.043L316.356 131.751L317.906 127.74L326.326 132.246C326.709 132.451 327.017 132.81 327.195 133.258C327.373 133.706 327.409 134.214 327.296 134.69Z" fill="#36334A"/>
<path d="M275.391 185.35C275.391 185.35 261.795 183.575 258.018 198.886C254.241 214.197 254.619 225.958 251.408 225.071C248.198 224.183 241.4 221.076 241.4 221.076L241.966 225.736C241.966 225.736 253.863 232.837 255.752 225.293C257.64 217.748 258.773 190.01 269.537 190.676C280.301 191.342 282.189 190.01 282.189 190.01L275.391 185.35Z" fill="#3F3D56"/>
<path d="M249.52 178.028C249.52 178.028 238.945 179.581 234.791 188.679C230.636 197.777 228.559 214.197 228.559 214.197H232.525C232.525 214.197 234.791 181.578 246.688 183.353L249.52 178.028Z" fill="#3F3D56"/>
<path d="M242.344 228.843L225.538 216.638C225.538 216.638 224.593 212.2 235.357 210.425C235.357 210.425 255.708 218.788 253.747 221.929C251.786 225.071 245.177 229.952 242.344 228.843Z" fill="#36334A"/>
<path d="M273.547 158.697C274.065 159.359 283.588 170.006 283.588 170.006C283.588 170.006 282.642 177.438 272.452 178.36L255.47 179.897C255.47 179.897 252.26 193.739 248.443 198.163C244.627 202.586 246.378 202.833 244.946 204.989C243.514 207.145 245.524 207.723 243.35 207.933C241.176 208.142 236.684 205.053 236.635 202.664C236.586 200.275 237.854 198.906 238.418 198.298C238.982 197.689 240.411 191.873 241.268 190.643C242.125 189.413 245.37 174.618 245.37 174.618C245.37 174.618 248.608 167.46 253.098 166.889C257.587 166.318 262.582 163.753 262.582 163.753" fill="#2F2E41"/>
<path opacity="0.1" d="M273.547 158.697C274.065 159.359 283.588 170.006 283.588 170.006C283.588 170.006 282.642 177.438 272.452 178.36L255.47 179.897C255.47 179.897 252.26 193.739 248.443 198.163C244.627 202.586 246.378 202.833 244.946 204.989C243.514 207.145 245.524 207.723 243.35 207.933C241.176 208.142 236.684 205.053 236.635 202.664C236.586 200.275 237.854 198.906 238.418 198.298C238.982 197.689 240.411 191.873 241.268 190.643C242.125 189.413 245.37 174.618 245.37 174.618C245.37 174.618 248.608 167.46 253.098 166.889C257.587 166.318 262.582 163.753 262.582 163.753" fill="black"/>
<path d="M257.074 123.161C257.074 123.161 253.5 111.75 251.054 115.386C248.608 119.022 254.99 124.993 254.99 124.993L257.074 123.161Z" fill="#A0616A"/>
<path d="M275.901 129.118L273.866 128.106C273.866 128.106 270.131 131.072 269.885 132.035C269.639 132.999 270.172 132.661 268.705 133.509C267.238 134.356 263.23 136.407 262.697 136.744C262.164 137.081 256.132 124.54 257.574 122.739C257.574 122.739 254.874 123.883 253.645 123.45C253.645 123.45 256.714 140.933 257.181 143.302C257.648 145.671 258.738 145.951 260.77 146.037C262.803 146.124 275.146 141.869 275.146 141.869L275.901 129.118Z" fill="#575A89"/>
<path d="M244.064 204.258C244.064 204.258 243.961 206.738 244.313 207.023C244.665 207.308 246.843 213.343 243.489 213.925C240.135 214.507 238.293 213.75 237.482 214.07C236.671 214.391 223.301 213.095 223.404 210.614C223.507 208.134 230.192 208.782 230.192 208.782C230.192 208.782 236.814 205.106 238.053 202.813C239.293 200.52 244.064 204.258 244.064 204.258Z" fill="#2F2E41"/>
<path opacity="0.1" d="M244.064 204.258C244.064 204.258 243.961 206.738 244.313 207.023C244.665 207.308 246.843 213.343 243.489 213.925C240.135 214.507 238.293 213.75 237.482 214.07C236.671 214.391 223.301 213.095 223.404 210.614C223.507 208.134 230.192 208.782 230.192 208.782C230.192 208.782 236.814 205.106 238.053 202.813C239.293 200.52 244.064 204.258 244.064 204.258Z" fill="black"/>
<path d="M250.962 217.322C250.962 217.322 248.929 227.733 247.437 227.627C245.945 227.521 235.415 221.499 234.119 220.306C232.456 218.775 232.522 216.068 234.431 216.637C236.341 217.205 241.742 216.695 242.66 215.549L245.02 212.603L250.962 217.322Z" fill="#2F2E41"/>
<path d="M271.809 159.483C272.366 160.1 289.313 176.994 289.313 176.994C289.313 176.994 288.829 184.486 278.724 186.276L261.881 189.26C261.881 189.26 259.536 203.34 256.003 208.078C252.471 212.816 254.233 212.912 252.938 215.185C251.642 217.457 253.683 217.862 251.528 218.257C249.372 218.651 244.701 215.954 244.504 213.576C244.308 211.197 245.488 209.723 246.013 209.069C246.537 208.414 247.603 202.491 248.382 201.191C249.161 199.891 251.481 184.858 251.481 184.858C251.481 184.858 254.268 177.442 258.71 176.489C263.153 175.536 267.976 172.551 267.976 172.551" fill="#2F2E41"/>
<path d="M287.409 122.883C291.847 122.883 295.445 118.656 295.445 113.441C295.445 108.226 291.847 103.998 287.409 103.998C282.971 103.998 279.373 108.226 279.373 113.441C279.373 118.656 282.971 122.883 287.409 122.883Z" fill="#A0616A"/>
<path d="M291.621 119.335C291.621 119.335 290.416 125.104 292.251 128.061C294.087 131.017 279.974 129.61 279.974 129.61C279.974 129.61 283.794 120.249 282.385 118.073C280.975 115.896 291.621 119.335 291.621 119.335Z" fill="#A0616A"/>
<path d="M273.582 128.405C271.877 130.534 272.458 142.601 272.458 142.601L273.547 153.378C273.547 153.378 272.244 155.332 272.67 156.113C273.096 156.893 273.792 157.663 272.448 158.029C271.104 158.395 268.006 158.982 268.998 160.696C269.321 161.182 269.668 161.646 270.036 162.086C270.352 162.479 270.728 162.935 271.154 163.443C272.151 164.626 273.419 166.081 274.825 167.615C275.223 168.053 275.632 168.494 276.05 168.939C281.416 174.643 288.089 180.681 289.469 177.783C291.781 172.93 293.387 172.237 293.281 168.105C293.175 163.973 296.151 153.37 296.151 153.37C296.151 153.37 299.611 135.275 294.735 129.881L293.972 128.448C293.618 127.782 293.095 127.263 292.477 126.966C291.858 126.668 291.176 126.607 290.526 126.791C288.146 127.459 284.497 128.382 282.917 128.233C280.474 128.002 281.01 126.822 281.01 126.822C281.01 126.822 275.286 126.277 273.582 128.405Z" fill="#575A89"/>
<path d="M266.046 167.004C266.046 167.004 256.105 169.902 257.563 173.985C259.022 178.069 267.628 170.606 267.628 170.606L266.046 167.004Z" fill="#A0616A"/>
<path d="M291.856 116.895C291.659 116.614 291.854 116.202 292.027 115.898C292.949 114.27 293.125 111.953 292.11 110.403C291.71 109.825 291.21 109.355 290.643 109.023C289.846 108.527 288.977 108.213 288.081 108.099C287.604 108.091 287.133 107.982 286.689 107.777C286.409 107.61 285.087 107.065 284.803 106.907C284.179 106.558 283.311 106.709 282.911 106.047C282.528 105.413 282.885 104.545 283.257 103.903C284.104 102.439 286.244 101.226 287.714 100.842C288.83 100.551 289.994 100.961 291.028 101.533C292.22 102.228 293.351 103.059 294.404 104.014C295.85 105.274 297.274 106.669 298.143 108.521C299.012 110.374 299.221 112.786 298.24 114.559C298.035 114.929 297.785 115.262 297.594 115.641C297.127 116.565 297.043 117.683 296.713 118.685C296.468 119.418 296.094 120.082 295.617 120.634C295.139 121.187 294.569 121.616 293.942 121.894C292.937 122.33 291.701 122.451 291.107 123.499L290.83 121.314C290.758 121.038 290.768 120.742 290.859 120.474C290.951 120.206 291.117 119.984 291.331 119.843L292.755 118.434C293.039 118.207 293.254 117.881 293.37 117.502C293.678 115.992 292.186 117.365 291.856 116.895Z" fill="#2F2E41"/>
<path opacity="0.1" d="M277.603 158.482L271.154 163.443C272.433 164.962 274.16 166.929 276.05 168.939C277.84 167.807 279.666 166.581 281.299 165.349C287.274 160.843 292.397 149.527 294.692 144.038C296.988 138.549 295.119 134.321 295.119 134.321C293.599 133.529 291.99 132.997 290.341 132.741C287.35 132.211 277.603 158.482 277.603 158.482Z" fill="black"/>
<path opacity="0.1" d="M276.751 156.922L270.036 162.086C270.352 162.479 270.728 162.935 271.154 163.443C272.151 164.626 273.418 166.081 274.825 167.615C276.732 166.418 278.701 165.106 280.447 163.789C286.422 159.283 291.545 147.967 293.84 142.478C296.136 136.989 289.96 138.957 289.96 138.957C289.96 138.957 293.165 137.253 290.173 136.723C287.182 136.193 276.751 156.922 276.751 156.922Z" fill="black"/>
<path d="M294.825 133.377C294.825 133.377 296.693 137.605 294.398 143.094C292.102 148.583 286.979 159.899 281.004 164.405C275.029 168.912 266.48 173.351 266.48 173.351C266.48 173.351 265.669 168.131 264.301 167.543L277.308 157.538C277.308 157.538 287.055 131.267 290.047 131.797C291.695 132.053 293.304 132.585 294.825 133.377Z" fill="#575A89"/>
<path d="M268.405 189.123V215.085H270.86V188.679L268.405 189.123Z" fill="#3F3D56"/>
<path d="M271.993 205.1C271.993 205.1 276.714 226.846 273.692 229.953C273.692 229.953 269.727 216.195 266.705 217.97L267.649 205.1H271.993Z" fill="#36334A"/>
<path d="M308.627 157.834L284.078 158.722C284.078 158.722 262.361 183.575 280.301 191.12C280.301 191.12 302.395 195.336 307.683 190.454C307.683 190.454 314.292 159.832 308.627 157.834ZM307.494 166.045L281.245 168.042C281.245 168.042 283.134 160.497 290.687 160.497C298.241 160.497 306.739 158.5 307.494 163.16C308.249 167.82 307.494 166.045 307.494 166.045V166.045Z" fill="#3F3D56"/>
<path d="M303.057 237.497C316.667 237.497 327.7 222.793 327.7 204.656C327.7 186.518 316.667 171.814 303.057 171.814C289.446 171.814 278.413 186.518 278.413 204.656C278.413 222.793 289.446 237.497 303.057 237.497Z" fill="#492F86"/>
<path d="M304.19 229.065C314.463 229.065 322.79 218.137 322.79 204.656C322.79 191.175 314.463 180.247 304.19 180.247C293.917 180.247 285.589 191.175 285.589 204.656C285.589 218.137 293.917 229.065 304.19 229.065Z" fill="#493083" fill-opacity="0.7"/>
<path opacity="0.7" d="M309.005 204.323C309.005 203.897 308.969 203.472 308.897 203.055L322.791 194.892L321.846 192.451L307.812 200.485C307.671 200.314 307.514 200.161 307.346 200.028L307.357 200.03L311.46 176.03L307.83 175.933L305.417 199.552L305.649 199.609C305.461 199.654 305.279 199.727 305.107 199.826L292.97 185.186L291.254 188.013L303.725 201.495C303.412 202.2 303.224 202.973 303.173 203.767L285.589 212.2L285.211 215.751L303.54 206.693C303.711 207.191 303.953 207.651 304.257 208.053L298.619 230.618H300.696L305.428 208.972C305.638 209.051 305.858 209.092 306.078 209.094C306.504 209.089 306.92 208.942 307.278 208.671L317.125 223.961L320.147 221.52L308.609 206.711C308.874 205.954 309.009 205.142 309.005 204.323Z" fill="#635A9D"/>
<path d="M244.275 124.16C249.283 124.16 253.343 119.389 253.343 113.504C253.343 107.62 249.283 102.849 244.275 102.849C239.266 102.849 235.207 107.62 235.207 113.504C235.207 119.389 239.266 124.16 244.275 124.16Z" fill="#492F86"/>
<path d="M335.996 222.855C335.996 228.712 333.033 230.757 329.378 230.757C329.293 230.757 329.209 230.755 329.125 230.753C328.955 230.749 328.787 230.74 328.621 230.726C325.322 230.452 322.76 228.302 322.76 222.855C322.76 217.219 328.889 210.106 329.351 209.579L329.351 209.578C329.369 209.557 329.378 209.547 329.378 209.547C329.378 209.547 335.996 216.998 335.996 222.855Z" fill="#16161D"/>
<path d="M329.137 229.861L331.557 225.887L329.131 230.297L329.124 230.753C328.955 230.749 328.787 230.74 328.621 230.726L328.882 224.867L328.88 224.821L328.884 224.813L328.909 224.259L326.477 219.838L328.917 223.844L328.923 223.961L329.12 219.534L327.037 214.966L329.145 218.758L329.35 209.579L329.351 209.547V209.578L329.317 216.816L331.39 213.946L329.308 217.439L329.254 221.403L331.19 217.599L329.246 221.987L329.215 224.19L332.025 218.895L329.204 224.959L329.137 229.861Z" fill="#3F3D56"/>
</g>
<defs>
<clipPath id="clip0">
<rect width="341" height="257" fill="white"/>
</clipPath>
</defs>
</svg>
