<svg width="548" height="606" viewBox="0 0 548 606" fill="none" xmlns="http://www.w3.org/2000/svg">
<g opacity="0.2">
<path fill-rule="evenodd" clip-rule="evenodd" d="M318 373.585C445.025 373.585 548 290.049 548 187.002C548 83.9551 445.025 0.419128 318 0.419128C190.975 0.419128 88 83.9551 88 187.002C88 290.049 190.975 373.585 318 373.585Z" fill="#16161D"/>
<path fill-rule="evenodd" clip-rule="evenodd" d="M458 605.596C480.644 605.596 499 590.705 499 572.336C499 553.967 480.644 539.075 458 539.075C435.356 539.075 417 553.967 417 572.336C417 590.705 435.356 605.596 458 605.596Z" fill="#2B44FF"/>
</g>
<g filter="url(#filter0_d)">
<rect width="250.948" height="418.727" rx="36.45" transform="matrix(0.999599 -0.0283174 0.0430069 0.999075 43 45.6825)" fill="white"/>
</g>
<path fill-rule="evenodd" clip-rule="evenodd" d="M230.264 49.9982L230.235 49.3074L258.222 48.5145C271.637 48.1345 282.98 58.6958 283.557 72.1039L298.684 423.5C299.261 436.908 288.854 448.085 275.439 448.465L95.884 453.552C82.4689 453.932 71.1259 443.371 70.5487 429.963L55.4223 78.5667C54.8451 65.1586 65.2523 53.9811 78.6675 53.6011L107.346 52.7886L107.376 53.4795C107.703 61.0775 114.13 67.0622 121.732 66.8469L217.092 64.1454C224.694 63.9301 230.591 57.5962 230.264 49.9982Z" fill="#16161D"/>
<mask id="mask0" mask-type="alpha" maskUnits="userSpaceOnUse" x="61" y="36" width="338" height="418">
<rect width="318.934" height="408.989" transform="matrix(0.999599 -0.0283174 0.0430069 0.999075 61.9888 45.1446)" fill="white"/>
</mask>
<g mask="url(#mask0)">
<path fill-rule="evenodd" clip-rule="evenodd" d="M299.629 130.9C301.216 145.097 307.133 157.533 311.874 160.189C321.095 165.355 348.571 138.378 353.462 121.981C358.354 105.584 333.79 72.5411 311.385 92.698C305.135 98.3216 301.692 105.658 300.177 113.427L246.048 151.029L267.705 172.428L299.629 130.9Z" fill="#B28B67"/>
<path fill-rule="evenodd" clip-rule="evenodd" d="M374.151 115.075C371.142 118.197 367.006 119.584 362.98 119.22C359.504 121.853 347.525 115.654 335.622 104.948C334.648 104.072 333.703 103.192 332.791 102.312C331.693 105.54 329.589 108.91 326.231 112.351C324.971 113.643 323.562 114.897 322.043 116.096C321.864 114.786 321.352 113.611 320.491 112.776C317.018 109.409 311.759 109.997 308.743 113.109C305.172 116.793 304.456 121.401 306.829 124.742C297.792 128.273 288.854 129.13 284.709 125.083C277.369 117.917 282.222 102.44 293.069 91.0316C287.297 88.7463 280.725 88.4646 274.086 88.18C264.033 87.7491 253.826 87.3117 246.016 79.8992C230.39 65.0683 250.971 30.9018 272.803 51.6227C289.43 67.4032 294.289 76.6402 297.904 86.6218C304.653 81.331 312.186 78.7039 318.432 79.2056C318.512 79.0621 318.606 78.9291 318.714 78.8071C321.691 75.4451 334.088 81.6981 346.402 92.7735C348.457 94.6214 350.38 96.4868 352.143 98.328C352.681 97.4121 353.334 96.5448 354.103 95.747C359.398 90.2554 368.177 90.1303 373.713 95.4675C379.249 100.805 379.446 109.583 374.151 115.075Z" fill="#191847"/>
<path fill-rule="evenodd" clip-rule="evenodd" d="M37.8244 361.418C37.8244 361.418 94.6442 385.166 137.531 393.786C180.418 402.406 220.73 391.523 220.73 391.523C220.73 391.523 165.236 367.716 127.805 360.192C90.3743 352.669 37.8244 361.418 37.8244 361.418Z" fill="#A6B6F5"/>
<path fill-rule="evenodd" clip-rule="evenodd" d="M166.562 415.034C166.311 414.493 166.121 413.923 166.002 413.323C163.52 400.899 111.573 261.686 108.491 237.556L195.298 255.451C197.641 273.797 201.983 386.791 201.304 409.016C206.07 445.277 207.735 559.875 209.253 568.104C210.851 576.76 190.994 581.34 188.159 570.519C183.648 553.301 174.125 506.269 171.343 478.176C168.735 451.84 167.043 428.281 166.562 415.034Z" fill="#997659"/>
<path fill-rule="evenodd" clip-rule="evenodd" d="M85.64 415.951C46.8068 416.169 -92.3416 402.475 -102.14 402.784C-112.22 403.102 -117.362 384.883 -104.753 383.741C-84.6903 381.923 -29.9143 379.443 2.77632 380.543C29.0707 381.428 52.9815 382.652 68.9742 383.775C74.9266 347.109 86.3454 258.53 94.0698 240.473L175.275 257.066C167.868 274.381 109.433 399.828 100.834 411.823C98.0005 416.153 91.9415 417.085 85.64 415.951Z" fill="#B28B67"/>
<path fill-rule="evenodd" clip-rule="evenodd" d="M101.967 237.34C101.967 237.34 158.266 235.554 203.671 258.1C206.367 302.475 230.051 324.704 221.882 390.227C163.393 401.47 104.288 349.69 44.3203 360.057C34.5105 326.433 71.4043 257.811 101.967 237.34Z" fill="#A6B6F5"/>
<path fill-rule="evenodd" clip-rule="evenodd" d="M301.358 352.841L280.186 296.328L255.545 306.702L285.425 352.453C287.882 372.259 290.574 381.823 293.501 381.147C295.97 380.576 296.271 378.467 296.549 376.523C296.765 375.009 296.967 373.597 298.167 373.091C300.909 371.937 308.602 378.318 315.677 384.612C322.752 390.905 322.811 386.641 322.115 383.967C317.567 374.48 310.648 364.105 301.358 352.841ZM26.8253 274.48C35.5033 269.191 97.0055 202.496 97.0055 202.496L122.888 219.632C122.888 219.632 45.8973 284.546 40.7414 288.226C34.0437 293.006 32.1556 305.098 30.8753 313.297C30.6772 314.566 30.4937 315.741 30.3092 316.782C25.1172 316.023 24.6748 312.532 24.2083 308.852C23.6814 304.695 23.1239 300.297 15.6577 299.32C12.7732 298.943 9.87951 298.835 7.05243 298.731C-2.71285 298.369 -11.6838 298.036 -16.742 286.697C-17.5439 284.899 -16.8656 280.556 -11.4816 280.348C1.9317 279.828 22.5829 277.066 26.8253 274.48Z" fill="#B28B67"/>
<path fill-rule="evenodd" clip-rule="evenodd" d="M252.776 142.311L266.633 148.449C261.835 206.358 275.908 270.371 308.853 340.487L242.844 355.429C219.194 269.971 217.575 195.885 252.776 142.311Z" fill="#191847"/>
<path fill-rule="evenodd" clip-rule="evenodd" d="M133.996 248.885L223.929 306.873C223.929 306.873 241.491 210.991 275.612 158.058L251.081 136.537C207.733 156.962 174.592 195.153 133.996 248.885Z" fill="#DDE3E9"/>
<path fill-rule="evenodd" clip-rule="evenodd" d="M237.669 138.456L236.567 133.671C236.567 133.671 138.359 157.183 55.7588 263.403L96.7934 290.21C100.312 283.945 103.958 277.891 107.701 272.046L169.398 312.193C169.398 312.193 226.957 200.617 248.458 165.432L254.496 142.472C254.496 142.472 248.471 138.142 245.507 136.056L243.816 134.956C241.834 136.06 239.783 137.227 237.669 138.456Z" fill="#2F3676"/>
<path fill-rule="evenodd" clip-rule="evenodd" d="M104.599 276.975C116.57 257.618 129.651 240.472 142.805 225.483C130.917 246.491 118.841 270.668 116.885 285.179L104.599 276.975Z" fill="black" fill-opacity="0.1"/>
<path fill-rule="evenodd" clip-rule="evenodd" d="M144.929 245.547L184.702 253.751L177.285 265.778L144.929 245.547Z" fill="white" fill-opacity="0.2"/>
</g>
<path fill-rule="evenodd" clip-rule="evenodd" d="M398.451 235.912C392.406 236.087 387.196 235.007 385.25 233.381C380.173 229.138 389.304 209.415 397.567 203.966C405.831 198.516 430.392 206.595 424.001 222.371C421.58 228.344 416.165 231.981 410.093 233.964L402.104 264.233L384.839 255.511L398.451 235.912Z" fill="#B28B67"/>
<path fill-rule="evenodd" clip-rule="evenodd" d="M395.685 188.961C396.674 187.945 398.245 187.434 399.827 187.834C400.211 187.931 400.584 188.079 400.935 188.268C401.061 188.336 401.081 188.386 401.179 188.337C401.252 188.301 401.322 188.16 401.374 188.101C401.535 187.917 401.709 187.743 401.896 187.583C402.537 187.036 403.342 186.67 404.203 186.452C405.813 186.044 407.675 186.134 409.327 186.801C410.231 187.167 411.036 187.719 411.739 188.374C412.103 188.714 412.438 189.078 412.754 189.454C412.85 189.567 413.116 190.022 413.246 190.066C413.389 190.114 413.803 189.956 413.948 189.936C415.744 189.7 417.588 190.171 419.266 191.015C421.16 191.968 422.949 192.956 424.038 194.752C424.268 195.132 424.473 195.525 424.656 195.922C424.752 196.131 424.841 196.343 424.92 196.556C424.968 196.685 425.012 196.815 425.053 196.945C425.12 197.167 425.073 197.205 425.324 197.198C426.285 197.171 427.262 197.419 428.105 197.955C428.606 198.274 429.052 198.667 429.451 199.091C429.587 199.235 429.85 199.673 430.026 199.764C430.201 199.853 430.693 199.811 430.903 199.843C432.035 200.012 433.128 200.456 434.084 201.11C435.071 201.785 435.932 202.67 436.58 203.626C436.891 204.085 437.135 204.544 437.259 205.059C437.312 205.281 437.349 205.506 437.425 205.726C437.47 205.854 437.599 206.027 437.592 206.158C437.596 206.08 438.98 206.268 439.104 206.298C439.768 206.457 440.363 206.786 440.865 207.243C441.809 208.103 442.407 209.279 442.828 210.39C443.044 210.961 443.191 211.546 443.272 212.132C443.311 212.413 443.335 212.693 443.345 212.973C443.35 213.109 443.323 213.262 443.351 213.396C443.388 213.568 443.452 213.603 443.603 213.745C444.368 214.466 444.959 215.337 445.275 216.276C445.595 217.225 445.62 218.212 445.387 219.123C445.373 219.177 445.28 219.381 445.3 219.424C445.327 219.482 445.515 219.556 445.58 219.596C445.806 219.738 446.023 219.891 446.232 220.054C446.617 220.354 446.969 220.69 447.28 221.056C448.491 222.48 448.979 224.268 448.83 225.934C448.673 227.682 447.838 229.36 446.456 230.468C446.233 230.647 445.992 230.809 445.735 230.947C445.577 231.032 445.547 231.018 445.54 231.185C445.532 231.372 445.583 231.582 445.59 231.771C445.612 232.39 445.541 232.999 445.397 233.585C445.161 234.547 444.808 235.506 444.191 236.288C443.905 236.651 443.559 236.973 443.15 237.22C442.942 237.346 442.718 237.453 442.483 237.538C442.361 237.582 442.236 237.619 442.108 237.652C442.035 237.67 441.949 237.675 441.881 237.703C441.716 237.77 441.742 237.66 441.711 237.863C441.667 238.147 441.722 238.475 441.712 238.767C441.701 239.067 441.678 239.366 441.645 239.663C441.579 240.265 441.48 240.861 441.318 241.438C441.007 242.545 440.444 243.61 439.437 244.269C439.006 244.551 438.498 244.734 437.955 244.803C437.69 244.837 437.417 244.844 437.143 244.826C437.002 244.816 436.843 244.763 436.741 244.836C436.632 244.913 436.613 245.166 436.575 245.294C436.237 246.41 435.79 247.536 434.943 248.373C434.162 249.144 433.046 249.614 431.853 249.701C429.54 249.868 427.149 248.611 425.678 246.832C425.295 246.368 424.969 245.867 424.717 245.341C423.07 246.051 420.939 244.948 419.584 243.843C417.895 242.465 416.935 240.555 416.8 238.602C414.97 239.285 412.65 237.621 412.496 235.822C412.458 235.381 412.521 234.947 412.647 234.539C412.713 234.325 412.832 234.134 412.905 233.925C412.998 233.658 412.926 233.319 412.935 233.02C412.951 232.44 413.058 231.885 413.303 231.371C413.43 231.103 413.597 230.862 413.756 230.612C413.899 230.387 413.932 230.127 414.004 229.871C414.458 230.182 415.108 230.362 415.629 230.466C416.139 230.568 416.718 230.458 417.18 230.324C418.251 230.013 419.138 229.349 419.881 228.619C421.51 227.016 422.373 224.553 420.661 222.384C419.864 221.373 416.746 219.832 415.387 219.463C413.957 219.076 411.249 220.854 411.06 221.054C410.944 221.178 410.878 221.37 410.676 221.391C410.233 221.438 409.859 220.791 409.7 220.485C409.425 219.956 409.325 219.383 409.268 218.825C409.146 217.61 409.168 216.383 409.338 215.203C409.469 214.293 409.703 213.404 409.746 212.475C409.789 211.552 409.601 210.614 409.003 209.783C408.352 208.878 407.463 208.132 406.641 207.358C405.826 206.592 405.059 205.769 404.62 204.782C404.523 204.565 404.435 204.342 404.383 204.117C404.341 203.939 404.357 203.646 404.238 203.487C404.054 203.241 403.536 203.388 403.265 203.4C401.931 203.463 400.658 203.84 399.517 204.377C398.383 204.911 397.391 205.474 396.44 206.226C395.735 206.784 395.06 207.611 394.156 207.907C393.752 208.039 391.647 207.198 391.105 206.64C390.563 206.082 390.124 205.113 390.09 204.624C390.055 204.124 390.211 203.671 390.516 203.294C390.695 203.071 390.925 202.895 391.109 202.681C391.264 202.501 391.408 202.33 391.616 202.198C392.01 201.947 392.508 201.874 393.011 201.989C392.728 201.381 392.561 200.739 392.54 200.103C392.518 199.443 392.594 198.69 392.808 198.083C392.983 197.59 393.303 197.149 393.792 196.893C394.305 196.625 394.983 196.619 395.581 196.59C395.104 195.744 394.782 194.844 394.601 193.934C394.249 192.164 394.435 190.245 395.685 188.961Z" fill="#191847"/>
<path fill-rule="evenodd" clip-rule="evenodd" d="M383 324.1L333.918 424.876L300.999 510.074H288L338.326 324.1L383 324.1Z" fill="#997659"/>
<path fill-rule="evenodd" clip-rule="evenodd" d="M392.883 324.1C393.406 359.513 401.028 407.192 402.246 409.399C403.464 411.607 486.324 465.544 486.324 465.544L477.371 473.316C477.371 473.316 379.603 427.072 375.079 420.904C370.555 414.736 355.826 357.979 344 324.1H392.883Z" fill="#B28B67"/>
<path fill-rule="evenodd" clip-rule="evenodd" d="M483.993 463.898C484.365 462.93 485.395 462.362 486.38 462.671C487.827 463.126 489.771 463.832 490.616 464.564C492.044 465.802 494.283 468.757 494.283 468.757C492.536 470.78 462.889 505.113 462.889 505.113C462.889 505.113 457.828 503.204 460.159 499.886C462.489 496.568 463.986 494.334 463.986 494.334L472.398 472.114C472.575 471.646 473.074 471.385 473.556 471.507L476.525 472.259C476.525 472.259 480.046 470.368 481.572 468.601C482.492 467.536 483.41 465.414 483.993 463.898Z" fill="#E4E4E4"/>
<path fill-rule="evenodd" clip-rule="evenodd" d="M303.787 505.149C304.771 504.792 305.882 505.207 306.309 506.163C307.035 507.791 308 510.211 308 511.579C308 513.774 307.099 517.983 307.099 517.983C303.961 517.983 250.697 517.983 250.697 517.983C250.697 517.983 248.498 512.087 253.235 511.617C257.972 511.147 261.105 510.768 261.105 510.768L287.428 501.248C287.903 501.077 288.431 501.286 288.66 501.736L290.337 505.035C290.337 505.035 294.722 506.695 297.463 506.695C299.207 506.695 301.991 505.8 303.787 505.149Z" fill="#E4E4E4"/>
<path fill-rule="evenodd" clip-rule="evenodd" d="M350 501.299L288.196 495.857L334 324.1H389.356L350 501.299Z" fill="#69A1AC"/>
<path fill-rule="evenodd" clip-rule="evenodd" d="M473.54 453.004L433 491.932C433 491.932 368.95 435.183 358.317 417.874C347.685 400.566 339.201 324.1 339.201 324.1H401.522C401.522 324.1 406.156 391.371 407.769 394.502C409.383 397.632 473.54 453.004 473.54 453.004Z" fill="#89C5CC"/>
<path fill-rule="evenodd" clip-rule="evenodd" d="M281.185 272.361L311.681 292.381L298.408 301.052L277.147 279.331C265.124 274.463 259.723 271.46 260.943 270.323C261.973 269.365 263.405 269.64 264.724 269.893C265.752 270.09 266.711 270.274 267.358 269.852C268.835 268.887 266.818 264.331 264.691 260.061C262.564 255.79 265.311 256.583 266.836 257.398C271.688 261.189 276.471 266.177 281.185 272.361ZM433.088 323.244L452.24 324.538C458.033 355.775 461.809 373.037 463.568 376.325C464.858 378.736 474.506 386.467 481.209 390.969C483.9 392.776 482.759 394.763 481.732 395.239C475.25 398.243 470.533 395.509 465.4 392.533C463.913 391.671 462.392 390.79 460.783 390.021C456.618 388.031 454.824 389.645 453.129 391.171C451.628 392.521 450.205 393.803 447.281 392.451C447.543 391.968 447.852 391.43 448.185 390.85C450.339 387.099 453.515 381.567 451.717 377.476C450.795 375.377 444.585 357.299 433.088 323.244Z" fill="#B28B67"/>
<path fill-rule="evenodd" clip-rule="evenodd" d="M393.61 247.959L385.958 244.792C364.98 255.735 349.112 290.433 336.408 292.444C324.397 294.345 309.997 286.168 293.054 275.736L284.681 285.717C297.442 306.094 329.694 328.537 346.019 324.184C372.118 317.223 388.297 273.602 393.61 247.959Z" fill="#16161D"/>
<path fill-rule="evenodd" clip-rule="evenodd" d="M408.624 341.765C408.624 341.765 362.465 330.637 340.717 325.394C337.614 324.646 339.129 320.876 340.048 319.01C350.646 297.478 376.698 277.794 384.415 245.368L404.641 247.408C415.429 274.062 414.367 303.419 408.624 341.765Z" fill="#DDE3E9"/>
<path fill-rule="evenodd" clip-rule="evenodd" d="M406.274 246.023L409.793 246.872C447.878 281.096 465.558 324.169 462.834 376.093L448.086 375.112C439.743 361.155 430.377 338.01 419.989 305.678C422.299 324.46 422.883 344.16 420.038 361.631L360.237 347.162C354.953 318.091 399.678 245.352 399.678 245.352L405.883 246.853L406.274 246.023Z" fill="#16161D"/>
<defs>
<filter id="filter0_d" x="0.533203" y="27.5936" width="333.789" height="491.411" filterUnits="userSpaceOnUse" color-interpolation-filters="sRGB">
<feFlood flood-opacity="0" result="BackgroundImageFix"/>
<feColorMatrix in="SourceAlpha" type="matrix" values="0 0 0 0 0 0 0 0 0 0 0 0 0 0 0 0 0 0 127 0"/>
<feOffset dx="-10" dy="22"/>
<feGaussianBlur stdDeviation="17"/>
<feColorMatrix type="matrix" values="0 0 0 0 0 0 0 0 0 0 0 0 0 0 0 0 0 0 0.1 0"/>
<feBlend mode="normal" in2="BackgroundImageFix" result="effect1_dropShadow"/>
<feBlend mode="normal" in="SourceGraphic" in2="effect1_dropShadow" result="shape"/>
</filter>
</defs>
</svg>
