<svg width="341" height="257" viewBox="0 0 341 257" fill="none" xmlns="http://www.w3.org/2000/svg">
<g clip-path="url(#clip0)">
<path opacity="0.1" d="M145.072 9.87922C131.21 4.20101 116.563 -0.542125 101.61 0.0541547C79.624 0.928247 58.5189 14.2531 48.1833 33.8185C39.4142 50.3958 38.3322 69.8257 34.5547 88.2222C29.9059 110.884 20.9858 132.428 11.4617 153.491C6.34743 164.807 0.950055 176.367 0.110255 188.77C-1.05351 205.991 7.11488 223.151 19.9258 234.606C32.7367 246.06 49.7497 252.104 66.8257 253.422C75.9125 254.124 85.4082 253.473 93.4791 249.211C102.019 244.702 108.243 236.554 116.817 232.109C124.762 227.989 134.057 227.413 142.977 227.948C154.624 228.647 166.121 231.111 177.129 235.266C189.597 239.982 201.191 246.816 213.615 251.6C226.039 256.383 239.954 259.053 252.667 255.062C264.619 251.312 274.055 242.205 282.563 232.983C296.475 217.931 309.227 201.684 320.691 184.403C328.369 172.813 335.515 160.586 338.909 147.078C345.4 121.251 336.468 92.115 316.655 74.4773C300.24 59.8651 278.21 53.5228 256.646 49.6741C236.981 46.1642 214.244 45.9474 196.142 36.7999C178.881 28.0658 163.173 17.2988 145.072 9.87922Z" fill="#492F86"/>
<path d="M198.967 209.714V222.023H202.216L201.587 208.81L198.967 209.714Z" fill="#AAABB0"/>
<path d="M150.161 207.231V219.539H153.413L152.784 206.326L150.161 207.231Z" fill="#AAABB0"/>
<path d="M206.934 189.163C206.934 187.915 205.995 186.903 204.837 186.903C203.68 186.903 202.741 187.915 202.741 189.163V206.553C202.741 207.801 203.68 208.813 204.837 208.813C205.995 208.813 206.934 207.801 206.934 206.553V189.163Z" fill="#AAABB0"/>
<path d="M153.149 184.305C153.149 183.057 152.21 182.045 151.052 182.045C149.895 182.045 148.956 183.057 148.956 184.305V206.55C148.956 207.798 149.895 208.81 151.052 208.81C152.21 208.81 153.149 207.798 153.149 206.55V184.305Z" fill="#AAABB0"/>
<path d="M212.284 55.7896C212.284 55.7896 216.477 53.8686 217.106 55.7896C217.735 57.7105 218.05 74.3115 218.05 74.3115H214.064L212.284 55.7896Z" fill="#AAABB0"/>
<path d="M166.362 55.7896C166.362 55.7896 162.166 53.8686 161.537 55.7896C160.908 57.7105 160.594 74.3115 160.594 74.3115H164.579L166.362 55.7896Z" fill="#AAABB0"/>
<path d="M166.988 39.3002L166.359 53.079H169.19V38.9614L166.988 39.3002Z" fill="#AAABB0"/>
<path d="M164.579 74.3115L165.419 54.4344C165.419 54.4344 165.104 50.03 175.062 51.3852C185.02 52.7404 214.171 55.4508 214.171 55.4508V74.3115H164.579Z" fill="#33323D"/>
<path d="M204.421 178.999L202.848 209.375C202.848 209.375 179.78 223.154 151.787 210.053L154.303 178.094L204.421 178.999Z" fill="#33323D"/>
<path d="M182.507 59.401L183.029 79.0511H215.533L213.646 53.0791L182.507 59.401Z" fill="#444053"/>
<path d="M185.81 166.01H155.193V207.793H185.81V166.01Z" fill="#4C4981"/>
<path d="M174.54 183.065C174.54 183.065 178.943 179.338 179.676 180.466C180.409 181.594 177.059 186.453 175.694 185.887C174.329 185.321 174.54 183.065 174.54 183.065Z" fill="#FFB9B9"/>
<path opacity="0.5" d="M296.755 73.1797H95.7781V181.594H296.755V73.1797Z" fill="#492F86"/>
<path d="M164.683 38.511C164.683 38.511 163.11 22.6994 164.683 20.7819C166.255 18.8643 192.676 0.67774 217.106 22.0218C217.106 22.0218 219.411 22.137 218.993 27.7814C218.746 31.3537 218.763 34.9415 219.043 38.511C219.043 38.511 166.466 42.5766 164.683 38.511Z" fill="#33323D"/>
<path opacity="0.1" d="M164.683 38.511C164.683 38.511 163.11 22.6994 164.683 20.7819C166.255 18.8643 192.676 0.67774 217.106 22.0218C217.106 22.0218 219.411 22.137 218.993 27.7814C218.746 31.3537 218.763 34.9415 219.043 38.511C219.043 38.511 166.466 42.5766 164.683 38.511Z" fill="black"/>
<path d="M164.683 40.5437C164.683 40.5437 163.11 24.7322 164.683 22.8146C166.255 20.897 192.676 2.71045 217.106 24.0546C217.106 24.0546 219.411 24.1698 218.993 29.8141C218.746 33.3864 218.763 36.9742 219.043 40.5437C219.043 40.5437 166.466 44.6093 164.683 40.5437Z" fill="#33323D"/>
<path d="M219.937 33.3171C219.937 33.3171 221.613 40.093 221.091 41.2212C220.569 42.3494 220.663 45.5138 220.663 45.5138C220.663 45.5138 220.776 47.5465 219.937 47.7701C219.097 47.9938 218.364 48.1089 219.043 48.7865C219.723 49.4641 219.043 50.4805 219.043 50.4805C219.043 50.4805 218.675 52.0627 219.043 53.0791C219.411 54.0955 216.892 54.5189 217.106 55.7894C217.32 57.0599 218.024 60.6444 217.106 60.7596C216.187 60.8747 217.42 65.2757 216.593 65.2757C215.766 65.2757 215.178 73.1798 215.178 73.1798C215.178 73.1798 209.359 67.8743 205.481 69.3412C205.481 69.3412 205.795 64.9369 207.053 63.3547C208.312 61.7726 207.931 57.7104 207.931 57.7104L214.171 37.4945L219.937 33.3171Z" fill="#4C4981"/>
<path d="M188.798 126.75C187.436 128.373 185.967 119.706 185.967 119.706C185.967 119.706 182.089 125.466 179.573 121.627C177.83 118.968 179.205 111.433 180.202 107.059C180.648 105.115 181.026 103.793 181.026 103.793L186.687 102.777C186.687 102.777 186.706 104.105 186.832 105.718C187.002 107.896 187.37 110.6 188.153 111.247C189.534 112.368 190.163 125.114 188.798 126.75Z" fill="#AE6E79"/>
<path opacity="0.1" d="M185.864 25.2979C185.864 25.2979 176.006 25.1861 173.597 30.8304C171.187 36.4748 171.081 38.3991 170.137 39.3003C169.193 40.2015 180.41 44.948 180.41 44.948L180.935 64.3712C180.935 64.3712 183.137 61.9691 186.7 63.0566C190.264 64.1442 194.774 63.0566 194.774 63.0566C194.774 63.0566 194.563 62.6467 197.501 63.0566C200.439 63.4666 209.768 58.1611 209.768 58.1611C209.768 58.1611 209.922 49.6641 209.714 47.8549C209.507 46.0457 216.37 32.7514 216.37 32.7514C216.37 32.7514 221.717 27.2189 216.162 25.2979C216.162 25.2979 214.197 22.1064 209.139 22.1369C204.081 22.1674 185.864 25.2979 185.864 25.2979Z" fill="black"/>
<path d="M185.864 24.959C185.864 24.959 176.006 24.8472 173.597 30.4916C171.187 36.1359 171.081 38.0602 170.137 38.9614C169.193 39.8626 180.41 44.6092 180.41 44.6092L180.935 64.0323C180.935 64.0323 183.137 61.6302 186.7 62.7178C190.264 63.8053 194.774 62.7178 194.774 62.7178C194.774 62.7178 194.563 62.3078 197.501 62.7178C200.439 63.1277 209.768 57.8222 209.768 57.8222C209.768 57.8222 213.435 51.3851 213.228 49.5793C213.02 47.7735 220.566 34.1065 220.566 34.1065C220.566 34.1065 221.72 26.88 216.162 24.959C216.162 24.959 214.197 21.7676 209.139 21.7981C204.081 21.8286 185.864 24.959 185.864 24.959Z" fill="#4C4981"/>
<path opacity="0.1" d="M186.857 105.707C184.696 104.982 181.306 106.582 180.227 107.063C180.673 105.118 181.051 103.797 181.051 103.797L186.712 102.78C186.712 102.78 186.722 104.108 186.857 105.707Z" fill="black"/>
<path d="M173.175 38.9614H170.137C170.137 38.9614 169.507 45.8525 170.137 47.8853C170.766 49.9181 171.08 49.6233 170.869 51.1276C170.659 52.6318 172.338 54.9356 172.338 54.9356C172.338 54.9356 172.546 60.6138 173.596 62.7279C174.647 64.842 172.442 74.3215 172.442 74.3215C173.043 75.9579 173.933 77.4535 175.062 78.7258C176.845 80.6434 177.789 87.7581 177.264 90.4685C176.739 93.1788 178.733 94.1952 178.733 94.1952C178.733 94.1952 179.572 106.846 179.887 106.846C180.202 106.846 186.281 103.458 188.169 106.392L186.7 94.761L186.807 72.2887C186.807 72.2887 184.813 69.4632 185.863 66.9798C186.914 64.4964 185.023 58.6217 185.023 58.6217L182.296 45.5239L173.175 38.9614Z" fill="#4C4981"/>
<path d="M154.303 217.507C154.303 217.507 149.9 216.49 149.796 217.507C149.692 218.523 144.553 228.914 150.95 231.963C157.348 235.012 174.433 241.561 202.219 233.091C202.219 233.091 203.999 233.769 203.581 229.591C203.162 225.414 203.163 220.783 203.163 220.783C203.163 220.783 198.967 219.539 195.821 219.993C192.676 220.447 165.312 226.431 154.303 217.507Z" fill="#33323D"/>
<path opacity="0.1" d="M154.303 217.507C154.303 217.507 149.9 216.49 149.796 217.507C149.692 218.523 144.553 228.914 150.95 231.963C157.348 235.012 174.433 241.561 202.219 233.091C202.219 233.091 203.999 233.769 203.581 229.591C203.162 225.414 203.163 220.783 203.163 220.783C203.163 220.783 198.967 219.539 195.821 219.993C192.676 220.447 165.312 226.431 154.303 217.507Z" fill="black"/>
<path d="M154.303 216.151C154.303 216.151 149.9 215.135 149.796 216.151C149.692 217.168 144.553 227.559 150.95 230.608C157.348 233.657 174.433 240.206 202.219 231.736C202.219 231.736 203.999 232.414 203.581 228.236C203.162 224.059 203.163 219.428 203.163 219.428C203.163 219.428 198.967 218.184 195.821 218.638C192.676 219.092 165.312 225.075 154.303 216.151Z" fill="#33323D"/>
<path d="M179.982 43.0204C179.711 44.6771 179.098 46.2694 179.003 47.9464C178.909 49.6235 179.51 51.5309 180.947 52.1882C181.348 52.3172 181.737 52.4874 182.108 52.6964C182.661 53.0995 182.888 53.8584 183.004 54.5699C183.159 55.4884 183.196 56.4254 183.114 57.3548C183.036 58.2899 182.85 59.2961 183.278 60.1126C184.03 61.5593 185.989 61.3458 187.48 60.9393L186.967 65.2182C186.927 65.557 186.901 65.9399 187.131 66.1703C187.239 66.2526 187.362 66.3106 187.492 66.3408C187.621 66.3711 187.755 66.373 187.886 66.3464C189.182 66.2584 190.515 66.0652 191.626 65.3301C192.736 64.5949 193.563 63.2261 193.352 61.8472C193.107 60.2481 191.572 58.9776 191.78 57.3717C191.94 56.1284 193.069 55.339 193.812 54.3836C195.155 52.6354 195.227 49.9792 194.173 48.0007C193.12 46.0221 191.085 44.7957 188.99 44.572C187.829 44.4467 186.621 44.5992 185.53 44.1655C185.15 44.0155 184.808 43.7729 184.53 43.4567C184.251 43.1405 184.045 42.7592 183.926 42.3428" fill="#444053"/>
<path d="M143.402 193.679L144.499 191.104C144.499 191.104 150.425 185.158 151.787 184.742C153.149 184.325 158.707 182.509 159.547 182.509C160.386 182.509 175.695 181.604 175.695 181.604L177.475 186.124L158.263 190.667L151.787 195.749L143.402 193.679Z" fill="#767D9F"/>
<path d="M189.559 124.338L188.556 132.655L188.169 135.857L183.662 136.535C183.662 136.535 183.174 135.41 182.485 133.682C180.394 128.437 176.456 117.623 178.739 115.756C181.774 113.269 182.514 121.516 182.514 121.516L185.973 119.707L189.559 124.338Z" fill="#FFB9B9"/>
<path d="M188.807 139.811H166.045V176.851H188.807V139.811Z" fill="white"/>
<path opacity="0.1" d="M188.807 139.811H166.045V176.851H188.807V139.811Z" fill="black"/>
<path d="M199.038 141.816L176.52 138.23L171.491 174.872L194.009 178.458L199.038 141.816Z" fill="white"/>
<path d="M190.23 143.571L178.64 141.725L176.051 160.584L187.642 162.43L190.23 143.571Z" fill="#492F86"/>
<path d="M188.851 168.187L174.809 165.951L174.246 170.046L188.289 172.282L188.851 168.187Z" fill="#492F86"/>
<path opacity="0.1" d="M194.774 46.3575C202.04 46.3575 207.931 40.0126 207.931 32.1857C207.931 24.3589 202.04 18.0139 194.774 18.0139C187.508 18.0139 181.617 24.3589 181.617 32.1857C181.617 40.0126 187.508 46.3575 194.774 46.3575Z" fill="black"/>
<path d="M194.774 46.0187C202.04 46.0187 207.931 39.6737 207.931 31.8469C207.931 24.02 202.04 17.675 194.774 17.675C187.508 17.675 181.617 24.02 181.617 31.8469C181.617 39.6737 187.508 46.0187 194.774 46.0187Z" fill="#AE6E79"/>
<path d="M183.926 42.3496C183.836 41.9845 183.869 41.5973 184.017 41.2552C184.517 40.1338 185.942 40.0356 187.096 40.0932C189.811 40.2287 192.789 40.2456 194.912 38.3992C195.793 37.6403 196.778 35.7329 198.058 36.0954C199.196 36.4172 199.671 38.0807 200.857 38.45C201.716 38.7177 202.606 38.2908 203.48 38.1112C204.738 37.8436 206.028 38.0672 207.305 38.0773C208.582 38.0875 209.969 37.8266 210.84 36.8204C212.017 35.4652 211.825 33.3478 211.721 31.4912C211.592 29.0929 211.743 26.6867 212.171 24.329C212.599 21.9846 213.256 19.3623 212.054 17.3532C210.91 15.439 208.538 14.9139 206.918 13.4469C205.402 12.0917 204.6 9.92006 202.999 8.66313C200.983 7.08096 198.243 7.30795 195.765 7.58237L190.386 8.19898C188.999 8.35822 187.556 8.53778 186.414 9.42881C184.354 11.0347 184.071 14.3718 182.12 16.1302C181.252 16.9094 180.142 17.2956 179.151 17.8784C178.16 18.4611 177.204 19.3826 177.091 20.5887C176.997 21.6051 177.506 22.5436 177.755 23.5227C178.343 25.8604 177.424 28.2658 176.836 30.6205C176.248 32.9751 176.135 35.8345 177.843 37.3964C178.189 37.7148 178.591 37.9588 178.928 38.2908C180.082 39.4258 180.24 41.3399 179.972 42.9933" fill="#444053"/>
<path d="M195.847 49.5487C196.02 49.5487 196.161 49.1695 196.161 48.7017C196.161 48.2339 196.02 47.8547 195.847 47.8547C195.673 47.8547 195.532 48.2339 195.532 48.7017C195.532 49.1695 195.673 49.5487 195.847 49.5487Z" fill="#444053"/>
<path d="M195.847 53.0792C196.02 53.0792 196.161 52.7 196.161 52.2322C196.161 51.7645 196.02 51.3853 195.847 51.3853C195.673 51.3853 195.532 51.7645 195.532 52.2322C195.532 52.7 195.673 53.0792 195.847 53.0792Z" fill="#444053"/>
<path d="M188.87 126.727C189.207 126.31 189.43 125.239 189.559 123.826L185.81 118.792C185.81 118.792 187.398 128.553 188.87 126.727Z" fill="#AE6E79"/>
<path opacity="0.1" d="M193.098 209.941C193.098 209.941 186.945 220.186 167.724 219.089C149.617 218.072 140.778 208.474 141.2 205.086C141.621 201.698 140.045 193.452 143.924 191.081C146.172 189.708 149.132 190.522 151.221 191.45C151.942 191.765 152.732 191.854 153.499 191.706C154.265 191.558 154.977 191.179 155.552 190.613C157.461 188.76 161.022 186.673 166.642 188.316C167.365 188.524 168.128 188.509 168.844 188.272C171.184 187.503 176.754 186.168 180.796 189.132C181.435 189.607 182.186 189.875 182.961 189.907C183.736 189.939 184.504 189.733 185.174 189.312L185.231 189.275C187.118 188.031 195.925 199.777 195.925 199.777C195.925 199.777 196.347 208.813 193.098 209.941Z" fill="black"/>
<path d="M193.098 210.28C193.098 210.28 186.945 220.525 167.724 219.428C149.617 218.411 140.778 208.813 141.2 205.425C141.621 202.037 140.045 193.791 143.924 191.419C146.172 190.047 149.132 190.86 151.221 191.789C151.942 192.104 152.732 192.193 153.499 192.045C154.265 191.897 154.977 191.518 155.552 190.952C157.461 189.099 161.022 187.012 166.642 188.655C167.365 188.863 168.128 188.847 168.844 188.611C171.184 187.842 176.754 186.507 180.796 189.471C181.435 189.946 182.186 190.214 182.961 190.246C183.736 190.278 184.504 190.071 185.174 189.651L185.231 189.614C187.118 188.37 195.925 200.116 195.925 200.116C195.925 200.116 196.347 209.152 193.098 210.28Z" fill="#767D9F"/>
<path opacity="0.1" d="M167.724 214.291C174.645 214.291 180.255 208.248 180.255 200.794C180.255 193.339 174.645 187.296 167.724 187.296C160.804 187.296 155.193 193.339 155.193 200.794C155.193 208.248 160.804 214.291 167.724 214.291Z" fill="black"/>
<path d="M167.724 214.63C174.645 214.63 180.255 208.587 180.255 201.133C180.255 193.678 174.645 187.635 167.724 187.635C160.804 187.635 155.193 193.678 155.193 201.133C155.193 208.587 160.804 214.63 167.724 214.63Z" fill="#FFB9B9"/>
<path d="M164.132 189.465C162.818 189.847 161.522 190.579 160.88 191.782C160.493 192.507 160.358 193.378 159.798 193.981C159.005 194.838 157.669 194.855 156.596 195.336C155.524 195.817 154.816 197.511 155.866 198.046C154.772 198.107 153.96 199.195 153.825 200.276C153.69 201.356 154.07 202.434 154.438 203.464C155.64 206.797 156.933 210.277 159.581 212.648C163.896 216.517 170.401 216.338 176.198 215.928C176.671 215.945 177.141 215.828 177.56 215.589C178.189 215.142 178.267 214.285 178.371 213.533C178.808 210.321 180.425 207.404 181.482 204.338C182.539 201.272 182.973 197.67 181.193 194.956C178.572 190.932 168.542 188.177 164.132 189.465Z" fill="#B96B6B"/>
<path opacity="0.1" d="M188.556 132.655L188.169 135.857L183.662 136.535C183.662 136.535 183.174 135.41 182.485 133.682L188.483 132.469L188.556 132.655Z" fill="black"/>
<path d="M193.305 203.392L195.928 200.116L195.403 182.048C195.661 180.745 195.837 179.424 195.928 178.095C196.032 176.174 194.617 171.885 194.617 171.885C194.836 171.026 195.134 170.193 195.507 169.398C196.136 168.043 194.62 164.993 194.62 164.993C194.62 164.993 192.362 157.089 193.305 153.136C194.249 149.182 193.076 146.925 193.076 146.925C193.076 146.925 192.154 142.521 192.258 140.715C192.362 138.91 190.16 137.212 190.16 137.212L188.483 132.808L181.774 134.163V149.409C181.774 149.409 182.193 163.977 181.774 166.803C181.356 169.628 182.611 172.335 182.611 172.335C182.611 172.335 181.878 176.512 182.507 178.095C183.136 179.677 184.394 183.515 184.394 183.515C184.161 184.887 184.233 186.299 184.605 187.635C185.234 189.614 184.605 190.742 184.605 190.742L193.305 203.392Z" fill="#767D9F"/>
<g opacity="0.1">
<path opacity="0.1" d="M212.18 23.2144C211.825 25.1976 211.666 27.2156 211.705 29.2348C211.732 27.5558 211.895 25.8826 212.193 24.2342C212.469 22.7299 212.822 21.1105 212.746 19.6096C212.63 20.8232 212.441 22.0273 212.18 23.2144Z" fill="black"/>
<path opacity="0.1" d="M178.937 37.1998C178.601 36.861 178.198 36.6239 177.852 36.302C176.934 35.4584 176.547 34.2354 176.471 32.9141C176.38 34.608 176.701 36.2478 177.852 37.3184C178.198 37.6403 178.601 37.8842 178.937 38.2162C179.641 38.9661 180.049 39.9794 180.076 41.0452C180.167 39.6222 179.9 38.1417 178.937 37.1998Z" fill="black"/>
<path opacity="0.1" d="M177.934 24.5494C177.989 23.8338 177.931 23.1134 177.764 22.4184C177.582 21.6933 177.255 20.9852 177.135 20.2568C177.135 20.3348 177.11 20.4161 177.1 20.5008C177.009 21.5172 177.519 22.4556 177.764 23.4347C177.854 23.7994 177.911 24.1727 177.934 24.5494Z" fill="black"/>
<path opacity="0.1" d="M210.85 35.7058C209.979 36.7221 208.591 36.9729 207.314 36.9627C206.037 36.9525 204.745 36.7289 203.49 37C202.615 37.1897 201.725 37.6132 200.867 37.3388C199.681 36.9695 199.206 35.306 198.07 34.9841C196.778 34.6182 195.793 36.5256 194.925 37.2845C192.802 39.114 189.823 39.0971 187.109 38.9785C185.955 38.9209 184.53 39.0192 184.033 40.144C183.881 40.4851 183.849 40.8736 183.942 41.2383L180.098 41.8888C180.083 42.2296 180.049 42.5691 179.994 42.9052L183.942 42.2276C183.849 41.8629 183.881 41.4743 184.033 41.1333C184.53 40.0085 185.955 39.9102 187.109 39.9678C189.823 40.1033 192.802 40.1203 194.925 38.2738C195.806 37.5149 196.79 35.6075 198.07 35.9734C199.206 36.2919 199.681 37.9587 200.867 38.328C201.725 38.5923 202.615 38.1688 203.49 37.9892C204.748 37.7182 206.037 37.9418 207.314 37.952C208.591 37.9621 209.979 37.7013 210.85 36.695C211.721 35.6888 211.847 34.188 211.793 32.7244C211.756 33.8593 211.539 34.9096 210.85 35.7058Z" fill="black"/>
</g>
<g opacity="0.1">
<path opacity="0.1" d="M181.734 51.978C181.363 51.7679 180.974 51.5977 180.573 51.4698C179.89 51.1357 179.348 50.5387 179.054 49.7961C179.29 50.965 179.887 52.0288 180.887 52.4862C181.289 52.614 181.678 52.7843 182.048 52.9944C182.285 53.1746 182.476 53.4156 182.605 53.6957C182.479 53.0316 182.249 52.354 181.734 51.978Z" fill="black"/>
<path opacity="0.1" d="M187.106 60.2209C185.656 60.6173 183.762 60.824 182.967 59.4993C182.991 59.8185 183.077 60.1287 183.218 60.4106C183.898 61.715 185.558 61.6709 186.971 61.3491L187.106 60.2209Z" fill="black"/>
<path opacity="0.1" d="M192.981 61.1492C193.182 62.5247 192.352 63.8968 191.251 64.6184C190.15 65.3401 188.807 65.54 187.511 65.6348C187.305 65.6635 187.096 65.638 186.901 65.5603C186.842 65.7035 186.823 65.8622 186.846 66.0169C186.87 66.1716 186.934 66.3156 187.032 66.4314C187.131 66.5471 187.258 66.6295 187.399 66.6686C187.54 66.7076 187.688 66.7016 187.826 66.6512C189.122 66.5631 190.455 66.37 191.566 65.6348C192.676 64.8996 193.506 63.5309 193.292 62.152C193.232 61.8039 193.127 61.4664 192.981 61.1492Z" fill="black"/>
<path opacity="0.1" d="M194.378 48.8848C194.57 49.7085 194.584 50.5686 194.421 51.3994C194.257 52.2302 193.92 53.0098 193.434 53.6787C192.692 54.6477 191.563 55.4235 191.402 56.6669C191.349 57.2385 191.458 57.8142 191.717 58.3168C191.688 58.1067 191.688 57.8934 191.717 57.6833C191.877 56.4399 193.006 55.6505 193.749 54.6951C194.969 53.1062 195.139 50.7651 194.378 48.8848Z" fill="black"/>
</g>
<g opacity="0.1">
<path opacity="0.1" d="M156.599 195.858C157.669 195.38 159.005 195.363 159.801 194.503C160.361 193.899 160.496 193.029 160.883 192.307C161.512 191.101 162.818 190.373 164.132 189.99C168.536 188.702 178.576 191.453 181.193 195.441C181.96 196.647 182.378 198.072 182.394 199.534C182.495 197.846 182.073 196.169 181.196 194.767C178.579 190.779 168.548 188.028 164.136 189.316C162.821 189.698 161.525 190.427 160.886 191.633C160.5 192.355 160.364 193.225 159.804 193.828C159.009 194.685 157.672 194.702 156.602 195.184C155.788 195.546 155.184 196.617 155.404 197.335C155.492 197.01 155.644 196.71 155.851 196.454C156.057 196.199 156.312 195.996 156.599 195.858Z" fill="black"/>
<path opacity="0.1" d="M153.831 200.781C153.963 199.696 154.775 198.612 155.873 198.551C155.757 198.5 155.654 198.421 155.571 198.32C155.488 198.22 155.426 198.101 155.391 197.972C154.974 198.139 154.607 198.426 154.33 198.801C154.052 199.177 153.876 199.627 153.819 200.103C153.789 200.379 153.789 200.657 153.819 200.933C153.831 200.882 153.831 200.831 153.831 200.781Z" fill="black"/>
</g>
<path d="M220.459 78.0042H191.836V118.209H220.459V78.0042Z" fill="white"/>
<path opacity="0.1" d="M220.459 78.0042H191.836V118.209H220.459V78.0042Z" fill="black"/>
<path d="M231.394 80.3629L203.186 85.5894L209.514 125.212L237.722 119.986L231.394 80.3629Z" fill="white"/>
<path d="M216.65 111.372L210.023 112.6L211.51 121.909L218.137 120.681L216.65 111.372Z" fill="#492F86"/>
<path d="M225.821 109.671L219.194 110.899L220.68 120.208L227.308 118.98L225.821 109.671Z" fill="#492F86"/>
<path d="M232.302 96.0331L209.06 100.332L210.551 109.683L233.793 105.384L232.302 96.0331Z" fill="#492F86"/>
<path d="M230.365 84.8722L207.123 89.1711L207.455 91.2574L230.697 86.9585L230.365 84.8722Z" fill="#492F86"/>
<path d="M231.127 88.7101L207.885 93.009L208.217 95.0953L231.459 90.7964L231.127 88.7101Z" fill="#492F86"/>
<path d="M207.931 67.0815C207.931 67.0815 194.774 81.311 201.379 84.9259C207.984 88.5408 212.284 72.8987 212.284 72.8987L213.328 69.3413L207.931 67.0815Z" fill="#AE6E79"/>
<path opacity="0.1" d="M206.78 65.8246L205.154 69.6937C205.154 69.6937 213.174 70.9066 214.851 73.5187L213.857 66.692L212.677 63.7783L206.78 65.8246Z" fill="black"/>
<path d="M207.094 65.4858L205.468 69.3548C205.468 69.3548 213.489 70.5677 215.165 73.1798L214.171 66.3531L212.992 63.4395L207.094 65.4858Z" fill="#4C4981"/>
<path d="M255.645 136.623L255.472 136.751L255.711 136.867L255.969 136.843L256.001 136.65L255.645 136.623Z" fill="#464A5F"/>
<path opacity="0.1" d="M255.645 136.623L255.472 136.751L255.711 136.867L255.969 136.843L256.001 136.65L255.645 136.623Z" fill="black"/>
<path d="M255.645 136.623L255.469 136.745L255.331 136.562L255.416 136.413L255.494 136.385L255.645 136.623Z" fill="#9C9CA1"/>
<path opacity="0.1" d="M255.645 136.623L255.469 136.745L255.331 136.562L255.416 136.413L255.494 136.385L255.645 136.623Z" fill="black"/>
<path d="M286.605 113.208L273.728 93.1755C273.614 92.9967 273.468 92.8438 273.299 92.7258C273.13 92.6077 272.941 92.5266 272.743 92.4873C272.545 92.448 272.342 92.4511 272.145 92.4965C271.948 92.5419 271.761 92.6287 271.595 92.752L242.891 113.974C242.555 114.222 242.325 114.604 242.25 115.035C242.175 115.467 242.262 115.912 242.492 116.275L255.334 136.562L286.605 113.208Z" fill="#9C9CA1"/>
<path opacity="0.1" d="M286.605 113.208L273.728 93.1755C273.614 92.9967 273.468 92.8438 273.299 92.7258C273.13 92.6077 272.941 92.5266 272.743 92.4873C272.545 92.448 272.342 92.4511 272.145 92.4965C271.948 92.5419 271.761 92.6287 271.595 92.752L242.891 113.974C242.555 114.222 242.325 114.604 242.25 115.035C242.175 115.467 242.262 115.912 242.492 116.275L255.334 136.562L286.605 113.208Z" fill="black"/>
<path d="M286.919 113.256L274.042 93.2228C273.928 93.0439 273.782 92.891 273.613 92.7729C273.444 92.6548 273.254 92.5737 273.056 92.5344C272.858 92.4951 272.654 92.4982 272.457 92.5437C272.26 92.5892 272.073 92.676 271.907 92.7994L243.206 114.035C242.87 114.283 242.639 114.665 242.564 115.096C242.488 115.527 242.574 115.973 242.803 116.335L255.645 136.633L286.919 113.256Z" fill="#9C9CA1"/>
<path d="M297.683 117.216L286.988 113.517L255.711 136.87L266.575 140.698C266.819 140.783 267.077 140.806 267.33 140.765C267.582 140.724 267.823 140.62 268.032 140.461L297.771 117.843C297.826 117.81 297.871 117.758 297.899 117.697C297.927 117.635 297.937 117.565 297.928 117.497C297.918 117.429 297.89 117.366 297.846 117.316C297.802 117.265 297.745 117.231 297.683 117.216Z" fill="#464A5F"/>
<path opacity="0.1" d="M297.683 117.216L286.988 113.517L255.711 136.87L266.575 140.698C266.819 140.783 267.077 140.806 267.33 140.765C267.582 140.724 267.823 140.62 268.032 140.461L297.771 117.843C297.826 117.81 297.871 117.758 297.899 117.697C297.927 117.635 297.937 117.565 297.928 117.497C297.918 117.429 297.89 117.366 297.846 117.316C297.802 117.265 297.745 117.231 297.683 117.216Z" fill="black"/>
<path d="M297.617 116.983L286.923 113.28L255.646 136.633L266.509 140.454C266.752 140.541 267.01 140.565 267.263 140.524C267.516 140.484 267.757 140.38 267.966 140.221L297.705 117.603C297.758 117.568 297.801 117.517 297.828 117.456C297.854 117.395 297.863 117.327 297.854 117.261C297.845 117.194 297.817 117.132 297.775 117.083C297.732 117.033 297.677 116.998 297.617 116.983Z" fill="#464A5F"/>
<g opacity="0.1">
<path opacity="0.1" d="M281.868 112.362L281.078 111.142C281.031 111.071 280.96 111.023 280.88 111.007C280.801 110.992 280.718 111.009 280.651 111.057L279.478 111.901C279.412 111.951 279.366 112.026 279.35 112.111C279.335 112.197 279.35 112.285 279.393 112.358L280.119 113.561C280.165 113.633 280.234 113.684 280.313 113.702C280.392 113.72 280.475 113.705 280.544 113.659L281.78 112.823C281.847 112.773 281.894 112.697 281.91 112.611C281.927 112.525 281.911 112.436 281.868 112.362Z" fill="black"/>
<path opacity="0.1" d="M279.761 113.934L278.968 112.718C278.92 112.647 278.85 112.599 278.77 112.583C278.69 112.567 278.608 112.585 278.54 112.633L277.37 113.483C277.304 113.533 277.258 113.608 277.241 113.693C277.225 113.778 277.239 113.867 277.282 113.941L278.009 115.143C278.054 115.216 278.123 115.267 278.202 115.286C278.281 115.305 278.364 115.29 278.433 115.245L279.672 114.408C279.708 114.384 279.738 114.352 279.761 114.314C279.784 114.277 279.801 114.235 279.809 114.191C279.817 114.147 279.817 114.101 279.809 114.057C279.8 114.013 279.784 113.971 279.761 113.934Z" fill="black"/>
<path opacity="0.1" d="M277.546 115.583L276.754 114.367C276.706 114.296 276.635 114.248 276.556 114.232C276.476 114.217 276.394 114.235 276.326 114.283L275.153 115.133C275.086 115.183 275.04 115.259 275.024 115.345C275.008 115.431 275.024 115.52 275.068 115.594L275.794 116.796C275.84 116.868 275.909 116.919 275.988 116.937C276.067 116.955 276.15 116.94 276.219 116.895L277.455 116.058C277.49 116.033 277.521 116.002 277.545 115.965C277.568 115.927 277.585 115.885 277.593 115.841C277.602 115.797 277.602 115.752 277.594 115.707C277.586 115.663 277.57 115.621 277.546 115.583Z" fill="black"/>
<path opacity="0.1" d="M275.304 117.257L274.511 116.038C274.464 115.968 274.393 115.92 274.314 115.904C274.235 115.889 274.154 115.906 274.087 115.953L272.913 116.807C272.847 116.857 272.802 116.932 272.786 117.017C272.77 117.102 272.785 117.191 272.828 117.264L273.555 118.467C273.6 118.538 273.669 118.589 273.747 118.608C273.825 118.627 273.907 118.613 273.976 118.568L275.216 117.728C275.25 117.704 275.28 117.672 275.303 117.635C275.326 117.598 275.342 117.556 275.351 117.512C275.359 117.469 275.359 117.424 275.351 117.38C275.343 117.336 275.327 117.294 275.304 117.257Z" fill="black"/>
<path opacity="0.1" d="M273.064 118.927L272.272 117.711C272.224 117.64 272.153 117.592 272.074 117.576C271.994 117.561 271.912 117.579 271.844 117.627L270.674 118.477C270.607 118.526 270.561 118.601 270.545 118.687C270.528 118.772 270.543 118.86 270.586 118.934L271.312 120.137C271.357 120.21 271.427 120.261 271.506 120.28C271.585 120.299 271.668 120.284 271.737 120.239L272.976 119.398C273.011 119.374 273.04 119.342 273.064 119.305C273.087 119.268 273.103 119.226 273.111 119.183C273.119 119.139 273.119 119.094 273.111 119.05C273.103 119.006 273.087 118.965 273.064 118.927Z" fill="black"/>
<path opacity="0.1" d="M270.922 120.75L269.938 119.239C269.927 119.223 269.914 119.208 269.898 119.197C269.882 119.186 269.865 119.178 269.846 119.174C269.828 119.171 269.809 119.171 269.791 119.175C269.772 119.179 269.755 119.187 269.739 119.199L268.299 120.246C268.283 120.257 268.269 120.271 268.259 120.288C268.248 120.304 268.241 120.323 268.237 120.343C268.233 120.363 268.233 120.383 268.237 120.403C268.24 120.423 268.248 120.442 268.258 120.459L269.161 121.953C269.181 121.987 269.214 122.012 269.251 122.021C269.288 122.029 269.327 122.022 269.359 122.001L270.881 120.984C270.9 120.973 270.915 120.958 270.928 120.939C270.94 120.921 270.948 120.9 270.952 120.877C270.956 120.855 270.955 120.832 270.95 120.81C270.945 120.788 270.935 120.768 270.922 120.75Z" fill="black"/>
<path opacity="0.1" d="M268.683 122.421L267.692 120.91C267.681 120.893 267.668 120.878 267.652 120.867C267.636 120.856 267.618 120.848 267.599 120.844C267.581 120.84 267.561 120.841 267.543 120.845C267.524 120.849 267.506 120.857 267.491 120.869L266.05 121.916C266.019 121.939 265.998 121.974 265.991 122.014C265.984 122.054 265.992 122.095 266.012 122.129L266.915 123.623C266.925 123.641 266.938 123.656 266.953 123.668C266.968 123.681 266.986 123.689 267.005 123.694C267.023 123.698 267.042 123.698 267.061 123.694C267.08 123.69 267.098 123.682 267.113 123.671L268.632 122.654C268.652 122.645 268.669 122.63 268.683 122.612C268.696 122.594 268.706 122.573 268.71 122.551C268.715 122.528 268.715 122.505 268.711 122.482C268.706 122.46 268.696 122.439 268.683 122.421Z" fill="black"/>
<path opacity="0.1" d="M266.698 123.901L265.714 122.403C265.691 122.371 265.658 122.349 265.621 122.342C265.584 122.335 265.546 122.344 265.515 122.366L264.075 123.41C264.043 123.433 264.021 123.469 264.014 123.509C264.006 123.55 264.013 123.592 264.034 123.627L264.937 125.121C264.958 125.154 264.99 125.178 265.027 125.187C265.064 125.196 265.102 125.189 265.135 125.168L266.657 124.152C266.678 124.141 266.696 124.125 266.71 124.105C266.724 124.085 266.734 124.062 266.738 124.038C266.742 124.013 266.74 123.988 266.733 123.964C266.726 123.94 266.714 123.919 266.698 123.901Z" fill="black"/>
<path opacity="0.1" d="M264.477 125.554L263.493 124.043C263.471 124.011 263.438 123.989 263.401 123.982C263.364 123.975 263.326 123.983 263.295 124.006L261.854 125.05C261.838 125.061 261.824 125.075 261.814 125.092C261.803 125.11 261.796 125.129 261.792 125.149C261.788 125.169 261.788 125.19 261.792 125.21C261.795 125.23 261.803 125.249 261.813 125.266L262.716 126.76C262.737 126.794 262.769 126.818 262.806 126.827C262.843 126.835 262.882 126.829 262.914 126.808L264.436 125.792C264.455 125.78 264.471 125.764 264.483 125.746C264.495 125.727 264.503 125.706 264.507 125.683C264.511 125.661 264.51 125.637 264.505 125.615C264.5 125.593 264.491 125.572 264.477 125.554Z" fill="black"/>
<path opacity="0.1" d="M262.326 127.147L261.342 125.636C261.331 125.619 261.318 125.604 261.302 125.593C261.286 125.582 261.269 125.574 261.251 125.571C261.232 125.567 261.213 125.567 261.195 125.571C261.176 125.575 261.159 125.583 261.144 125.595L259.703 126.642C259.687 126.653 259.673 126.667 259.663 126.684C259.652 126.701 259.645 126.719 259.641 126.739C259.637 126.759 259.637 126.78 259.641 126.8C259.644 126.819 259.652 126.838 259.662 126.855L260.565 128.349C260.585 128.384 260.618 128.408 260.655 128.417C260.692 128.426 260.731 128.418 260.763 128.397L262.285 127.38C262.304 127.369 262.319 127.354 262.332 127.335C262.344 127.317 262.352 127.296 262.356 127.274C262.36 127.251 262.359 127.229 262.354 127.207C262.349 127.185 262.339 127.164 262.326 127.147Z" fill="black"/>
<path opacity="0.1" d="M260.175 128.766L259.2 127.252C259.177 127.219 259.144 127.197 259.107 127.19C259.071 127.183 259.032 127.192 259.001 127.214L257.561 128.258C257.545 128.269 257.531 128.284 257.52 128.301C257.51 128.318 257.502 128.337 257.499 128.357C257.495 128.377 257.495 128.398 257.498 128.418C257.502 128.438 257.509 128.458 257.52 128.475L258.423 129.969C258.444 130.002 258.476 130.026 258.513 130.035C258.55 130.044 258.588 130.037 258.621 130.016L260.143 129C260.161 128.988 260.176 128.972 260.187 128.953C260.198 128.934 260.206 128.913 260.209 128.891C260.212 128.868 260.21 128.846 260.204 128.824C260.198 128.803 260.188 128.783 260.175 128.766Z" fill="black"/>
<path opacity="0.1" d="M258.023 130.369L257.039 128.858C257.028 128.841 257.015 128.826 256.999 128.815C256.984 128.804 256.966 128.796 256.948 128.792C256.929 128.789 256.91 128.789 256.892 128.793C256.873 128.797 256.856 128.805 256.841 128.817L255.4 129.857C255.384 129.868 255.37 129.882 255.36 129.899C255.349 129.916 255.342 129.935 255.338 129.954C255.334 129.974 255.334 129.995 255.338 130.015C255.341 130.035 255.349 130.054 255.359 130.07L256.262 131.564C256.282 131.599 256.315 131.623 256.352 131.632C256.389 131.641 256.428 131.634 256.46 131.612L257.982 130.596C258 130.584 258.015 130.569 258.026 130.551C258.038 130.533 258.046 130.513 258.05 130.492C258.053 130.47 258.053 130.448 258.048 130.427C258.044 130.406 258.035 130.386 258.023 130.369Z" fill="black"/>
<path opacity="0.1" d="M280.453 110.156L279.66 108.937C279.612 108.866 279.542 108.818 279.462 108.802C279.382 108.786 279.3 108.804 279.232 108.852L278.072 109.706C278.005 109.755 277.959 109.83 277.943 109.915C277.926 110 277.941 110.089 277.983 110.163L278.71 111.366C278.756 111.438 278.825 111.488 278.904 111.506C278.983 111.525 279.066 111.51 279.135 111.464L280.374 110.627C280.442 110.576 280.489 110.497 280.504 110.409C280.518 110.321 280.5 110.23 280.453 110.156Z" fill="black"/>
<path opacity="0.1" d="M277.354 105.335L276.562 104.109C276.514 104.039 276.444 103.991 276.365 103.975C276.286 103.96 276.204 103.977 276.137 104.024L274.964 104.874C274.897 104.924 274.851 104.999 274.835 105.084C274.819 105.169 274.833 105.258 274.876 105.332L275.602 106.534C275.647 106.607 275.717 106.658 275.796 106.677C275.875 106.696 275.958 106.681 276.027 106.636L277.266 105.799C277.334 105.75 277.382 105.673 277.398 105.586C277.415 105.5 277.399 105.409 277.354 105.335Z" fill="black"/>
<path opacity="0.1" d="M278.342 111.728L277.549 110.512C277.502 110.442 277.432 110.394 277.353 110.379C277.274 110.363 277.192 110.38 277.125 110.427L275.952 111.278C275.886 111.328 275.84 111.403 275.824 111.488C275.809 111.573 275.824 111.662 275.867 111.735L276.59 112.938C276.635 113.01 276.704 113.061 276.783 113.08C276.863 113.099 276.945 113.085 277.015 113.039L278.254 112.203C278.289 112.178 278.319 112.146 278.343 112.109C278.366 112.071 278.382 112.029 278.39 111.985C278.399 111.941 278.399 111.896 278.39 111.852C278.382 111.807 278.366 111.765 278.342 111.728Z" fill="black"/>
<path opacity="0.1" d="M276.128 113.378L275.335 112.162C275.288 112.091 275.217 112.043 275.137 112.027C275.057 112.011 274.975 112.029 274.907 112.077L273.737 112.917C273.67 112.967 273.623 113.042 273.607 113.128C273.591 113.214 273.606 113.304 273.649 113.378L274.376 114.581C274.421 114.653 274.491 114.703 274.57 114.721C274.649 114.74 274.732 114.724 274.801 114.679L276.04 113.842C276.108 113.792 276.155 113.716 276.172 113.629C276.188 113.543 276.172 113.452 276.128 113.378Z" fill="black"/>
<path opacity="0.1" d="M273.885 115.052L273.096 113.832C273.048 113.761 272.977 113.713 272.897 113.697C272.818 113.681 272.735 113.699 272.668 113.747L271.495 114.611C271.429 114.661 271.383 114.737 271.367 114.822C271.352 114.907 271.367 114.995 271.41 115.069L272.136 116.271C272.182 116.343 272.251 116.394 272.33 116.412C272.409 116.43 272.492 116.415 272.561 116.37L273.797 115.533C273.833 115.508 273.864 115.476 273.888 115.438C273.912 115.4 273.928 115.358 273.937 115.313C273.945 115.268 273.945 115.221 273.936 115.176C273.927 115.132 273.91 115.089 273.885 115.052Z" fill="black"/>
<path opacity="0.1" d="M275.294 106.985L274.502 105.769C274.454 105.699 274.384 105.651 274.305 105.636C274.226 105.62 274.144 105.637 274.077 105.684L272.904 106.534C272.837 106.584 272.791 106.659 272.775 106.744C272.758 106.829 272.773 106.918 272.816 106.992L273.542 108.195C273.587 108.267 273.657 108.318 273.736 108.337C273.815 108.356 273.898 108.341 273.967 108.296L275.206 107.459C275.241 107.435 275.271 107.403 275.295 107.366C275.318 107.328 275.334 107.286 275.343 107.242C275.351 107.198 275.351 107.152 275.342 107.108C275.334 107.064 275.318 107.022 275.294 106.985Z" fill="black"/>
<path opacity="0.1" d="M273.08 108.638L272.287 107.419C272.24 107.348 272.169 107.3 272.089 107.284C272.009 107.268 271.927 107.286 271.859 107.334L270.689 108.174C270.623 108.224 270.577 108.299 270.561 108.384C270.544 108.469 270.559 108.558 270.601 108.632L271.328 109.834C271.373 109.906 271.443 109.957 271.522 109.975C271.601 109.993 271.684 109.978 271.753 109.933L272.992 109.096C273.058 109.046 273.104 108.971 273.121 108.886C273.137 108.801 273.122 108.712 273.08 108.638Z" fill="black"/>
<path opacity="0.1" d="M270.837 110.309L270.045 109.092C269.998 109.022 269.928 108.974 269.849 108.957C269.77 108.941 269.688 108.958 269.62 109.004L268.447 109.868C268.381 109.918 268.335 109.994 268.32 110.079C268.304 110.164 268.319 110.252 268.362 110.326L269.088 111.528C269.133 111.601 269.203 111.652 269.282 111.671C269.361 111.69 269.444 111.675 269.513 111.63L270.749 110.79C270.785 110.765 270.816 110.733 270.84 110.695C270.864 110.657 270.881 110.614 270.889 110.57C270.897 110.525 270.897 110.478 270.888 110.433C270.879 110.389 270.862 110.346 270.837 110.309Z" fill="black"/>
<path opacity="0.1" d="M271.646 116.722L270.853 115.506C270.806 115.435 270.736 115.387 270.657 115.371C270.578 115.354 270.496 115.371 270.428 115.418L269.265 116.271C269.199 116.321 269.153 116.397 269.137 116.482C269.122 116.567 269.137 116.655 269.18 116.729L269.894 117.931C269.939 118.003 270.007 118.054 270.086 118.073C270.164 118.091 270.246 118.077 270.315 118.033L271.554 117.193C271.589 117.169 271.619 117.137 271.643 117.1C271.666 117.063 271.683 117.022 271.691 116.978C271.7 116.934 271.7 116.889 271.692 116.845C271.684 116.801 271.668 116.759 271.646 116.722Z" fill="black"/>
<path opacity="0.1" d="M269.406 118.392L268.613 117.176C268.566 117.105 268.495 117.057 268.415 117.041C268.336 117.025 268.253 117.043 268.186 117.091L267.016 117.941C266.949 117.991 266.903 118.066 266.887 118.151C266.87 118.236 266.885 118.325 266.928 118.399L267.654 119.602C267.699 119.674 267.768 119.725 267.847 119.744C267.927 119.763 268.009 119.748 268.079 119.703L269.318 118.866C269.353 118.842 269.383 118.81 269.406 118.773C269.43 118.735 269.446 118.693 269.454 118.649C269.463 118.605 269.463 118.56 269.454 118.515C269.446 118.471 269.43 118.429 269.406 118.392Z" fill="black"/>
<path opacity="0.1" d="M267.264 120.215L266.28 118.704C266.269 118.687 266.256 118.673 266.24 118.662C266.225 118.65 266.207 118.643 266.189 118.639C266.17 118.635 266.151 118.635 266.133 118.64C266.114 118.644 266.097 118.652 266.082 118.663L264.641 119.71C264.625 119.721 264.611 119.735 264.601 119.752C264.59 119.769 264.583 119.788 264.579 119.808C264.575 119.828 264.575 119.848 264.579 119.868C264.582 119.888 264.59 119.907 264.6 119.924L265.503 121.418C265.513 121.435 265.526 121.45 265.541 121.462C265.557 121.474 265.574 121.482 265.593 121.487C265.611 121.491 265.63 121.491 265.649 121.488C265.667 121.484 265.685 121.476 265.701 121.465L267.223 120.449C267.242 120.438 267.257 120.422 267.27 120.404C267.282 120.385 267.29 120.364 267.294 120.342C267.298 120.32 267.297 120.297 267.292 120.275C267.287 120.253 267.277 120.233 267.264 120.215Z" fill="black"/>
<path opacity="0.1" d="M265.279 121.695L264.295 120.181C264.273 120.148 264.24 120.126 264.203 120.119C264.166 120.112 264.128 120.121 264.097 120.144L262.659 121.187C262.628 121.211 262.606 121.246 262.598 121.287C262.591 121.327 262.598 121.369 262.618 121.404L263.521 122.898C263.542 122.932 263.575 122.956 263.611 122.964C263.648 122.973 263.687 122.966 263.719 122.946L265.242 121.929C265.261 121.919 265.277 121.904 265.29 121.885C265.302 121.866 265.311 121.845 265.314 121.822C265.318 121.8 265.317 121.777 265.311 121.755C265.305 121.733 265.294 121.712 265.279 121.695Z" fill="black"/>
<path opacity="0.1" d="M263.059 123.349L262.074 121.838C262.052 121.805 262.019 121.783 261.982 121.776C261.945 121.769 261.907 121.778 261.876 121.801L260.436 122.844C260.42 122.855 260.406 122.869 260.395 122.886C260.385 122.903 260.377 122.922 260.374 122.941C260.37 122.961 260.37 122.982 260.373 123.002C260.377 123.022 260.384 123.041 260.395 123.057L261.297 124.555C261.319 124.589 261.351 124.612 261.388 124.621C261.425 124.63 261.463 124.623 261.496 124.602L263.018 123.586C263.036 123.574 263.052 123.559 263.064 123.54C263.077 123.521 263.085 123.5 263.089 123.477C263.093 123.455 263.092 123.432 263.087 123.41C263.082 123.387 263.072 123.367 263.059 123.349Z" fill="black"/>
<path opacity="0.1" d="M260.907 124.955L259.923 123.444C259.913 123.427 259.899 123.412 259.883 123.401C259.868 123.39 259.85 123.382 259.832 123.379C259.813 123.375 259.794 123.375 259.776 123.379C259.758 123.383 259.74 123.392 259.725 123.403L258.284 124.436C258.268 124.447 258.255 124.462 258.244 124.478C258.233 124.495 258.226 124.514 258.222 124.534C258.218 124.554 258.218 124.574 258.222 124.594C258.226 124.614 258.233 124.633 258.243 124.65L259.146 126.144C259.167 126.178 259.199 126.202 259.236 126.211C259.273 126.22 259.312 126.213 259.344 126.191L260.867 125.175C260.883 125.164 260.897 125.149 260.908 125.132C260.919 125.114 260.927 125.095 260.93 125.074C260.934 125.054 260.934 125.032 260.93 125.012C260.926 124.991 260.919 124.972 260.907 124.955Z" fill="black"/>
<path opacity="0.1" d="M274.653 111.084L273.86 109.868C273.813 109.798 273.742 109.751 273.663 109.735C273.584 109.719 273.503 109.737 273.435 109.783L272.262 110.637C272.196 110.687 272.151 110.763 272.135 110.848C272.119 110.933 272.134 111.021 272.177 111.095L272.904 112.297C272.949 112.368 273.018 112.418 273.096 112.436C273.175 112.455 273.257 112.44 273.325 112.396L274.565 111.559C274.6 111.534 274.63 111.502 274.653 111.465C274.677 111.428 274.693 111.386 274.701 111.341C274.709 111.297 274.709 111.252 274.701 111.208C274.693 111.164 274.676 111.122 274.653 111.084Z" fill="black"/>
<path opacity="0.1" d="M272.41 112.758L271.617 111.538C271.57 111.468 271.499 111.419 271.419 111.404C271.34 111.388 271.257 111.406 271.19 111.454L270.02 112.307C269.953 112.357 269.907 112.432 269.891 112.517C269.874 112.602 269.889 112.691 269.931 112.765L270.658 113.968C270.703 114.04 270.772 114.091 270.851 114.11C270.93 114.129 271.013 114.114 271.083 114.069L272.322 113.229C272.356 113.204 272.386 113.173 272.409 113.136C272.433 113.099 272.449 113.057 272.457 113.013C272.465 112.969 272.465 112.924 272.457 112.881C272.449 112.837 272.433 112.795 272.41 112.758Z" fill="black"/>
<path opacity="0.1" d="M270.174 114.428L269.381 113.212C269.334 113.141 269.263 113.093 269.183 113.077C269.103 113.062 269.021 113.08 268.953 113.127L267.78 113.978C267.714 114.028 267.669 114.103 267.653 114.188C267.637 114.273 267.652 114.362 267.695 114.435L268.422 115.638C268.467 115.711 268.536 115.762 268.615 115.781C268.694 115.8 268.777 115.785 268.846 115.74L270.083 114.899C270.117 114.875 270.147 114.844 270.171 114.807C270.194 114.77 270.211 114.728 270.219 114.684C270.228 114.641 270.228 114.595 270.22 114.552C270.212 114.508 270.197 114.466 270.174 114.428Z" fill="black"/>
<path opacity="0.1" d="M267.931 116.099L267.138 114.882C267.091 114.812 267.021 114.765 266.942 114.749C266.863 114.733 266.781 114.751 266.714 114.798L265.54 115.648C265.475 115.698 265.429 115.773 265.413 115.858C265.398 115.944 265.413 116.032 265.456 116.105L266.182 117.322C266.227 117.393 266.296 117.444 266.374 117.463C266.453 117.482 266.535 117.468 266.604 117.423L267.843 116.586C267.88 116.562 267.911 116.529 267.936 116.491C267.961 116.453 267.978 116.409 267.986 116.363C267.994 116.317 267.993 116.27 267.984 116.225C267.975 116.179 267.957 116.136 267.931 116.099Z" fill="black"/>
<path opacity="0.1" d="M265.805 117.922L264.82 116.41C264.81 116.394 264.796 116.379 264.781 116.368C264.765 116.357 264.747 116.349 264.729 116.345C264.711 116.342 264.692 116.342 264.673 116.346C264.655 116.35 264.637 116.358 264.622 116.37L263.181 117.417C263.15 117.439 263.128 117.475 263.121 117.514C263.113 117.554 263.12 117.596 263.141 117.63L264.043 119.128C264.054 119.145 264.067 119.159 264.082 119.171C264.098 119.182 264.115 119.19 264.134 119.195C264.152 119.199 264.171 119.199 264.19 119.195C264.208 119.191 264.226 119.183 264.241 119.172L265.764 118.155C265.782 118.144 265.798 118.129 265.81 118.11C265.822 118.092 265.831 118.071 265.835 118.049C265.838 118.026 265.838 118.003 265.833 117.982C265.827 117.96 265.818 117.939 265.805 117.922Z" fill="black"/>
<path opacity="0.1" d="M263.808 119.402L262.823 117.887C262.801 117.854 262.767 117.832 262.729 117.825C262.692 117.818 262.653 117.827 262.622 117.85L261.184 118.894C261.153 118.917 261.131 118.953 261.123 118.993C261.116 119.034 261.123 119.076 261.144 119.11L262.046 120.605C262.067 120.639 262.099 120.663 262.136 120.672C262.173 120.681 262.212 120.674 262.244 120.652L263.767 119.636C263.785 119.624 263.801 119.609 263.813 119.591C263.825 119.572 263.834 119.551 263.838 119.529C263.841 119.507 263.841 119.484 263.836 119.462C263.83 119.44 263.821 119.419 263.808 119.402Z" fill="black"/>
<path opacity="0.1" d="M261.587 121.048L260.603 119.534C260.58 119.501 260.546 119.479 260.509 119.472C260.471 119.465 260.433 119.474 260.401 119.497L258.961 120.54C258.93 120.564 258.908 120.6 258.901 120.64C258.893 120.68 258.9 120.722 258.92 120.757L259.826 122.251C259.846 122.285 259.879 122.31 259.916 122.318C259.953 122.327 259.992 122.32 260.024 122.298L261.543 121.282C261.562 121.272 261.578 121.257 261.591 121.238C261.604 121.22 261.613 121.199 261.617 121.177C261.622 121.154 261.621 121.131 261.616 121.109C261.611 121.087 261.601 121.066 261.587 121.048Z" fill="black"/>
<path opacity="0.1" d="M259.436 122.661L258.451 121.15C258.44 121.133 258.427 121.119 258.411 121.108C258.395 121.096 258.377 121.089 258.358 121.085C258.34 121.081 258.32 121.081 258.302 121.086C258.283 121.09 258.265 121.098 258.25 121.11L256.809 122.156C256.778 122.18 256.757 122.215 256.75 122.255C256.743 122.295 256.751 122.336 256.771 122.37L257.674 123.864C257.684 123.882 257.697 123.897 257.712 123.909C257.727 123.921 257.745 123.93 257.764 123.934C257.782 123.939 257.802 123.939 257.82 123.935C257.839 123.931 257.857 123.923 257.872 123.911L259.392 122.895C259.41 122.885 259.427 122.87 259.44 122.851C259.453 122.833 259.462 122.812 259.466 122.79C259.47 122.767 259.47 122.744 259.464 122.722C259.459 122.699 259.449 122.679 259.436 122.661Z" fill="black"/>
<path opacity="0.1" d="M258.756 126.557L257.772 125.046C257.75 125.014 257.717 124.991 257.68 124.985C257.643 124.978 257.605 124.986 257.573 125.009L256.133 126.053C256.117 126.063 256.103 126.078 256.093 126.094C256.082 126.111 256.075 126.13 256.071 126.15C256.067 126.17 256.067 126.19 256.071 126.21C256.074 126.23 256.081 126.249 256.092 126.266L256.995 127.763C257.016 127.797 257.048 127.821 257.085 127.83C257.122 127.838 257.16 127.832 257.193 127.811L258.715 126.794C258.734 126.783 258.749 126.767 258.762 126.749C258.774 126.73 258.782 126.708 258.786 126.686C258.79 126.663 258.789 126.64 258.784 126.618C258.779 126.596 258.769 126.575 258.756 126.557Z" fill="black"/>
<path opacity="0.1" d="M256.605 128.163L255.62 126.652C255.61 126.635 255.596 126.621 255.581 126.61C255.565 126.598 255.548 126.591 255.529 126.587C255.511 126.583 255.492 126.583 255.473 126.588C255.455 126.592 255.438 126.6 255.422 126.611L253.982 127.658C253.966 127.669 253.952 127.683 253.941 127.7C253.931 127.717 253.923 127.736 253.919 127.756C253.916 127.776 253.916 127.796 253.919 127.816C253.923 127.836 253.93 127.855 253.941 127.872L254.843 129.366C254.864 129.4 254.896 129.424 254.933 129.433C254.97 129.442 255.009 129.435 255.042 129.413L256.564 128.397C256.582 128.386 256.598 128.37 256.61 128.352C256.622 128.333 256.631 128.312 256.635 128.29C256.639 128.268 256.638 128.245 256.633 128.223C256.628 128.201 256.618 128.181 256.605 128.163Z" fill="black"/>
<path opacity="0.1" d="M259.983 118.562L259.039 117.139C259.01 117.094 258.965 117.064 258.915 117.055C258.865 117.045 258.814 117.057 258.772 117.088L257.413 118.074C257.392 118.089 257.374 118.108 257.36 118.131C257.345 118.154 257.336 118.179 257.331 118.206C257.326 118.233 257.326 118.26 257.331 118.287C257.336 118.314 257.345 118.339 257.36 118.362L258.209 119.768C258.222 119.791 258.239 119.811 258.26 119.827C258.28 119.843 258.304 119.854 258.328 119.86C258.353 119.866 258.378 119.867 258.403 119.862C258.428 119.857 258.452 119.847 258.473 119.832L259.91 118.86C259.934 118.846 259.955 118.827 259.972 118.805C259.988 118.782 260 118.756 260.007 118.728C260.014 118.7 260.015 118.671 260.011 118.642C260.007 118.613 259.997 118.586 259.983 118.562Z" fill="black"/>
<path opacity="0.1" d="M257.831 120.168L256.904 118.745C256.889 118.722 256.871 118.703 256.85 118.688C256.829 118.673 256.805 118.663 256.78 118.658C256.755 118.653 256.73 118.653 256.705 118.659C256.68 118.664 256.657 118.675 256.636 118.69L255.277 119.693C255.256 119.708 255.238 119.727 255.224 119.749C255.21 119.772 255.2 119.797 255.195 119.823C255.19 119.85 255.19 119.877 255.195 119.904C255.2 119.93 255.21 119.955 255.224 119.978L256.073 121.387C256.101 121.433 256.144 121.465 256.193 121.477C256.242 121.489 256.294 121.48 256.337 121.452L257.775 120.479C257.799 120.464 257.82 120.444 257.836 120.419C257.853 120.395 257.864 120.367 257.869 120.337C257.875 120.308 257.874 120.277 257.867 120.248C257.861 120.219 257.849 120.191 257.831 120.168Z" fill="black"/>
<path opacity="0.1" d="M255.68 121.773L254.752 120.347C254.722 120.303 254.678 120.273 254.628 120.263C254.578 120.254 254.527 120.266 254.485 120.296L253.126 121.282C253.105 121.297 253.087 121.316 253.073 121.339C253.058 121.362 253.048 121.387 253.044 121.414C253.039 121.441 253.039 121.468 253.044 121.495C253.049 121.522 253.058 121.547 253.073 121.57L253.922 122.976C253.935 122.999 253.952 123.019 253.973 123.035C253.993 123.051 254.017 123.062 254.041 123.068C254.066 123.074 254.091 123.075 254.116 123.07C254.141 123.065 254.165 123.055 254.186 123.04L255.623 122.068C255.646 122.053 255.665 122.034 255.68 122.011C255.695 121.988 255.706 121.961 255.711 121.934C255.716 121.906 255.716 121.878 255.711 121.85C255.706 121.823 255.695 121.796 255.68 121.773Z" fill="black"/>
<path opacity="0.1" d="M253.557 123.42L252.572 121.905C252.55 121.873 252.517 121.851 252.48 121.844C252.443 121.837 252.405 121.845 252.374 121.868L250.934 122.912C250.902 122.935 250.88 122.971 250.873 123.011C250.865 123.052 250.872 123.094 250.893 123.128L251.796 124.623C251.817 124.656 251.849 124.68 251.886 124.689C251.923 124.698 251.961 124.691 251.994 124.67L253.516 123.654C253.535 123.643 253.552 123.628 253.565 123.61C253.578 123.592 253.587 123.57 253.591 123.548C253.594 123.525 253.593 123.502 253.588 123.48C253.582 123.457 253.571 123.437 253.557 123.42Z" fill="black"/>
<path opacity="0.1" d="M279.015 107.785L278.163 106.48C278.115 106.41 278.044 106.362 277.964 106.347C277.884 106.332 277.802 106.351 277.735 106.399L274.407 108.909C274.343 108.96 274.299 109.035 274.283 109.119C274.268 109.203 274.283 109.291 274.326 109.363L275.128 110.698C275.151 110.735 275.18 110.767 275.215 110.791C275.249 110.816 275.288 110.833 275.329 110.842C275.369 110.85 275.411 110.85 275.452 110.841C275.492 110.832 275.531 110.815 275.565 110.79L278.943 108.245C279.008 108.193 279.051 108.116 279.065 108.03C279.078 107.945 279.06 107.857 279.015 107.785Z" fill="black"/>
<path opacity="0.1" d="M257.278 124.216L256.234 122.627C256.223 122.61 256.209 122.596 256.193 122.584C256.177 122.573 256.159 122.566 256.14 122.562C256.121 122.559 256.102 122.559 256.084 122.564C256.065 122.569 256.048 122.578 256.032 122.59L252.44 125.3C252.41 125.323 252.389 125.358 252.381 125.397C252.374 125.436 252.382 125.477 252.403 125.51L253.384 127.147C253.394 127.164 253.408 127.18 253.424 127.191C253.44 127.203 253.458 127.211 253.477 127.216C253.497 127.22 253.516 127.22 253.535 127.215C253.554 127.211 253.572 127.203 253.588 127.191L257.24 124.436C257.272 124.412 257.294 124.376 257.301 124.335C257.308 124.293 257.3 124.251 257.278 124.216Z" fill="black"/>
<path opacity="0.1" d="M268.705 112.064L267.742 110.546C267.721 110.513 267.688 110.49 267.651 110.482C267.614 110.475 267.576 110.483 267.544 110.505L259.568 116.305C259.536 116.328 259.515 116.363 259.507 116.403C259.499 116.443 259.506 116.485 259.527 116.519L260.511 118.145C260.522 118.163 260.536 118.178 260.552 118.19C260.568 118.202 260.586 118.21 260.605 118.214C260.624 118.218 260.644 118.218 260.663 118.214C260.682 118.209 260.7 118.201 260.716 118.189L268.667 112.281C268.683 112.269 268.696 112.254 268.707 112.237C268.717 112.22 268.724 112.201 268.728 112.181C268.731 112.16 268.731 112.14 268.727 112.12C268.723 112.1 268.716 112.081 268.705 112.064Z" fill="black"/>
</g>
<path d="M282.079 112.402L281.286 111.182C281.239 111.112 281.168 111.063 281.088 111.048C281.008 111.032 280.926 111.05 280.858 111.098L279.688 111.951C279.622 112.001 279.576 112.076 279.559 112.161C279.543 112.246 279.558 112.335 279.6 112.409L280.327 113.612C280.372 113.684 280.441 113.735 280.52 113.754C280.599 113.773 280.682 113.758 280.751 113.713L281.991 112.873C282.025 112.848 282.055 112.817 282.078 112.78C282.101 112.743 282.117 112.701 282.125 112.657C282.134 112.613 282.134 112.568 282.126 112.525C282.118 112.481 282.102 112.439 282.079 112.402Z" fill="#464A5F"/>
<path d="M279.959 113.974L279.166 112.758C279.119 112.688 279.048 112.641 278.969 112.625C278.891 112.609 278.809 112.626 278.742 112.673L277.568 113.524C277.502 113.573 277.456 113.648 277.439 113.733C277.423 113.819 277.438 113.907 277.48 113.981L278.207 115.184C278.252 115.256 278.321 115.308 278.4 115.326C278.479 115.345 278.562 115.331 278.631 115.285L279.871 114.449C279.906 114.424 279.936 114.392 279.959 114.355C279.983 114.318 279.999 114.276 280.007 114.231C280.015 114.187 280.015 114.142 280.007 114.098C279.999 114.053 279.982 114.012 279.959 113.974Z" fill="#464A5F"/>
<path d="M277.757 115.627L276.964 114.411C276.917 114.34 276.846 114.292 276.766 114.276C276.687 114.261 276.604 114.279 276.537 114.326L275.367 115.18C275.3 115.23 275.254 115.305 275.238 115.39C275.221 115.475 275.236 115.564 275.279 115.638L276.005 116.84C276.051 116.912 276.12 116.963 276.199 116.981C276.278 116.999 276.361 116.984 276.43 116.939L277.669 116.102C277.704 116.077 277.734 116.045 277.758 116.008C277.781 115.971 277.797 115.929 277.805 115.885C277.814 115.84 277.814 115.795 277.805 115.751C277.797 115.707 277.781 115.665 277.757 115.627Z" fill="#464A5F"/>
<path d="M275.511 117.298L274.719 116.078C274.671 116.008 274.601 115.961 274.522 115.945C274.443 115.929 274.361 115.946 274.294 115.993L273.121 116.847C273.086 116.872 273.057 116.905 273.034 116.942C273.011 116.98 272.995 117.022 272.988 117.066C272.98 117.11 272.981 117.155 272.989 117.199C272.998 117.243 273.015 117.285 273.039 117.321L273.765 118.524C273.81 118.597 273.88 118.648 273.959 118.667C274.038 118.686 274.121 118.671 274.19 118.626L275.426 117.786C275.463 117.761 275.494 117.728 275.518 117.689C275.543 117.651 275.559 117.607 275.567 117.562C275.575 117.516 275.574 117.469 275.565 117.423C275.555 117.378 275.537 117.335 275.511 117.298Z" fill="#464A5F"/>
<path d="M273.272 118.968L272.479 117.752C272.432 117.682 272.361 117.634 272.282 117.618C272.204 117.603 272.122 117.62 272.055 117.667L270.881 118.517C270.815 118.567 270.77 118.643 270.754 118.728C270.738 118.813 270.753 118.901 270.796 118.975L271.52 120.177C271.565 120.25 271.634 120.301 271.713 120.32C271.792 120.339 271.875 120.324 271.944 120.279L273.184 119.439C273.218 119.414 273.248 119.383 273.271 119.346C273.294 119.309 273.31 119.267 273.319 119.223C273.327 119.179 273.327 119.134 273.319 119.091C273.311 119.047 273.295 119.005 273.272 118.968Z" fill="#464A5F"/>
<path d="M271.13 120.791L270.145 119.28C270.135 119.263 270.121 119.248 270.106 119.237C270.09 119.226 270.072 119.218 270.054 119.215C270.036 119.211 270.017 119.211 269.998 119.215C269.98 119.219 269.962 119.227 269.947 119.239L268.506 120.286C268.491 120.297 268.477 120.311 268.466 120.328C268.456 120.345 268.448 120.363 268.444 120.383C268.441 120.403 268.44 120.424 268.444 120.444C268.448 120.464 268.455 120.482 268.466 120.499L269.368 121.993C269.389 122.028 269.421 122.052 269.458 122.061C269.495 122.07 269.534 122.063 269.566 122.041L271.089 121.024C271.107 121.013 271.123 120.998 271.135 120.979C271.147 120.961 271.156 120.94 271.16 120.918C271.163 120.896 271.163 120.873 271.158 120.851C271.152 120.829 271.143 120.808 271.13 120.791Z" fill="#464A5F"/>
<path d="M268.89 122.461L267.906 120.95C267.895 120.933 267.881 120.919 267.866 120.907C267.85 120.896 267.832 120.889 267.813 120.885C267.794 120.881 267.775 120.881 267.757 120.885C267.738 120.89 267.72 120.898 267.705 120.909L266.267 121.956C266.251 121.967 266.238 121.982 266.227 121.998C266.216 122.015 266.209 122.034 266.205 122.054C266.201 122.074 266.201 122.094 266.205 122.114C266.208 122.134 266.216 122.153 266.226 122.17L267.129 123.667C267.139 123.684 267.152 123.699 267.168 123.71C267.184 123.722 267.201 123.73 267.219 123.734C267.238 123.738 267.257 123.738 267.275 123.734C267.294 123.73 267.312 123.723 267.327 123.711L268.85 122.695C268.867 122.683 268.883 122.668 268.895 122.649C268.907 122.631 268.915 122.61 268.919 122.588C268.923 122.566 268.922 122.543 268.917 122.521C268.912 122.499 268.903 122.479 268.89 122.461Z" fill="#464A5F"/>
<path d="M266.906 123.942L265.921 122.427C265.899 122.394 265.866 122.372 265.829 122.365C265.792 122.358 265.754 122.367 265.723 122.39L264.282 123.42C264.251 123.443 264.229 123.479 264.221 123.519C264.214 123.56 264.221 123.602 264.241 123.637L265.144 125.131C265.165 125.164 265.198 125.188 265.234 125.197C265.271 125.206 265.31 125.199 265.342 125.178L266.865 124.162C266.881 124.15 266.895 124.136 266.906 124.118C266.917 124.101 266.925 124.082 266.929 124.061C266.932 124.04 266.932 124.019 266.928 123.999C266.924 123.978 266.917 123.959 266.906 123.942Z" fill="#464A5F"/>
<path d="M264.685 125.598L263.701 124.097C263.678 124.065 263.645 124.042 263.608 124.036C263.571 124.029 263.533 124.037 263.502 124.06L262.062 125.104C262.046 125.115 262.032 125.129 262.021 125.146C262.011 125.163 262.003 125.183 261.999 125.203C261.996 125.223 261.996 125.244 261.999 125.264C262.003 125.284 262.01 125.303 262.021 125.32L262.924 126.814C262.945 126.848 262.977 126.872 263.014 126.881C263.051 126.889 263.089 126.883 263.122 126.862L264.644 125.846C264.664 125.835 264.682 125.819 264.696 125.799C264.71 125.78 264.719 125.757 264.723 125.733C264.727 125.709 264.725 125.684 264.719 125.661C264.712 125.637 264.701 125.616 264.685 125.598Z" fill="#464A5F"/>
<path d="M262.534 127.201L261.549 125.69C261.539 125.673 261.525 125.659 261.51 125.647C261.494 125.636 261.476 125.629 261.458 125.625C261.44 125.621 261.421 125.621 261.402 125.625C261.384 125.63 261.367 125.638 261.351 125.649L259.911 126.696C259.895 126.707 259.881 126.721 259.87 126.738C259.86 126.755 259.852 126.774 259.848 126.793C259.845 126.813 259.844 126.834 259.848 126.854C259.852 126.874 259.859 126.893 259.87 126.909L260.772 128.404C260.782 128.421 260.795 128.436 260.811 128.448C260.826 128.46 260.844 128.468 260.862 128.472C260.881 128.477 260.9 128.477 260.918 128.473C260.937 128.47 260.955 128.462 260.97 128.451L262.493 127.435C262.511 127.423 262.527 127.408 262.539 127.39C262.551 127.371 262.56 127.35 262.564 127.328C262.567 127.306 262.567 127.283 262.562 127.261C262.556 127.239 262.547 127.218 262.534 127.201Z" fill="#464A5F"/>
<path d="M260.382 128.807L259.398 127.292C259.376 127.259 259.343 127.237 259.306 127.23C259.269 127.223 259.231 127.232 259.199 127.255L257.759 128.298C257.727 128.322 257.705 128.357 257.698 128.398C257.69 128.438 257.697 128.48 257.718 128.515L258.621 130.009C258.642 130.043 258.674 130.067 258.711 130.075C258.748 130.084 258.786 130.078 258.819 130.057L260.341 129.04C260.36 129.029 260.375 129.014 260.388 128.995C260.4 128.977 260.408 128.956 260.412 128.934C260.416 128.911 260.415 128.889 260.41 128.867C260.405 128.845 260.395 128.824 260.382 128.807Z" fill="#464A5F"/>
<path d="M258.231 130.409L257.246 128.898C257.236 128.881 257.223 128.867 257.207 128.856C257.191 128.844 257.174 128.837 257.155 128.833C257.137 128.829 257.118 128.829 257.1 128.834C257.081 128.838 257.064 128.846 257.048 128.857L255.608 129.904C255.592 129.915 255.578 129.93 255.568 129.946C255.557 129.963 255.549 129.982 255.546 130.002C255.542 130.022 255.542 130.042 255.545 130.062C255.549 130.082 255.556 130.101 255.567 130.118L256.47 131.612C256.48 131.629 256.493 131.644 256.508 131.656C256.523 131.668 256.541 131.676 256.559 131.681C256.578 131.685 256.597 131.685 256.616 131.682C256.634 131.678 256.652 131.67 256.668 131.659L258.19 130.643C258.208 130.632 258.224 130.616 258.236 130.598C258.249 130.579 258.257 130.558 258.261 130.536C258.265 130.514 258.264 130.491 258.259 130.469C258.254 130.447 258.244 130.427 258.231 130.409Z" fill="#464A5F"/>
<path d="M280.66 110.207L279.868 108.987C279.82 108.917 279.75 108.87 279.671 108.854C279.592 108.838 279.51 108.855 279.443 108.902L278.27 109.756C278.204 109.806 278.158 109.881 278.143 109.967C278.127 110.052 278.142 110.14 278.185 110.213L278.908 111.416C278.953 111.489 279.022 111.54 279.102 111.559C279.181 111.578 279.264 111.563 279.333 111.518L280.572 110.678C280.607 110.653 280.636 110.621 280.66 110.584C280.683 110.547 280.699 110.506 280.707 110.462C280.715 110.418 280.715 110.373 280.707 110.329C280.699 110.285 280.683 110.244 280.66 110.207Z" fill="#464A5F"/>
<path d="M277.562 105.375L276.769 104.159C276.722 104.089 276.652 104.042 276.573 104.026C276.494 104.01 276.412 104.028 276.345 104.074L275.172 104.925C275.106 104.975 275.06 105.05 275.044 105.135C275.029 105.22 275.044 105.309 275.087 105.382L275.813 106.585C275.858 106.657 275.927 106.707 276.005 106.726C276.084 106.745 276.166 106.731 276.235 106.687L277.474 105.85C277.509 105.825 277.539 105.793 277.563 105.756C277.586 105.719 277.602 105.677 277.61 105.633C277.619 105.588 277.619 105.543 277.61 105.499C277.602 105.455 277.586 105.413 277.562 105.375Z" fill="#464A5F"/>
<path d="M278.55 111.769L277.757 110.546C277.71 110.476 277.639 110.428 277.561 110.412C277.482 110.397 277.4 110.414 277.333 110.461L276.159 111.311C276.094 111.361 276.048 111.437 276.032 111.522C276.016 111.607 276.032 111.695 276.074 111.769L276.801 112.971C276.846 113.043 276.915 113.094 276.993 113.112C277.071 113.131 277.153 113.117 277.223 113.073L278.462 112.236C278.531 112.187 278.579 112.11 278.595 112.022C278.612 111.934 278.595 111.843 278.55 111.769Z" fill="#464A5F"/>
<path d="M276.335 113.418L275.555 112.202C275.508 112.132 275.438 112.085 275.359 112.069C275.28 112.053 275.198 112.071 275.131 112.117L273.958 112.968C273.891 113.018 273.845 113.094 273.829 113.18C273.813 113.266 273.829 113.355 273.873 113.429L274.596 114.631C274.642 114.703 274.711 114.754 274.79 114.772C274.869 114.79 274.952 114.775 275.021 114.73L276.26 113.893C276.294 113.867 276.323 113.834 276.345 113.797C276.367 113.759 276.382 113.717 276.389 113.673C276.397 113.628 276.395 113.583 276.386 113.54C276.377 113.496 276.36 113.455 276.335 113.418Z" fill="#464A5F"/>
<path d="M274.096 115.092L273.303 113.873C273.256 113.802 273.185 113.754 273.105 113.738C273.026 113.722 272.943 113.74 272.876 113.788L271.706 114.642C271.639 114.691 271.593 114.766 271.577 114.851C271.56 114.937 271.575 115.025 271.617 115.099L272.344 116.302C272.389 116.374 272.458 116.425 272.537 116.444C272.617 116.463 272.699 116.449 272.769 116.403L274.008 115.563C274.042 115.539 274.072 115.507 274.095 115.47C274.119 115.433 274.135 115.391 274.143 115.347C274.151 115.304 274.151 115.259 274.143 115.215C274.135 115.171 274.119 115.129 274.096 115.092Z" fill="#464A5F"/>
<path d="M275.502 107.026L274.709 105.802C274.662 105.733 274.591 105.685 274.512 105.669C274.433 105.653 274.352 105.671 274.285 105.718L273.111 106.568C273.045 106.618 273 106.693 272.984 106.779C272.968 106.864 272.983 106.952 273.026 107.026L273.753 108.228C273.798 108.3 273.867 108.35 273.945 108.369C274.023 108.388 274.105 108.374 274.174 108.33L275.414 107.493C275.483 107.443 275.531 107.366 275.547 107.279C275.564 107.191 275.547 107.1 275.502 107.026Z" fill="#464A5F"/>
<path d="M273.287 108.679L272.495 107.459C272.447 107.389 272.377 107.341 272.298 107.326C272.219 107.31 272.138 107.327 272.07 107.374L270.897 108.228C270.831 108.278 270.784 108.353 270.768 108.438C270.752 108.523 270.766 108.612 270.809 108.685L271.535 109.888C271.58 109.961 271.65 110.012 271.729 110.031C271.808 110.05 271.891 110.035 271.96 109.99L273.199 109.15C273.234 109.125 273.264 109.093 273.287 109.056C273.31 109.019 273.326 108.978 273.334 108.934C273.342 108.89 273.342 108.845 273.334 108.801C273.326 108.757 273.31 108.716 273.287 108.679Z" fill="#464A5F"/>
<path d="M271.048 110.349L270.255 109.133C270.208 109.062 270.137 109.014 270.057 108.998C269.978 108.982 269.895 109 269.828 109.048L268.658 109.899C268.591 109.948 268.545 110.023 268.529 110.108C268.512 110.193 268.527 110.282 268.57 110.356L269.296 111.562C269.341 111.635 269.41 111.686 269.49 111.705C269.569 111.724 269.651 111.709 269.721 111.664L270.957 110.823C270.992 110.799 271.023 110.767 271.046 110.73C271.07 110.693 271.087 110.651 271.095 110.607C271.104 110.563 271.104 110.517 271.096 110.473C271.088 110.429 271.071 110.387 271.048 110.349Z" fill="#464A5F"/>
<path d="M271.853 116.762L271.061 115.546C271.013 115.476 270.943 115.429 270.864 115.413C270.785 115.397 270.704 115.415 270.636 115.461L269.463 116.305C269.397 116.355 269.352 116.43 269.336 116.515C269.32 116.601 269.335 116.689 269.378 116.762L270.105 117.965C270.149 118.037 270.218 118.087 270.297 118.106C270.375 118.125 270.457 118.111 270.526 118.067L271.765 117.227C271.833 117.177 271.881 117.101 271.897 117.014C271.914 116.927 271.898 116.837 271.853 116.762Z" fill="#464A5F"/>
<path d="M269.614 118.433L268.821 117.216C268.774 117.146 268.703 117.099 268.624 117.083C268.546 117.067 268.464 117.085 268.397 117.132L267.223 117.999C267.157 118.048 267.111 118.124 267.094 118.209C267.078 118.294 267.093 118.382 267.135 118.456L267.862 119.659C267.907 119.732 267.976 119.783 268.055 119.802C268.134 119.821 268.217 119.806 268.286 119.761L269.526 118.924C269.563 118.899 269.595 118.867 269.62 118.828C269.645 118.789 269.662 118.745 269.67 118.699C269.679 118.653 269.678 118.605 269.668 118.559C269.658 118.514 269.64 118.47 269.614 118.433Z" fill="#464A5F"/>
<path d="M267.472 120.256L266.487 118.744C266.477 118.728 266.463 118.713 266.448 118.702C266.432 118.691 266.415 118.683 266.396 118.679C266.378 118.676 266.359 118.676 266.34 118.68C266.322 118.684 266.305 118.692 266.289 118.704L264.861 119.751C264.845 119.762 264.832 119.776 264.821 119.793C264.81 119.809 264.803 119.828 264.799 119.848C264.795 119.868 264.795 119.889 264.799 119.908C264.802 119.928 264.81 119.947 264.82 119.964L265.723 121.458C265.733 121.476 265.746 121.491 265.761 121.502C265.777 121.514 265.794 121.523 265.813 121.527C265.831 121.531 265.85 121.532 265.869 121.528C265.888 121.525 265.905 121.517 265.921 121.506L267.444 120.489C267.46 120.477 267.475 120.46 267.485 120.441C267.496 120.422 267.503 120.401 267.506 120.379C267.508 120.357 267.507 120.335 267.501 120.313C267.495 120.292 267.485 120.272 267.472 120.256Z" fill="#464A5F"/>
<path d="M265.49 121.726L264.506 120.211C264.483 120.178 264.45 120.156 264.412 120.149C264.375 120.142 264.336 120.151 264.305 120.174L262.864 121.218C262.833 121.242 262.812 121.277 262.804 121.317C262.796 121.358 262.803 121.399 262.823 121.434L263.729 122.929C263.75 122.963 263.782 122.987 263.819 122.996C263.856 123.005 263.895 122.998 263.927 122.976L265.446 121.96C265.465 121.949 265.482 121.934 265.495 121.916C265.507 121.898 265.516 121.877 265.521 121.854C265.525 121.832 265.524 121.808 265.519 121.786C265.514 121.764 265.504 121.743 265.49 121.726Z" fill="#464A5F"/>
<path d="M263.267 123.393L262.282 121.878C262.26 121.846 262.227 121.823 262.19 121.817C262.153 121.81 262.115 121.818 262.084 121.841L260.643 122.885C260.612 122.908 260.59 122.944 260.582 122.984C260.575 123.025 260.582 123.067 260.603 123.101L261.505 124.595C261.526 124.629 261.559 124.653 261.596 124.662C261.632 124.67 261.671 124.664 261.703 124.643L263.226 123.627C263.245 123.616 263.262 123.601 263.275 123.583C263.287 123.565 263.296 123.543 263.3 123.521C263.304 123.498 263.303 123.475 263.297 123.452C263.292 123.43 263.281 123.41 263.267 123.393Z" fill="#464A5F"/>
<path d="M261.118 124.995L260.143 123.484C260.133 123.467 260.119 123.453 260.104 123.442C260.088 123.43 260.071 123.423 260.052 123.419C260.034 123.415 260.015 123.415 259.996 123.42C259.978 123.424 259.961 123.432 259.945 123.443L258.504 124.49C258.473 124.513 258.451 124.548 258.444 124.588C258.436 124.628 258.443 124.669 258.464 124.704L259.366 126.198C259.387 126.232 259.419 126.256 259.456 126.265C259.493 126.274 259.532 126.267 259.564 126.245L261.087 125.229C261.105 125.217 261.12 125.201 261.132 125.182C261.143 125.164 261.151 125.142 261.154 125.12C261.157 125.098 261.155 125.075 261.149 125.053C261.143 125.032 261.132 125.012 261.118 124.995Z" fill="#464A5F"/>
<path d="M274.86 111.128L274.071 109.908C274.023 109.838 273.952 109.789 273.873 109.774C273.793 109.758 273.711 109.776 273.643 109.824L272.47 110.678C272.404 110.728 272.358 110.803 272.343 110.888C272.327 110.973 272.342 111.061 272.385 111.135L273.111 112.338C273.157 112.41 273.226 112.46 273.305 112.478C273.384 112.497 273.467 112.481 273.536 112.436L274.772 111.599C274.807 111.574 274.836 111.543 274.86 111.506C274.883 111.469 274.899 111.427 274.907 111.383C274.915 111.34 274.915 111.294 274.907 111.251C274.899 111.207 274.883 111.165 274.86 111.128Z" fill="#464A5F"/>
<path d="M272.621 112.799L271.828 111.582C271.781 111.512 271.711 111.464 271.632 111.447C271.553 111.431 271.471 111.448 271.403 111.494L270.23 112.348C270.164 112.398 270.119 112.473 270.103 112.558C270.087 112.644 270.102 112.732 270.145 112.805L270.872 114.008C270.917 114.08 270.985 114.13 271.064 114.149C271.142 114.168 271.224 114.154 271.293 114.11L272.533 113.27C272.567 113.245 272.597 113.213 272.62 113.176C272.643 113.139 272.659 113.098 272.667 113.054C272.676 113.01 272.676 112.965 272.668 112.921C272.66 112.877 272.644 112.836 272.621 112.799Z" fill="#464A5F"/>
<path d="M270.381 114.469L269.579 113.256C269.532 113.185 269.461 113.137 269.381 113.121C269.301 113.105 269.219 113.123 269.151 113.171L268.007 114.018C267.94 114.068 267.894 114.143 267.878 114.228C267.861 114.313 267.876 114.402 267.918 114.476L268.645 115.678C268.69 115.751 268.759 115.802 268.838 115.821C268.918 115.84 269 115.825 269.07 115.78L270.309 114.943C270.343 114.917 270.371 114.884 270.393 114.846C270.415 114.808 270.43 114.766 270.437 114.722C270.443 114.678 270.442 114.633 270.433 114.589C270.423 114.546 270.406 114.505 270.381 114.469Z" fill="#464A5F"/>
<path d="M268.139 116.139L267.346 114.923C267.299 114.853 267.228 114.805 267.149 114.79C267.07 114.774 266.989 114.791 266.921 114.838L265.748 115.689C265.682 115.739 265.637 115.814 265.621 115.899C265.605 115.984 265.62 116.072 265.663 116.146L266.39 117.349C266.435 117.42 266.504 117.471 266.582 117.49C266.66 117.509 266.742 117.494 266.811 117.45L268.051 116.613C268.086 116.589 268.116 116.557 268.139 116.52C268.163 116.482 268.179 116.44 268.187 116.396C268.195 116.352 268.195 116.307 268.187 116.262C268.179 116.218 268.162 116.176 268.139 116.139Z" fill="#464A5F"/>
<path d="M266 117.962L265.016 116.451C265.005 116.434 264.991 116.419 264.975 116.408C264.959 116.397 264.941 116.389 264.923 116.385C264.904 116.382 264.885 116.382 264.866 116.386C264.848 116.39 264.83 116.399 264.814 116.41L263.374 117.457C263.342 117.48 263.32 117.515 263.313 117.555C263.305 117.595 263.312 117.636 263.333 117.67L264.235 119.168C264.246 119.185 264.259 119.2 264.275 119.211C264.291 119.223 264.309 119.231 264.328 119.235C264.346 119.239 264.366 119.239 264.384 119.235C264.403 119.231 264.421 119.223 264.437 119.212L265.956 118.196C265.974 118.185 265.991 118.17 266.003 118.151C266.016 118.133 266.024 118.112 266.029 118.09C266.033 118.067 266.032 118.044 266.027 118.022C266.022 118 266.013 117.98 266 117.962Z" fill="#464A5F"/>
<path d="M264.015 119.442L263.031 117.931C263.02 117.914 263.007 117.9 262.991 117.889C262.976 117.878 262.958 117.87 262.94 117.866C262.921 117.862 262.902 117.863 262.884 117.867C262.865 117.871 262.848 117.879 262.833 117.891L261.401 118.934C261.37 118.957 261.348 118.993 261.34 119.034C261.333 119.074 261.34 119.116 261.361 119.151L262.263 120.645C262.284 120.679 262.317 120.702 262.354 120.711C262.39 120.72 262.429 120.713 262.461 120.692L263.984 119.676C264.001 119.664 264.016 119.648 264.028 119.629C264.039 119.61 264.046 119.589 264.049 119.567C264.052 119.545 264.051 119.522 264.045 119.501C264.039 119.479 264.029 119.459 264.015 119.442Z" fill="#464A5F"/>
<path d="M261.794 121.099L260.81 119.585C260.787 119.552 260.754 119.53 260.716 119.523C260.679 119.516 260.64 119.525 260.609 119.547L259.171 120.591C259.14 120.614 259.118 120.65 259.11 120.69C259.103 120.731 259.11 120.773 259.13 120.808L260.033 122.302C260.054 122.336 260.086 122.36 260.123 122.369C260.16 122.378 260.199 122.371 260.231 122.349L261.754 121.333C261.772 121.322 261.788 121.306 261.8 121.288C261.812 121.269 261.82 121.248 261.824 121.226C261.828 121.204 261.828 121.181 261.822 121.159C261.817 121.137 261.808 121.117 261.794 121.099Z" fill="#464A5F"/>
<path d="M259.643 122.702L258.659 121.191C258.648 121.174 258.634 121.159 258.618 121.148C258.602 121.137 258.584 121.129 258.566 121.125C258.547 121.121 258.528 121.122 258.509 121.126C258.491 121.13 258.473 121.138 258.457 121.15L257.02 122.197C257.004 122.208 256.99 122.222 256.98 122.239C256.969 122.255 256.962 122.274 256.958 122.294C256.954 122.314 256.954 122.335 256.958 122.355C256.961 122.374 256.968 122.393 256.979 122.41L257.882 123.908C257.892 123.925 257.905 123.939 257.921 123.951C257.936 123.962 257.954 123.97 257.972 123.975C257.991 123.979 258.01 123.979 258.028 123.975C258.047 123.971 258.064 123.963 258.08 123.952L259.602 122.935C259.62 122.924 259.635 122.908 259.647 122.89C259.659 122.871 259.667 122.85 259.671 122.828C259.675 122.806 259.675 122.784 259.67 122.762C259.665 122.74 259.656 122.719 259.643 122.702Z" fill="#464A5F"/>
<path d="M258.967 126.601L257.982 125.087C257.96 125.054 257.926 125.031 257.889 125.025C257.851 125.018 257.813 125.026 257.781 125.049L256.34 126.093C256.309 126.116 256.287 126.152 256.279 126.192C256.272 126.233 256.279 126.275 256.3 126.31L257.202 127.804C257.223 127.837 257.256 127.861 257.293 127.87C257.329 127.879 257.368 127.872 257.4 127.851L258.923 126.835C258.942 126.824 258.958 126.809 258.971 126.791C258.984 126.773 258.993 126.752 258.997 126.729C259.001 126.707 259.001 126.684 258.996 126.661C258.99 126.639 258.98 126.619 258.967 126.601Z" fill="#464A5F"/>
<path d="M256.815 128.204L255.831 126.692C255.82 126.676 255.806 126.661 255.791 126.65C255.775 126.639 255.757 126.631 255.738 126.627C255.719 126.623 255.7 126.624 255.682 126.628C255.663 126.632 255.645 126.64 255.63 126.652L254.189 127.699C254.158 127.721 254.136 127.757 254.128 127.796C254.121 127.836 254.128 127.878 254.148 127.912L255.051 129.406C255.061 129.424 255.074 129.439 255.09 129.451C255.106 129.463 255.124 129.471 255.142 129.475C255.161 129.48 255.18 129.48 255.199 129.476C255.218 129.473 255.236 129.465 255.252 129.454L256.771 128.437C256.79 128.427 256.807 128.412 256.82 128.394C256.833 128.375 256.841 128.354 256.846 128.332C256.85 128.309 256.849 128.286 256.844 128.264C256.839 128.242 256.829 128.221 256.815 128.204Z" fill="#464A5F"/>
<path d="M260.19 118.606L259.263 117.179C259.233 117.135 259.188 117.105 259.138 117.095C259.089 117.086 259.037 117.098 258.995 117.128L257.627 118.114C257.585 118.145 257.556 118.193 257.546 118.247C257.536 118.3 257.546 118.356 257.574 118.402L258.423 119.812C258.451 119.858 258.495 119.89 258.545 119.901C258.595 119.912 258.647 119.902 258.69 119.873L260.124 118.9C260.147 118.886 260.168 118.868 260.184 118.845C260.2 118.822 260.211 118.796 260.217 118.768C260.223 118.741 260.224 118.712 260.22 118.684C260.215 118.656 260.205 118.629 260.19 118.606Z" fill="#464A5F"/>
<path d="M258.039 120.208L257.111 118.785C257.097 118.763 257.079 118.743 257.057 118.728C257.036 118.713 257.013 118.703 256.988 118.698C256.963 118.693 256.937 118.693 256.913 118.699C256.888 118.705 256.865 118.715 256.844 118.731L255.485 119.72C255.443 119.751 255.414 119.797 255.404 119.851C255.394 119.904 255.404 119.959 255.431 120.005L256.281 121.414C256.309 121.46 256.353 121.492 256.402 121.504C256.452 121.516 256.504 121.507 256.548 121.479L257.985 120.506C258.007 120.491 258.026 120.47 258.04 120.447C258.055 120.423 258.065 120.397 258.07 120.369C258.075 120.341 258.075 120.313 258.069 120.285C258.064 120.258 258.054 120.231 258.039 120.208Z" fill="#464A5F"/>
<path d="M255.888 121.814L254.944 120.387C254.915 120.343 254.871 120.313 254.822 120.304C254.772 120.295 254.721 120.306 254.68 120.337L253.318 121.323C253.276 121.353 253.247 121.401 253.237 121.455C253.227 121.509 253.237 121.564 253.264 121.611L254.114 123.02C254.142 123.066 254.186 123.098 254.236 123.109C254.286 123.121 254.338 123.11 254.381 123.081L255.818 122.109C255.842 122.095 255.862 122.076 255.878 122.054C255.895 122.031 255.907 122.005 255.913 121.977C255.92 121.95 255.921 121.921 255.916 121.893C255.912 121.865 255.902 121.838 255.888 121.814Z" fill="#464A5F"/>
<path d="M253.768 123.464L252.783 121.949C252.76 121.917 252.727 121.894 252.689 121.887C252.652 121.88 252.613 121.889 252.582 121.912L251.141 122.956C251.11 122.98 251.089 123.015 251.082 123.056C251.075 123.096 251.083 123.138 251.104 123.172L252.006 124.667C252.027 124.701 252.059 124.725 252.096 124.734C252.133 124.743 252.172 124.736 252.204 124.714L253.727 123.698C253.745 123.686 253.761 123.671 253.773 123.653C253.785 123.634 253.794 123.613 253.797 123.591C253.801 123.569 253.801 123.546 253.796 123.524C253.79 123.502 253.781 123.481 253.768 123.464Z" fill="#464A5F"/>
<path d="M279.226 107.835L278.386 106.528C278.338 106.457 278.267 106.41 278.187 106.395C278.108 106.379 278.026 106.398 277.958 106.446L274.612 108.957C274.547 109.007 274.503 109.082 274.488 109.166C274.473 109.251 274.488 109.338 274.53 109.411L275.335 110.746C275.358 110.783 275.388 110.814 275.422 110.839C275.457 110.863 275.495 110.88 275.536 110.889C275.577 110.897 275.618 110.897 275.659 110.888C275.7 110.879 275.738 110.862 275.772 110.837L279.147 108.293C279.212 108.242 279.256 108.166 279.271 108.081C279.286 107.996 279.269 107.908 279.226 107.835Z" fill="#464A5F"/>
<path d="M257.486 124.257L256.441 122.668C256.431 122.651 256.417 122.636 256.401 122.625C256.385 122.614 256.367 122.606 256.348 122.603C256.329 122.599 256.31 122.6 256.291 122.605C256.273 122.609 256.255 122.618 256.24 122.63L252.648 125.341C252.617 125.364 252.596 125.399 252.589 125.439C252.582 125.479 252.59 125.52 252.61 125.554L253.595 127.187C253.605 127.205 253.619 127.22 253.635 127.232C253.651 127.244 253.669 127.252 253.688 127.256C253.707 127.26 253.727 127.26 253.746 127.256C253.765 127.252 253.783 127.243 253.799 127.231L257.451 124.477C257.482 124.452 257.504 124.416 257.51 124.374C257.517 124.333 257.508 124.291 257.486 124.257Z" fill="#464A5F"/>
<path d="M268.912 112.104L267.969 110.596C267.947 110.562 267.914 110.539 267.876 110.531C267.839 110.522 267.8 110.53 267.767 110.552L259.794 116.346C259.778 116.357 259.765 116.371 259.754 116.388C259.743 116.404 259.736 116.423 259.732 116.443C259.728 116.463 259.728 116.484 259.732 116.503C259.735 116.523 259.743 116.542 259.753 116.559L260.735 118.185C260.745 118.203 260.759 118.218 260.775 118.23C260.791 118.242 260.809 118.25 260.828 118.254C260.847 118.258 260.867 118.258 260.886 118.254C260.905 118.25 260.923 118.241 260.939 118.229L268.89 112.321C268.92 112.295 268.938 112.258 268.942 112.217C268.947 112.177 268.936 112.136 268.912 112.104Z" fill="#464A5F"/>
<path opacity="0.1" d="M268.95 106.927L264.71 100.29C264.593 100.106 264.413 99.9788 264.209 99.9369C264.005 99.895 263.794 99.9416 263.622 100.067L251.943 108.513C251.857 108.575 251.784 108.656 251.727 108.749C251.669 108.842 251.63 108.947 251.61 109.057C251.591 109.167 251.592 109.28 251.612 109.389C251.633 109.499 251.674 109.603 251.733 109.695L256.054 116.522C256.112 116.615 256.187 116.694 256.274 116.756C256.361 116.817 256.458 116.859 256.56 116.88C256.662 116.901 256.767 116.9 256.869 116.877C256.97 116.854 257.067 116.809 257.152 116.745L268.749 108.103C268.834 108.04 268.907 107.96 268.963 107.867C269.019 107.773 269.057 107.669 269.076 107.56C269.095 107.451 269.093 107.339 269.072 107.23C269.05 107.121 269.009 107.019 268.95 106.927Z" fill="black"/>
<path d="M269.145 106.968L264.905 100.331C264.787 100.147 264.607 100.021 264.404 99.9789C264.2 99.9371 263.989 99.9832 263.817 100.107L252.154 108.56C252.068 108.622 251.993 108.702 251.936 108.796C251.878 108.889 251.838 108.993 251.818 109.103C251.798 109.213 251.799 109.326 251.82 109.436C251.841 109.546 251.882 109.65 251.94 109.743L256.249 116.563C256.307 116.655 256.382 116.735 256.469 116.796C256.556 116.858 256.653 116.9 256.755 116.921C256.857 116.942 256.962 116.94 257.063 116.917C257.165 116.894 257.261 116.85 257.347 116.786L268.95 108.144C269.035 108.08 269.107 108 269.162 107.906C269.218 107.813 269.256 107.708 269.274 107.599C269.292 107.49 269.29 107.378 269.268 107.27C269.246 107.161 269.204 107.059 269.145 106.968Z" fill="#939498"/>
<path d="M295.437 117.694L286.441 114.462L257.589 136.05L266.519 139.184C266.76 139.268 267.015 139.292 267.266 139.252C267.516 139.212 267.755 139.11 267.963 138.953L295.519 118.314C295.572 118.28 295.615 118.23 295.642 118.169C295.669 118.109 295.679 118.041 295.67 117.975C295.662 117.908 295.635 117.846 295.593 117.796C295.552 117.746 295.497 117.711 295.437 117.694Z" fill="#492F86"/>
</g>
<defs>
<clipPath id="clip0">
<rect width="341" height="257" fill="white"/>
</clipPath>
</defs>
</svg>
