<svg width="1440" height="305" viewBox="0 0 1440 305" fill="none" xmlns="http://www.w3.org/2000/svg">
<path opacity="0.4" d="M-29 278L81.0093 105.43C107.156 64.4138 169.376 72.9753 183.472 119.529L191.731 146.803C199.831 173.552 232.836 183.03 253.894 164.653V164.653C271.447 149.335 298.477 152.995 311.325 172.429L318.768 183.688C339.736 215.404 386.954 213.294 405.009 179.834L427.292 138.535C436.671 121.153 452.265 107.952 470.956 101.569L488.795 95.4778C532.908 80.4147 581.336 100.541 601.779 142.432L623.392 186.722C635.097 210.707 664.622 219.826 687.814 206.62V206.62C705.217 196.71 727.023 199.132 741.826 212.621L772.337 240.421C782.018 249.242 793.337 256.075 805.652 260.533L855.839 278.699C898.635 294.19 946.494 278.827 972.279 241.322L1006.06 192.18C1021.14 170.256 1050.78 164.058 1073.38 178.108V178.108C1085.53 185.667 1100.35 187.628 1114.06 183.488L1179.03 163.865C1201.45 157.094 1225.77 162.196 1243.57 177.404V177.404C1283.57 211.565 1345.55 190.001 1355.71 138.391L1356.61 133.793C1359.47 119.287 1366.75 106.022 1377.45 95.8241L1477 1" stroke="#3C5AE6" stroke-width="2"/>
<circle opacity="0.2" cx="618" cy="166" r="16" fill="#A6B6F5"/>
<circle opacity="0.2" cx="618" cy="166" r="10" fill="#A6B6F5"/>
<circle cx="618" cy="166" r="6" fill="#A6B6F5"/>
<circle opacity="0.2" cx="112" cy="84" r="16" fill="#A6B6F5"/>
<circle opacity="0.2" cx="112" cy="84" r="10" fill="#A6B6F5"/>
<circle cx="112" cy="84" r="6" fill="#A6B6F5"/>
<path d="M131.927 41H135.513C139.688 41 141.99 38.75 141.99 34.8828C141.99 30.8486 139.758 28.5811 135.53 28.5811H131.927V41ZM134.159 38.9521V30.6289H135.495C138.554 30.6289 139.758 31.8418 139.758 34.7861C139.758 37.8887 138.035 38.9521 135.293 38.9521H134.159ZM147.721 41.1758C149.197 41.1758 150.366 40.6572 151.324 39.5938L149.848 38.3018C149.232 38.9873 148.529 39.2334 147.738 39.2334C146.358 39.2334 145.726 38.46 145.541 37.3086H151.57C151.614 37.1855 151.649 36.8252 151.649 36.4648C151.649 34.5049 150.656 32.0352 147.58 32.0352C144.609 32.0352 143.273 34.3555 143.273 36.6406C143.273 39.0049 144.697 41.1758 147.721 41.1758ZM145.541 35.7617C145.743 34.6631 146.297 33.8369 147.562 33.8369C148.494 33.8369 149.25 34.3027 149.47 35.208C149.522 35.3838 149.54 35.5684 149.54 35.7617H145.541ZM156.097 41.1758C157.758 41.1758 159.524 40.2793 159.524 38.249C159.524 35.0234 155.06 35.8145 155.06 34.4873C155.06 34.0742 155.49 33.7314 156.193 33.7314C157.143 33.7314 157.635 34.3027 157.934 34.8477L159.595 33.9424C158.927 32.7559 157.775 32.0352 156.264 32.0352C154.567 32.0352 153.003 32.9141 153.003 34.7686C153.003 37.8711 157.415 36.8779 157.415 38.3545C157.415 38.8203 156.984 39.4004 155.991 39.4004C154.822 39.4004 154.356 38.5918 154.119 37.959L152.414 38.7148C152.845 40.0684 154.251 41.1758 156.097 41.1758ZM161.396 30.5586H163.646V28.5811H161.396V30.5586ZM161.449 41H163.594V32.2197H161.449V41ZM170.194 39.6289C168.63 39.4355 167.549 39.418 167.549 38.6973C167.549 38.4951 167.628 38.3457 167.804 38.2314C168.305 38.4512 168.867 38.5742 169.474 38.5742C171.398 38.5742 173.042 37.3262 173.042 35.3662C173.042 34.7949 172.91 34.2764 172.664 33.8369L173.938 32.8086L172.822 31.4463L171.478 32.5977C170.889 32.2373 170.168 32.0352 169.403 32.0352C167.461 32.0352 165.8 33.3535 165.8 35.2607C165.8 36.0342 166.072 36.7285 166.529 37.2822C166.011 37.7393 165.712 38.3018 165.712 39.0752C165.712 39.9189 166.063 40.4463 166.573 40.7891L165.554 41.6504C165.536 41.7383 165.519 41.8262 165.519 42.0283C165.519 43.8301 166.96 45.1572 169.729 45.1572C171.908 45.1572 173.613 44.208 173.613 42.2217C173.613 40.209 171.855 39.8486 170.194 39.6289ZM169.474 33.6963C170.414 33.6963 170.915 34.3555 170.915 35.2783C170.915 36.1748 170.432 36.8252 169.474 36.8252C168.524 36.8252 168.015 36.1748 168.015 35.2783C168.015 34.3555 168.542 33.6963 169.474 33.6963ZM169.711 43.5049C168.647 43.5049 167.733 43.1973 167.479 42.3184L167.426 42.0811L167.9 41.29C168.437 41.3955 168.981 41.4395 169.438 41.4834C170.897 41.6328 171.583 41.791 171.583 42.459C171.583 43.1621 170.845 43.5049 169.711 43.5049ZM175.406 41H177.551V36.1924C177.551 34.6631 178.307 34.0127 179.511 34.0127C180.609 34.0127 181.189 34.8477 181.189 35.999V41H183.334V35.7266C183.334 33.8896 182.429 32.0352 180.126 32.0352C179.265 32.0352 178.254 32.3779 177.551 33.2393V32.2197H175.406V41ZM189.311 41.1758C190.787 41.1758 191.956 40.6572 192.914 39.5938L191.438 38.3018C190.822 38.9873 190.119 39.2334 189.328 39.2334C187.948 39.2334 187.315 38.46 187.131 37.3086H193.16C193.204 37.1855 193.239 36.8252 193.239 36.4648C193.239 34.5049 192.246 32.0352 189.17 32.0352C186.199 32.0352 184.863 34.3555 184.863 36.6406C184.863 39.0049 186.287 41.1758 189.311 41.1758ZM187.131 35.7617C187.333 34.6631 187.887 33.8369 189.152 33.8369C190.084 33.8369 190.84 34.3027 191.06 35.208C191.112 35.3838 191.13 35.5684 191.13 35.7617H187.131ZM195.041 41H197.115V37.291C197.115 35.0586 198.161 34.127 199.163 34.127C199.506 34.127 199.831 34.2324 200.121 34.4258L201.097 32.668C200.675 32.2373 200.068 32.0352 199.488 32.0352C198.504 32.0352 197.511 32.6328 197.133 33.6963V32.2197H195.041V41ZM204.595 41.1758C206.256 41.1758 208.022 40.2793 208.022 38.249C208.022 35.0234 203.558 35.8145 203.558 34.4873C203.558 34.0742 203.988 33.7314 204.691 33.7314C205.641 33.7314 206.133 34.3027 206.432 34.8477L208.093 33.9424C207.425 32.7559 206.273 32.0352 204.762 32.0352C203.065 32.0352 201.501 32.9141 201.501 34.7686C201.501 37.8711 205.913 36.8779 205.913 38.3545C205.913 38.8203 205.482 39.4004 204.489 39.4004C203.32 39.4004 202.854 38.5918 202.617 37.959L200.912 38.7148C201.343 40.0684 202.749 41.1758 204.595 41.1758Z" fill="#16161D"/>
<path fill-rule="evenodd" clip-rule="evenodd" d="M97.2535 15C94.4921 15 92.2535 17.2386 92.2535 20V51C92.2535 52.7943 93.1987 54.3679 94.6183 55.25H92L109.754 74L126.797 56H239.254C242.015 56 244.254 53.7614 244.254 51V20C244.254 17.2386 242.015 15 239.254 15H97.2535Z" fill="#A6B6F5" fill-opacity="0.3"/>
<path d="M611.815 123H615.401C619.576 123 621.879 120.75 621.879 116.883C621.879 112.849 619.646 110.581 615.419 110.581H611.815V123ZM614.048 120.952V112.629H615.384C618.442 112.629 619.646 113.842 619.646 116.786C619.646 119.889 617.924 120.952 615.182 120.952H614.048ZM623.83 112.559H626.08V110.581H623.83V112.559ZM623.883 123H626.027V114.22H623.883V123ZM632.628 121.629C631.063 121.436 629.982 121.418 629.982 120.697C629.982 120.495 630.062 120.346 630.237 120.231C630.738 120.451 631.301 120.574 631.907 120.574C633.832 120.574 635.476 119.326 635.476 117.366C635.476 116.795 635.344 116.276 635.098 115.837L636.372 114.809L635.256 113.446L633.911 114.598C633.322 114.237 632.602 114.035 631.837 114.035C629.895 114.035 628.233 115.354 628.233 117.261C628.233 118.034 628.506 118.729 628.963 119.282C628.444 119.739 628.146 120.302 628.146 121.075C628.146 121.919 628.497 122.446 629.007 122.789L627.987 123.65C627.97 123.738 627.952 123.826 627.952 124.028C627.952 125.83 629.394 127.157 632.162 127.157C634.342 127.157 636.047 126.208 636.047 124.222C636.047 122.209 634.289 121.849 632.628 121.629ZM631.907 115.696C632.848 115.696 633.349 116.355 633.349 117.278C633.349 118.175 632.865 118.825 631.907 118.825C630.958 118.825 630.448 118.175 630.448 117.278C630.448 116.355 630.976 115.696 631.907 115.696ZM632.145 125.505C631.081 125.505 630.167 125.197 629.912 124.318L629.859 124.081L630.334 123.29C630.87 123.396 631.415 123.439 631.872 123.483C633.331 123.633 634.017 123.791 634.017 124.459C634.017 125.162 633.278 125.505 632.145 125.505ZM637.787 112.559H640.037V110.581H637.787V112.559ZM637.84 123H639.984V114.22H637.84V123ZM645.653 123.176C646.295 123.176 646.928 123.035 647.253 122.912V120.97C646.963 121.11 646.479 121.286 646.031 121.286C645.469 121.286 645.056 121.04 645.056 120.196V116.013H647.253V114.22H645.056V110.511L642.946 112.04V114.22H641.496V116.013H642.911V120.574C642.911 122.174 643.939 123.176 645.653 123.176ZM652.526 114.035C650.795 114.035 649.679 114.809 648.835 115.96L650.479 117.146C650.856 116.505 651.533 115.907 652.544 115.907C653.941 115.907 654.328 116.461 654.372 117.762H651.99C650.021 117.762 648.492 118.395 648.492 120.302C648.492 122.139 649.881 123.176 651.683 123.176C652.685 123.176 653.854 122.736 654.425 121.831L654.557 123H656.323V117.674C656.323 115.529 654.917 114.035 652.526 114.035ZM652.113 121.365C651.155 121.365 650.689 120.952 650.689 120.372C650.689 119.818 651.138 119.309 652.113 119.309H654.381V119.379C654.249 120.416 653.432 121.365 652.113 121.365ZM660.401 123.176C660.911 123.176 661.553 123.088 662.001 123V121.198C661.772 121.233 661.535 121.251 661.412 121.251C660.981 121.251 660.709 121.075 660.709 120.662V110.581H658.564V121.251C658.564 122.798 659.391 123.176 660.401 123.176ZM677.927 110.581L674.631 119.414L671.335 110.581H668.329V123H670.474V113.728L673.55 121.919H675.712L678.788 113.728V123H680.933V110.581H677.927ZM687.015 114.035C685.283 114.035 684.167 114.809 683.323 115.96L684.967 117.146C685.345 116.505 686.021 115.907 687.032 115.907C688.43 115.907 688.816 116.461 688.86 117.762H686.479C684.51 117.762 682.98 118.395 682.98 120.302C682.98 122.139 684.369 123.176 686.171 123.176C687.173 123.176 688.342 122.736 688.913 121.831L689.045 123H690.812V117.674C690.812 115.529 689.405 114.035 687.015 114.035ZM686.602 121.365C685.644 121.365 685.178 120.952 685.178 120.372C685.178 119.818 685.626 119.309 686.602 119.309H688.869V119.379C688.737 120.416 687.92 121.365 686.602 121.365ZM693.105 123H695.18V119.291C695.18 117.059 696.226 116.127 697.228 116.127C697.57 116.127 697.896 116.232 698.186 116.426L699.161 114.668C698.739 114.237 698.133 114.035 697.553 114.035C696.568 114.035 695.575 114.633 695.197 115.696V114.22H693.105V123ZM700.348 123H702.492V120.425L703.846 118.931L706.421 123H708.952L705.305 117.621L708.592 114.22H705.806L702.492 117.867V110.581H700.348V123ZM713.426 123.176C714.902 123.176 716.071 122.657 717.029 121.594L715.553 120.302C714.938 120.987 714.234 121.233 713.443 121.233C712.063 121.233 711.431 120.46 711.246 119.309H717.275C717.319 119.186 717.354 118.825 717.354 118.465C717.354 116.505 716.361 114.035 713.285 114.035C710.314 114.035 708.979 116.355 708.979 118.641C708.979 121.005 710.402 123.176 713.426 123.176ZM711.246 117.762C711.448 116.663 712.002 115.837 713.268 115.837C714.199 115.837 714.955 116.303 715.175 117.208C715.228 117.384 715.245 117.568 715.245 117.762H711.246ZM722.259 123.176C722.9 123.176 723.533 123.035 723.858 122.912V120.97C723.568 121.11 723.085 121.286 722.637 121.286C722.074 121.286 721.661 121.04 721.661 120.196V116.013H723.858V114.22H721.661V110.511L719.552 112.04V114.22H718.102V116.013H719.517V120.574C719.517 122.174 720.545 123.176 722.259 123.176ZM729.422 123.176C730.898 123.176 732.067 122.657 733.025 121.594L731.549 120.302C730.934 120.987 730.23 121.233 729.439 121.233C728.06 121.233 727.427 120.46 727.242 119.309H733.271C733.315 119.186 733.351 118.825 733.351 118.465C733.351 116.505 732.357 114.035 729.281 114.035C726.311 114.035 724.975 116.355 724.975 118.641C724.975 121.005 726.398 123.176 729.422 123.176ZM727.242 117.762C727.444 116.663 727.998 115.837 729.264 115.837C730.195 115.837 730.951 116.303 731.171 117.208C731.224 117.384 731.241 117.568 731.241 117.762H727.242ZM735.152 123H737.227V119.291C737.227 117.059 738.272 116.127 739.274 116.127C739.617 116.127 739.942 116.232 740.232 116.426L741.208 114.668C740.786 114.237 740.18 114.035 739.6 114.035C738.615 114.035 737.622 114.633 737.244 115.696V114.22H735.152V123ZM744.706 123.176C746.367 123.176 748.134 122.279 748.134 120.249C748.134 117.023 743.669 117.814 743.669 116.487C743.669 116.074 744.1 115.731 744.803 115.731C745.752 115.731 746.244 116.303 746.543 116.848L748.204 115.942C747.536 114.756 746.385 114.035 744.873 114.035C743.177 114.035 741.612 114.914 741.612 116.769C741.612 119.871 746.024 118.878 746.024 120.354C746.024 120.82 745.594 121.4 744.601 121.4C743.432 121.4 742.966 120.592 742.729 119.959L741.023 120.715C741.454 122.068 742.86 123.176 744.706 123.176Z" fill="#16161D"/>
<path fill-rule="evenodd" clip-rule="evenodd" d="M607.254 97C604.492 97 602.254 99.2386 602.254 102V133C602.254 134.794 603.199 136.368 604.618 137.25H602L619.754 156L636.797 138H749.254C752.015 138 754.254 135.761 754.254 133V102C754.254 99.2386 752.015 97 749.254 97H607.254Z" fill="#A6B6F5" fill-opacity="0.3"/>
<circle opacity="0.2" cx="932" cy="274" r="16" fill="#A6B6F5"/>
<circle opacity="0.2" cx="932" cy="274" r="10" fill="#A6B6F5"/>
<circle cx="932" cy="274" r="6" fill="#A6B6F5"/>
<circle opacity="0.2" cx="1126" cy="177" r="16" fill="#A6B6F5"/>
<circle opacity="0.2" cx="1126" cy="177" r="10" fill="#A6B6F5"/>
<circle cx="1126" cy="177" r="6" fill="#A6B6F5"/>
<path d="M1131.62 134H1139.88V131.891H1133.85V128.814H1139.47V126.767H1133.85V123.629H1139.88V121.581H1131.62V134ZM1142.14 134H1144.28V129.192C1144.28 127.663 1145.04 127.013 1146.24 127.013C1147.34 127.013 1147.92 127.848 1147.92 128.999V134H1150.07V128.727C1150.07 126.89 1149.16 125.035 1146.86 125.035C1146 125.035 1144.99 125.378 1144.28 126.239V125.22H1142.14V134ZM1155.47 134.176C1156.11 134.176 1156.75 134.035 1157.07 133.912V131.97C1156.78 132.11 1156.3 132.286 1155.85 132.286C1155.29 132.286 1154.88 132.04 1154.88 131.196V127.013H1157.07V125.22H1154.88V121.511L1152.77 123.04V125.22H1151.32V127.013H1152.73V131.574C1152.73 133.174 1153.76 134.176 1155.47 134.176ZM1158.93 134H1161V130.291C1161 128.059 1162.05 127.127 1163.05 127.127C1163.39 127.127 1163.72 127.232 1164.01 127.426L1164.98 125.668C1164.56 125.237 1163.95 125.035 1163.37 125.035C1162.39 125.035 1161.4 125.633 1161.02 126.696V125.22H1158.93V134ZM1169.37 134.176C1170.84 134.176 1172.01 133.657 1172.97 132.594L1171.5 131.302C1170.88 131.987 1170.18 132.233 1169.39 132.233C1168.01 132.233 1167.37 131.46 1167.19 130.309H1173.22C1173.26 130.186 1173.3 129.825 1173.3 129.465C1173.3 127.505 1172.3 125.035 1169.23 125.035C1166.26 125.035 1164.92 127.355 1164.92 129.641C1164.92 132.005 1166.34 134.176 1169.37 134.176ZM1167.19 128.762C1167.39 127.663 1167.94 126.837 1169.21 126.837C1170.14 126.837 1170.9 127.303 1171.12 128.208C1171.17 128.384 1171.19 128.568 1171.19 128.762H1167.19ZM1175.12 137.639H1177.33V133.121C1177.95 133.877 1178.86 134.176 1179.8 134.176C1182.27 134.176 1183.6 132.058 1183.6 129.605C1183.6 127.18 1182.27 125.035 1179.84 125.035C1178.92 125.035 1177.95 125.343 1177.33 126.099V125.22H1175.12V137.639ZM1179.3 132.233C1177.82 132.233 1177.14 131.082 1177.14 129.605C1177.14 128.129 1177.82 127.013 1179.3 127.013C1180.78 127.013 1181.44 128.146 1181.44 129.605C1181.44 131.064 1180.78 132.233 1179.3 132.233ZM1185.43 134H1187.51V130.291C1187.51 128.059 1188.55 127.127 1189.56 127.127C1189.9 127.127 1190.22 127.232 1190.51 127.426L1191.49 125.668C1191.07 125.237 1190.46 125.035 1189.88 125.035C1188.9 125.035 1187.9 125.633 1187.53 126.696V125.22H1185.43V134ZM1195.88 134.176C1197.35 134.176 1198.52 133.657 1199.48 132.594L1198 131.302C1197.39 131.987 1196.68 132.233 1195.89 132.233C1194.51 132.233 1193.88 131.46 1193.7 130.309H1199.73C1199.77 130.186 1199.8 129.825 1199.8 129.465C1199.8 127.505 1198.81 125.035 1195.74 125.035C1192.76 125.035 1191.43 127.355 1191.43 129.641C1191.43 132.005 1192.85 134.176 1195.88 134.176ZM1193.7 128.762C1193.9 127.663 1194.45 126.837 1195.72 126.837C1196.65 126.837 1197.41 127.303 1197.62 128.208C1197.68 128.384 1197.7 128.568 1197.7 128.762H1193.7ZM1201.61 134H1203.75V129.192C1203.75 127.663 1204.51 127.013 1205.71 127.013C1206.81 127.013 1207.39 127.848 1207.39 128.999V134H1209.53V128.727C1209.53 126.89 1208.63 125.035 1206.33 125.035C1205.46 125.035 1204.45 125.378 1203.75 126.239V125.22H1201.61V134ZM1214.7 134.176C1215.57 134.176 1216.59 133.842 1217.29 132.972V134H1219.42V125.22H1217.29V130.019C1217.29 131.548 1216.52 132.198 1215.32 132.198C1214.22 132.198 1213.64 131.372 1213.64 130.221V125.22H1211.52V130.493C1211.52 132.33 1212.4 134.176 1214.7 134.176ZM1225.62 134.176C1227.09 134.176 1228.26 133.657 1229.22 132.594L1227.75 131.302C1227.13 131.987 1226.43 132.233 1225.64 132.233C1224.26 132.233 1223.62 131.46 1223.44 130.309H1229.47C1229.51 130.186 1229.55 129.825 1229.55 129.465C1229.55 127.505 1228.55 125.035 1225.48 125.035C1222.51 125.035 1221.17 127.355 1221.17 129.641C1221.17 132.005 1222.59 134.176 1225.62 134.176ZM1223.44 128.762C1223.64 127.663 1224.19 126.837 1225.46 126.837C1226.39 126.837 1227.15 127.303 1227.37 128.208C1227.42 128.384 1227.44 128.568 1227.44 128.762H1223.44ZM1231.35 134H1233.42V130.291C1233.42 128.059 1234.47 127.127 1235.47 127.127C1235.81 127.127 1236.14 127.232 1236.43 127.426L1237.4 125.668C1236.98 125.237 1236.38 125.035 1235.8 125.035C1234.81 125.035 1233.82 125.633 1233.44 126.696V125.22H1231.35V134ZM1240.9 134.176C1242.56 134.176 1244.33 133.279 1244.33 131.249C1244.33 128.023 1239.87 128.814 1239.87 127.487C1239.87 127.074 1240.3 126.731 1241 126.731C1241.95 126.731 1242.44 127.303 1242.74 127.848L1244.4 126.942C1243.73 125.756 1242.58 125.035 1241.07 125.035C1239.37 125.035 1237.81 125.914 1237.81 127.769C1237.81 130.871 1242.22 129.878 1242.22 131.354C1242.22 131.82 1241.79 132.4 1240.8 132.4C1239.63 132.4 1239.16 131.592 1238.92 130.959L1237.22 131.715C1237.65 133.068 1239.06 134.176 1240.9 134.176Z" fill="#16161D"/>
<path fill-rule="evenodd" clip-rule="evenodd" d="M1115.25 108C1112.49 108 1110.25 110.239 1110.25 113V144C1110.25 145.794 1111.2 147.368 1112.62 148.25H1110L1127.75 167L1144.8 149H1257.25C1260.01 149 1262.25 146.761 1262.25 144V113C1262.25 110.239 1260.01 108 1257.25 108H1115.25Z" fill="#A6B6F5" fill-opacity="0.3"/>
<circle opacity="0.2" cx="425" cy="143" r="16" fill="#A6B6F5"/>
<circle opacity="0.2" cx="425" cy="143" r="10" fill="#A6B6F5"/>
<circle cx="425" cy="143" r="6" fill="#A6B6F5"/>
<path d="M321.257 100H324.843C329.018 100 331.321 97.75 331.321 93.8828C331.321 89.8486 329.088 87.5811 324.861 87.5811H321.257V100ZM323.49 97.9521V89.6289H324.826C327.884 89.6289 329.088 90.8418 329.088 93.7861C329.088 96.8887 327.366 97.9521 324.624 97.9521H323.49ZM337.051 100.176C338.528 100.176 339.697 99.6572 340.655 98.5938L339.178 97.3018C338.563 97.9873 337.86 98.2334 337.069 98.2334C335.689 98.2334 335.056 97.46 334.872 96.3086H340.901C340.945 96.1855 340.98 95.8252 340.98 95.4648C340.98 93.5049 339.987 91.0352 336.911 91.0352C333.94 91.0352 332.604 93.3555 332.604 95.6406C332.604 98.0049 334.028 100.176 337.051 100.176ZM334.872 94.7617C335.074 93.6631 335.627 92.8369 336.893 92.8369C337.825 92.8369 338.581 93.3027 338.8 94.208C338.853 94.3838 338.871 94.5684 338.871 94.7617H334.872ZM344.838 100H346.605L350.191 91.2197H347.862L345.726 97.2314L343.599 91.2197H341.261L344.838 100ZM354.788 100.176C356.264 100.176 357.433 99.6572 358.391 98.5938L356.915 97.3018C356.299 97.9873 355.596 98.2334 354.805 98.2334C353.425 98.2334 352.792 97.46 352.608 96.3086H358.637C358.681 96.1855 358.716 95.8252 358.716 95.4648C358.716 93.5049 357.723 91.0352 354.647 91.0352C351.676 91.0352 350.34 93.3555 350.34 95.6406C350.34 98.0049 351.764 100.176 354.788 100.176ZM352.608 94.7617C352.81 93.6631 353.364 92.8369 354.629 92.8369C355.561 92.8369 356.317 93.3027 356.537 94.208C356.589 94.3838 356.607 94.5684 356.607 94.7617H352.608ZM362.302 100.176C362.812 100.176 363.454 100.088 363.902 100V98.1982C363.673 98.2334 363.436 98.251 363.313 98.251C362.882 98.251 362.61 98.0752 362.61 97.6621V87.5811H360.465V98.251C360.465 99.7979 361.292 100.176 362.302 100.176ZM369.237 100.176C371.953 100.176 373.737 98.0752 373.737 95.5879C373.737 93.1094 371.953 91.0352 369.237 91.0352C366.521 91.0352 364.737 93.1094 364.737 95.5879C364.737 98.0752 366.521 100.176 369.237 100.176ZM369.237 98.3301C367.62 98.3301 366.969 97.0293 366.969 95.5879C366.969 94.1465 367.62 92.8896 369.237 92.8896C370.863 92.8896 371.504 94.1465 371.504 95.5879C371.504 97.0293 370.863 98.3301 369.237 98.3301ZM375.495 103.639H377.709V99.1211C378.325 99.877 379.239 100.176 380.179 100.176C382.649 100.176 383.976 98.0576 383.976 95.6055C383.976 93.1797 382.649 91.0352 380.214 91.0352C379.3 91.0352 378.325 91.3428 377.709 92.0986V91.2197H375.495V103.639ZM379.678 98.2334C378.202 98.2334 377.516 97.082 377.516 95.6055C377.516 94.1289 378.202 93.0127 379.678 93.0127C381.155 93.0127 381.814 94.1465 381.814 95.6055C381.814 97.0645 381.155 98.2334 379.678 98.2334ZM389.487 100.176C390.963 100.176 392.132 99.6572 393.09 98.5938L391.614 97.3018C390.999 97.9873 390.295 98.2334 389.504 98.2334C388.125 98.2334 387.492 97.46 387.307 96.3086H393.336C393.38 96.1855 393.416 95.8252 393.416 95.4648C393.416 93.5049 392.422 91.0352 389.346 91.0352C386.375 91.0352 385.04 93.3555 385.04 95.6406C385.04 98.0049 386.463 100.176 389.487 100.176ZM387.307 94.7617C387.509 93.6631 388.063 92.8369 389.329 92.8369C390.26 92.8369 391.016 93.3027 391.236 94.208C391.289 94.3838 391.306 94.5684 391.306 94.7617H387.307ZM395.217 100H397.292V96.291C397.292 94.0586 398.337 93.127 399.339 93.127C399.682 93.127 400.007 93.2324 400.297 93.4258L401.273 91.668C400.851 91.2373 400.245 91.0352 399.665 91.0352C398.68 91.0352 397.687 91.6328 397.309 92.6963V91.2197H395.217V100ZM404.771 100.176C406.432 100.176 408.199 99.2793 408.199 97.249C408.199 94.0234 403.734 94.8145 403.734 93.4873C403.734 93.0742 404.165 92.7314 404.868 92.7314C405.817 92.7314 406.309 93.3027 406.608 93.8477L408.269 92.9424C407.601 91.7559 406.45 91.0352 404.938 91.0352C403.242 91.0352 401.677 91.9141 401.677 93.7686C401.677 96.8711 406.089 95.8779 406.089 97.3545C406.089 97.8203 405.659 98.4004 404.666 98.4004C403.497 98.4004 403.031 97.5918 402.793 96.959L401.088 97.7148C401.519 99.0684 402.925 100.176 404.771 100.176Z" fill="#16161D"/>
<path fill-rule="evenodd" clip-rule="evenodd" d="M436 74C438.761 74 441 76.2386 441 79V110C441 111.794 440.055 113.368 438.635 114.25H441.253L423.5 133L406.457 115H294C291.238 115 289 112.761 289 110V79C289 76.2386 291.238 74 294 74H436Z" fill="#A6B6F5" fill-opacity="0.3"/>
<path d="M854.738 230H857.172L858.174 227.302H862.929L863.922 230H866.331L861.382 217.581H859.712L854.738 230ZM858.877 225.395L860.556 220.859L862.226 225.395H858.877ZM867.684 230H869.758V226.291C869.758 224.059 870.804 223.127 871.806 223.127C872.149 223.127 872.474 223.232 872.764 223.426L873.74 221.668C873.318 221.237 872.711 221.035 872.131 221.035C871.147 221.035 870.154 221.633 869.776 222.696V221.22H867.684V230ZM878.363 230.176C879.004 230.176 879.637 230.035 879.962 229.912V227.97C879.672 228.11 879.189 228.286 878.741 228.286C878.178 228.286 877.765 228.04 877.765 227.196V223.013H879.962V221.22H877.765V217.511L875.656 219.04V221.22H874.206V223.013H875.621V227.574C875.621 229.174 876.649 230.176 878.363 230.176ZM884.796 230.176C886.458 230.176 888.224 229.279 888.224 227.249C888.224 224.023 883.759 224.814 883.759 223.487C883.759 223.074 884.19 222.731 884.893 222.731C885.842 222.731 886.334 223.303 886.633 223.848L888.294 222.942C887.626 221.756 886.475 221.035 884.963 221.035C883.267 221.035 881.703 221.914 881.703 223.769C881.703 226.871 886.115 225.878 886.115 227.354C886.115 227.82 885.684 228.4 884.691 228.4C883.522 228.4 883.056 227.592 882.819 226.959L881.114 227.715C881.544 229.068 882.951 230.176 884.796 230.176Z" fill="#16161D"/>
<path fill-rule="evenodd" clip-rule="evenodd" d="M943 204C945.761 204 948 206.239 948 209V240C948 241.794 947.055 243.368 945.635 244.25H948.253L930.5 263L913.457 245H801C798.238 245 796 242.761 796 240V209C796 206.239 798.238 204 801 204H943Z" fill="#A6B6F5" fill-opacity="0.3"/>
</svg>
