<svg width="341" height="257" viewBox="0 0 341 257" fill="none" xmlns="http://www.w3.org/2000/svg">
<g clip-path="url(#clip0)">
<path opacity="0.1" d="M322.334 33.8706H36.8606V191.185H322.334V33.8706Z" fill="#492F86"/>
<path opacity="0.3" d="M156.697 60.8389H64.4668V176.738H156.697V60.8389Z" fill="#492F86"/>
<path d="M265.867 69.186H192.146V73.3597H265.867V69.186Z" fill="#3F3D56"/>
<path d="M299.434 76.8914H192.146V81.065H299.434V76.8914Z" fill="#3F3D56"/>
<path d="M265.867 95.5122H192.146V99.6859H265.867V95.5122Z" fill="#3F3D56"/>
<path d="M265.867 126.333H192.146V130.507H265.867V126.333Z" fill="#3F3D56"/>
<path d="M299.434 103.217H192.146V107.391H299.434V103.217Z" fill="#3F3D56"/>
<path d="M299.434 110.923H192.146V115.096H299.434V110.923Z" fill="#3F3D56"/>
<path d="M299.434 118.628H192.146V122.801H299.434V118.628Z" fill="#3F3D56"/>
<path d="M230.732 144.954H192.146V155.87H230.732V144.954Z" fill="#492F86"/>
<path d="M162.657 54.5784H70.4272V170.477H162.657V54.5784Z" fill="#492F86"/>
<path d="M149.482 118.662C149.482 141.171 136.406 149.031 120.277 149.031C104.148 149.031 91.0728 141.171 91.0728 118.662C91.0728 96.1533 120.277 67.5183 120.277 67.5183C120.277 67.5183 149.482 96.1533 149.482 118.662Z" fill="#A896D4"/>
<path d="M119.213 145.588L119.512 126.749L131.96 103.444L119.559 123.794L119.694 115.324L128.273 98.4627L119.729 113.082V113.083L119.971 97.8482L129.158 84.4244L120.009 95.4525L120.16 67.5183L119.211 104.498L119.289 102.973L109.949 88.3419L119.139 105.901L118.268 122.915L118.243 122.464L107.475 107.067L118.21 124.059L118.101 126.187L118.082 126.219L118.091 126.394L115.883 169.56H118.832L119.187 147.263L129.895 130.313L119.213 145.588Z" fill="#3F3D56"/>
<path d="M41.2524 257C63.9489 257 82.3481 254.556 82.3481 251.542C82.3481 248.528 63.9489 246.084 41.2524 246.084C18.5559 246.084 0.156738 248.528 0.156738 251.542C0.156738 254.556 18.5559 257 41.2524 257Z" fill="#492F86"/>
<path d="M21.8414 100.448L20.4763 103.766L22.0121 125.246C22.0121 125.246 21.1589 126.469 22.0121 127.342C22.8653 128.215 22.6946 128.564 22.6946 128.564C22.6946 128.564 21.3295 128.564 22.0121 129.612C22.6946 130.66 22.6946 131.184 22.6946 131.184L22.3533 132.231C22.3533 132.231 23.0359 133.105 23.0359 133.803C23.0359 134.502 27.4725 155.981 27.4725 155.981L31.7384 147.424L29.3495 113.371L21.8414 100.448Z" fill="#492F86"/>
<path d="M66.7281 154.178C66.7281 154.178 74.2358 159.838 74.5002 164.363C74.7646 168.889 64.8224 157.624 64.7548 156.354C64.6872 155.085 66.7281 154.178 66.7281 154.178Z" fill="#FFB9B9"/>
<path d="M19.6231 239.805L17.7461 246.091C17.7461 246.091 15.0159 252.204 18.7699 253.077C22.524 253.95 26.1074 250.632 26.1074 250.632V246.441L27.4725 239.805H19.6231Z" fill="#2F2E41"/>
<path d="M50.338 239.805C50.338 239.805 49.4848 251.68 51.3618 252.378C53.2388 253.077 59.8937 253.251 60.0644 252.378C60.235 251.505 62.2827 250.632 60.7469 249.409C59.2112 248.187 58.1874 241.027 58.1874 241.027L50.338 239.805Z" fill="#2F2E41"/>
<path d="M33.1033 127.342V132.581C33.1033 132.581 27.4722 144.63 25.4245 163.665C23.3769 182.7 16.3807 240.678 18.0871 241.726C19.7935 242.773 38.2224 243.472 38.7343 242.075C39.2462 240.678 39.7581 199.814 39.7581 199.814L46.0717 171C46.0717 171 47.2662 181.303 48.29 183.049C49.3139 184.796 46.5837 241.551 48.29 242.424C49.9964 243.297 73.0326 244.869 72.6913 242.075C72.35 239.281 64.6713 163.491 64.6713 163.491C64.6713 163.491 60.7466 127.691 59.5522 127.342C58.3577 126.993 47.4369 126.643 45.7305 126.993C44.0241 127.342 33.1033 127.342 33.1033 127.342Z" fill="#492F86"/>
<path d="M46.0721 84.0332C51.4438 84.0332 55.7984 79.5767 55.7984 74.0792C55.7984 68.5818 51.4438 64.1252 46.0721 64.1252C40.7003 64.1252 36.3457 68.5818 36.3457 74.0792C36.3457 79.5767 40.7003 84.0332 46.0721 84.0332Z" fill="#FFB9B9"/>
<path d="M48.1195 82.4615C48.1195 82.4615 43.171 90.3199 44.3655 92.4155C45.56 94.5111 31.7383 90.3199 31.7383 90.3199C31.7383 90.3199 40.0996 79.842 39.9289 78.6196C39.7583 77.3972 48.1195 82.4615 48.1195 82.4615Z" fill="#FFB9B9"/>
<path opacity="0.6" d="M58.358 94.1619C58.358 94.1619 49.3142 91.1931 48.1197 89.9707C47.3534 89.1697 46.6675 88.2921 46.072 87.3512C46.072 87.3512 35.1512 85.7795 34.8099 85.7795C34.4686 85.7795 31.9091 88.9229 31.2265 89.6214C30.544 90.32 21.8414 95.035 21.8414 96.2574C21.8414 97.4799 20.4763 103.767 20.4763 103.767C20.4763 103.767 23.5478 110.228 25.4248 111.625C27.3018 113.022 27.8138 112.673 27.9844 114.943C28.155 117.213 30.544 120.881 30.544 120.881C30.544 120.881 32.0797 124.897 31.7384 126.119C31.3972 127.342 29.8614 128.39 33.4448 128.04C37.0282 127.691 54.7746 128.739 54.7746 126.818C54.7746 124.897 51.3618 106.561 51.3618 106.561L58.358 94.1619Z" fill="#492F86"/>
<path d="M55.116 94.5111L58.3581 94.1619C58.3581 94.1619 59.5526 94.8604 59.7232 101.671C59.8939 108.482 59.8939 124.897 61.0883 126.294C62.2828 127.691 67.2313 149.345 67.2313 149.345C67.2313 149.345 68.5964 149.695 68.5964 150.917C68.5964 152.14 70.1321 153.187 69.4496 154.584C68.767 155.981 70.1321 155.632 69.279 156.505C68.4258 157.379 64.3305 159.125 64.1598 158.077C63.9892 157.029 64.6717 156.855 63.9892 156.505C63.3066 156.156 63.3066 155.981 63.136 154.759C62.9654 153.537 61.4296 152.314 61.6002 151.79C61.7709 151.266 54.0922 136.073 54.0922 135.55C54.0922 135.026 53.5803 133.105 52.8977 132.755C52.2152 132.406 51.1913 132.057 51.7032 131.184C52.2152 130.311 50.3381 104.116 50.3381 104.116L55.116 94.5111Z" fill="#492F86"/>
<path d="M54.2968 67.7665C51.3142 64.4531 46.6303 62.6945 42.3349 63.68C38.0394 64.6656 34.4225 68.5684 34.0866 73.0604C34.0179 73.9792 34.0751 74.9177 33.8428 75.8081C33.452 77.3056 32.2893 78.4925 31.8794 79.9846C31.6048 80.984 31.6862 82.0601 31.3952 83.0546C30.8576 84.8922 29.1933 86.0904 27.9249 87.5028C27.4113 88.0204 27.0298 88.6593 26.8141 89.3632C26.7025 89.9874 26.6742 90.6243 26.73 91.2563C26.7835 94.663 25.5459 97.9586 23.2769 100.452C24.611 99.4374 26.0525 98.5798 27.574 97.8952C26.8198 100.353 27.5093 103.261 29.4068 104.954C31.3044 106.646 34.3437 106.909 36.3954 105.417C37.6142 104.53 38.4059 103.169 39.162 101.849L42.0248 96.85C42.5427 95.9458 43.0833 95.0152 43.9107 94.3976C44.5682 93.9068 45.3671 93.6456 46.029 93.161C47.6986 91.9384 48.1469 89.5456 47.836 87.4688C47.5251 85.392 46.6125 83.4637 46.0892 81.4321C45.6752 79.8253 45.5453 77.9838 46.4766 76.6225C47.7127 74.8156 50.2532 74.585 51.933 73.2029C52.5654 72.6825 52.8479 72.0493 53.3009 71.398C53.719 70.7966 53.8256 71.0122 54.4735 70.9847C56.2525 70.9092 54.956 68.4989 54.2968 67.7665Z" fill="#2F2E41"/>
<path d="M45.8014 79.4598C46.2345 79.4598 46.5856 78.5973 46.5856 77.5335C46.5856 76.4696 46.2345 75.6072 45.8014 75.6072C45.3682 75.6072 45.0171 76.4696 45.0171 77.5335C45.0171 78.5973 45.3682 79.4598 45.8014 79.4598Z" fill="#FFB9B9"/>
<path d="M211.439 233.082C216.983 233.082 221.477 228.482 221.477 222.808C221.477 217.134 216.983 212.535 211.439 212.535C205.895 212.535 201.4 217.134 201.4 222.808C201.4 228.482 205.895 233.082 211.439 233.082Z" fill="#F2F2F2"/>
<path opacity="0.1" d="M10.0386 30.8208C15.5828 30.8208 20.0773 26.2212 20.0773 20.5473C20.0773 14.8733 15.5828 10.2737 10.0386 10.2737C4.49445 10.2737 0 14.8733 0 20.5473C0 26.2212 4.49445 30.8208 10.0386 30.8208Z" fill="#492F86"/>
<path opacity="0.1" d="M330.961 20.5472C336.506 20.5472 341 15.9475 341 10.2736C341 4.59964 336.506 0 330.961 0C325.417 0 320.923 4.59964 320.923 10.2736C320.923 15.9475 325.417 20.5472 330.961 20.5472Z" fill="#492F86"/>
</g>
<defs>
<clipPath id="clip0">
<rect width="341" height="257" fill="white"/>
</clipPath>
</defs>
</svg>
